<?xml version="1.0" encoding="iso-8859-1"?>
<!-- Generator: Adobe Illustrator 19.0.0, SVG Export Plug-In . SVG Version: 6.00 Build 0)  -->
<svg version="1.1" id="Capa_1" xmlns="http://www.w3.org/2000/svg" xmlns:xlink="http://www.w3.org/1999/xlink" x="0px" y="0px"
	 viewBox="0 0 512 512" style="enable-background:new 0 0 512 512;" xml:space="preserve">
<g>
	<polygon style="fill:#B0D2EF;" points="218.258,0 188.23,17.366 112.053,67.459 112.053,363.174 369.852,512 399.949,494.634 
		399.949,104.891 	"/>
	<polygon style="fill:#91BAE2;" points="399.949,104.891 399.949,494.634 369.852,512 369.852,122.257 	"/>
	<polygon style="fill:#A0C9D3;" points="399.949,104.891 369.852,122.257 188.23,17.366 218.258,0 	"/>
	<path style="fill:#91BAE2;" d="M188.228,17.366v80.675c0,7.403-5.258,10.378-11.762,6.642l-64.415-37.224L188.228,17.366z"/>
	<g>
		<path style="fill:#81426A;" d="M211.996,324.378c-4.513-0.1-8.919-1.386-12.777-3.73c-3.137-1.842-6.017-4.089-8.568-6.682
			c-9.957-9.994-15.79-23.369-16.338-37.466v-25.777c-0.648-8.232,3.193-16.173,10.047-20.777
			c6.977-3.506,15.303-2.974,21.777,1.392c14.959,9.821,24.241,26.273,24.912,44.155v25.77c0.648,8.232-3.193,16.173-10.047,20.777
			C218.259,323.6,215.152,324.406,211.996,324.378z M193.422,241.419c-0.747-0.021-1.486,0.156-2.142,0.514
			c-2.413,2.246-3.58,5.526-3.128,8.79V276.5c0.595,10.417,4.964,20.26,12.291,27.69l0.007,0.007
			c1.691,1.731,3.601,3.233,5.682,4.466c2.253,1.762,5.236,2.284,7.953,1.392c2.411-2.246,3.579-5.526,3.128-8.791v-25.771
			c-0.634-12.948-7.292-24.852-17.993-32.169C197.479,242.209,195.484,241.554,193.422,241.419z"/>
		<path style="fill:#81426A;" d="M230.266,337.5c-2.268,0.004-4.394-1.104-5.689-2.966l-24.514-35.243
			c-2.183-3.138-1.409-7.452,1.73-9.635s7.452-1.409,9.635,1.73l24.514,35.243c1.472,2.114,1.648,4.871,0.456,7.155
			C235.205,336.068,232.843,337.5,230.266,337.5z"/>
		<path style="fill:#81426A;" d="M297.678,376.419c-2.649,0.004-5.068-1.505-6.23-3.885l-9.541-19.581
			c-1.084-2.223-0.899-4.856,0.484-6.906c1.383-2.05,3.756-3.207,6.223-3.034c2.467,0.173,4.655,1.649,5.739,3.872l9.541,19.581
			c1.048,2.144,0.917,4.677-0.347,6.701C302.283,375.191,300.065,376.42,297.678,376.419L297.678,376.419z"/>
		<path style="fill:#81426A;" d="M264.3,307.926c-2.649,0.004-5.068-1.505-6.23-3.885l-9.52-19.541
			c-1.676-3.437-0.248-7.581,3.189-9.257c3.437-1.676,7.581-0.248,9.257,3.189l9.52,19.541c1.048,2.144,0.917,4.677-0.347,6.701
			C268.905,306.697,266.687,307.927,264.3,307.926L264.3,307.926z"/>
		<path style="fill:#81426A;" d="M254.773,351.649c-2.866,0-5.436-1.768-6.461-4.444c-1.025-2.677-0.294-5.708,1.839-7.623
			l42.899-38.493c2.848-2.513,7.19-2.261,9.727,0.566s2.321,7.17-0.484,9.731l-42.899,38.493
			C258.127,351.021,256.48,351.652,254.773,351.649L254.773,351.649z"/>
	</g>
</g>
<g>
</g>
<g>
</g>
<g>
</g>
<g>
</g>
<g>
</g>
<g>
</g>
<g>
</g>
<g>
</g>
<g>
</g>
<g>
</g>
<g>
</g>
<g>
</g>
<g>
</g>
<g>
</g>
<g>
</g>
</svg>
