<?xml version="1.0" encoding="iso-8859-1"?>
<!-- Generator: Adobe Illustrator 19.0.0, SVG Export Plug-In . SVG Version: 6.00 Build 0)  -->
<svg version="1.1" id="Capa_1" xmlns="http://www.w3.org/2000/svg" xmlns:xlink="http://www.w3.org/1999/xlink" x="0px" y="0px"
	 viewBox="0 0 512 512" style="enable-background:new 0 0 512 512;" xml:space="preserve">
<g>
	<polygon style="fill:#B0D2EF;" points="218.258,0 188.23,17.366 112.053,67.459 112.053,363.174 369.852,512 399.949,494.634 
		399.949,104.891 	"/>
	<polygon style="fill:#91BAE2;" points="399.949,104.891 399.949,494.634 369.852,512 369.852,122.257 	"/>
	<polygon style="fill:#A0C9D3;" points="399.949,104.891 369.852,122.257 188.23,17.366 218.258,0 	"/>
	<path style="fill:#91BAE2;" d="M188.228,17.366v80.675c0,7.403-5.258,10.378-11.762,6.642l-64.415-37.224L188.228,17.366z"/>
	<polygon style="fill:#F0C41A;" points="239.43,383.308 166.228,236.281 166.643,236.074 203.936,257.591 203.936,257.661 	"/>
	<polygon style="fill:#E57D25;" points="274.993,298.621 239.43,383.308 203.936,257.661 239.43,278.141 	"/>
	<polygon style="fill:#F0C41A;" points="312.978,320.554 239.43,383.308 274.993,298.621 312.286,320.138 312.702,319.931 	"/>
	<polygon style="fill:#F39D23;" points="312.702,319.931 312.286,320.138 274.993,298.621 239.43,278.141 203.936,257.661 
		203.936,257.591 166.643,236.074 166.228,236.281 165.882,235.658 188.161,213.103 213.83,260.982 239.43,242.716 265.099,290.595 
		290.769,272.329 	"/>
	<g>
		<polygon style="fill:#F0C41A;" points="239.43,242.716 213.83,260.982 188.161,213.103 		"/>
		<polygon style="fill:#F0C41A;" points="290.769,272.329 265.099,290.595 239.43,242.716 		"/>
	</g>
</g>
<g>
</g>
<g>
</g>
<g>
</g>
<g>
</g>
<g>
</g>
<g>
</g>
<g>
</g>
<g>
</g>
<g>
</g>
<g>
</g>
<g>
</g>
<g>
</g>
<g>
</g>
<g>
</g>
<g>
</g>
</svg>
