<?xml version="1.0" encoding="iso-8859-1"?>
<!-- Generator: Adobe Illustrator 19.0.0, SVG Export Plug-In . SVG Version: 6.00 Build 0)  -->
<svg version="1.1" id="Capa_1" xmlns="http://www.w3.org/2000/svg" xmlns:xlink="http://www.w3.org/1999/xlink" x="0px" y="0px"
	 viewBox="0 0 512 512" style="enable-background:new 0 0 512 512;" xml:space="preserve">
<g>
	<polygon style="fill:#B0D2EF;" points="218.258,0 188.23,17.366 112.053,67.459 112.053,363.174 369.852,512 399.949,494.634 
		399.949,104.891 	"/>
	<polygon style="fill:#91BAE2;" points="399.949,104.891 399.949,494.634 369.852,512 369.852,122.257 	"/>
	<polygon style="fill:#A0C9D3;" points="399.949,104.891 369.852,122.257 188.23,17.366 218.258,0 	"/>
	<path style="fill:#91BAE2;" d="M188.228,17.366v80.675c0,7.403-5.258,10.378-11.762,6.642l-64.415-37.224L188.228,17.366z"/>
	<g>
		<path style="fill:#E57D25;" d="M267.023,372.777c-1.212,0.001-2.403-0.318-3.453-0.926l-55.155-31.845
			c-3.308-1.912-4.441-6.142-2.531-9.451c1.91-3.309,6.14-4.444,9.45-2.536l55.155,31.845c2.714,1.566,4.038,4.761,3.225,7.787
			C272.902,370.679,270.157,372.781,267.023,372.777L267.023,372.777z"/>
		<path style="fill:#E57D25;" d="M248.422,320.108c-1.212,0.001-2.403-0.318-3.453-0.926l-26.588-15.351
			c-3.31-1.911-4.444-6.143-2.534-9.453c1.911-3.31,6.143-4.444,9.453-2.534l26.588,15.351c2.715,1.566,4.038,4.761,3.225,7.787
			C254.301,318.01,251.556,320.112,248.422,320.108z"/>
		<path style="fill:#E57D25;" d="M221.064,293.514c-1.835,0.001-3.596-0.728-4.894-2.025c-1.298-1.298-2.026-3.058-2.025-4.894
			c0-14.041,0-28.561,10.176-34.5c8.034-4.669,19.412-2.365,36.919,7.534c2.152,1.216,3.492,3.488,3.514,5.96
			c0.022,2.472-1.276,4.768-3.406,6.022s-4.768,1.277-6.919,0.058c-17.534-9.905-22.324-8.088-23.135-7.622
			c-3.311,1.932-3.311,14.338-3.311,22.547c0.001,1.835-0.728,3.596-2.025,4.894C224.659,292.786,222.899,293.515,221.064,293.514
			L221.064,293.514z"/>
		<path style="fill:#E57D25;" d="M212.807,341.196c-1.543-0.002-3.059-0.412-4.392-1.189c-2.403-1.385-3.746-4.072-3.412-6.825
			c0.334-2.753,2.281-5.041,4.946-5.81c3.367-13.317,4.78-27.053,4.196-40.777c0-3.821,3.098-6.919,6.919-6.919
			c3.821,0,6.919,3.098,6.919,6.919c0,21.52-1.878,48.263-10.818,53.426C215.841,340.788,214.338,341.193,212.807,341.196
			L212.807,341.196z"/>
	</g>
</g>
<g>
</g>
<g>
</g>
<g>
</g>
<g>
</g>
<g>
</g>
<g>
</g>
<g>
</g>
<g>
</g>
<g>
</g>
<g>
</g>
<g>
</g>
<g>
</g>
<g>
</g>
<g>
</g>
<g>
</g>
</svg>
