<?xml version="1.0" encoding="iso-8859-1"?>
<!-- Generator: Adobe Illustrator 19.0.0, SVG Export Plug-In . SVG Version: 6.00 Build 0)  -->
<svg version="1.1" id="Capa_1" xmlns="http://www.w3.org/2000/svg" xmlns:xlink="http://www.w3.org/1999/xlink" x="0px" y="0px"
	 viewBox="0 0 512 512" style="enable-background:new 0 0 512 512;" xml:space="preserve">
<g>
	<polygon style="fill:#B0D2EF;" points="218.258,0 188.23,17.366 112.053,67.459 112.053,363.174 369.852,512 399.949,494.634 
		399.949,104.891 	"/>
	<polygon style="fill:#91BAE2;" points="399.949,104.891 399.949,494.634 369.852,512 369.852,122.257 	"/>
	<polygon style="fill:#A0C9D3;" points="399.949,104.891 369.852,122.257 188.23,17.366 218.258,0 	"/>
	<path style="fill:#91BAE2;" d="M188.228,17.366v80.675c0,7.403-5.258,10.378-11.762,6.642l-64.415-37.224L188.228,17.366z"/>
	<g>
		<path style="fill:#D35525;" d="M294.641,286.858v84.134l-41.168-68.982l39.853-20.757
			C294.139,283.014,294.586,284.92,294.641,286.858L294.641,286.858z"/>
		<path style="fill:#D35525;" d="M225.383,285.821l-41.098,21.448v-84.064c-0.089-1.499,0.379-2.977,1.315-4.152L225.383,285.821z"
			/>
	</g>
	<path style="fill:#F0C41A;" d="M293.327,281.253l-39.853,20.757l-11.693,6.09c-1.315,0.484-3.321-0.623-4.705-2.698l-11.693-19.58
		l-39.784-66.769c1.721-1.684,4.434-1.803,6.296-0.276l95.135,54.937C289.858,275.515,292.057,278.15,293.327,281.253
		L293.327,281.253z"/>
	<path style="fill:#F39D23;" d="M294.641,370.992v3.736c0,4.844-3.39,6.781-7.611,4.429v-0.069l-95.135-54.867l-0.069-0.069
		c-4.239-3.137-6.973-7.903-7.542-13.146v-3.736l41.098-21.448l11.693,19.58c1.384,2.075,3.39,3.183,4.705,2.698l11.693-6.09
		L294.641,370.992z"/>
</g>
<g>
</g>
<g>
</g>
<g>
</g>
<g>
</g>
<g>
</g>
<g>
</g>
<g>
</g>
<g>
</g>
<g>
</g>
<g>
</g>
<g>
</g>
<g>
</g>
<g>
</g>
<g>
</g>
<g>
</g>
</svg>
