<?xml version="1.0" encoding="iso-8859-1"?>
<!-- Generator: Adobe Illustrator 19.0.0, SVG Export Plug-In . SVG Version: 6.00 Build 0)  -->
<svg version="1.1" id="Capa_1" xmlns="http://www.w3.org/2000/svg" xmlns:xlink="http://www.w3.org/1999/xlink" x="0px" y="0px"
	 viewBox="0 0 512 512" style="enable-background:new 0 0 512 512;" xml:space="preserve">
<g>
	<polygon style="fill:#B0D2EF;" points="218.258,0 188.23,17.366 112.053,67.459 112.053,363.174 369.852,512 399.949,494.634 
		399.949,104.891 	"/>
	<polygon style="fill:#91BAE2;" points="399.949,104.891 399.949,494.634 369.852,512 369.852,122.257 	"/>
	<polygon style="fill:#A0C9D3;" points="399.949,104.891 369.852,122.257 188.23,17.366 218.258,0 	"/>
	<path style="fill:#91BAE2;" d="M188.228,17.366v80.675c0,7.403-5.258,10.378-11.762,6.642l-64.415-37.224L188.228,17.366z"/>
	<g>
		<path style="fill:#2CAA60;" d="M312.996,425.676c-1.214,0-2.407-0.319-3.459-0.926l-147.088-84.919
			c-2.141-1.236-3.46-3.521-3.459-5.993V193.243c0-2.472,1.318-4.757,3.459-5.993c2.141-1.236,4.779-1.236,6.919,0l147.088,84.919
			c2.141,1.236,3.46,3.521,3.459,5.993v140.595c0.001,1.835-0.728,3.596-2.026,4.893S314.831,425.677,312.996,425.676z
			 M172.827,329.845l133.25,76.926V282.155l-133.25-76.926V329.845z"/>
		<path style="fill:#2CAA60;" d="M306.861,316.689c-1.212,0.001-2.403-0.318-3.453-0.926l-140.96-81.378
			c-3.31-1.911-4.444-6.143-2.534-9.453c1.911-3.31,6.143-4.444,9.453-2.534l140.959,81.378c2.714,1.566,4.038,4.761,3.225,7.787
			S309.995,316.693,306.861,316.689L306.861,316.689z"/>
		<path style="fill:#2CAA60;" d="M276.226,404.446c-1.835,0.001-3.596-0.728-4.894-2.025c-1.298-1.298-2.026-3.058-2.025-4.894
			v-99.588c0-3.821,3.098-6.919,6.919-6.919c3.821,0,6.919,3.098,6.919,6.919v99.588c0.001,1.835-0.728,3.596-2.025,4.894
			C279.822,403.718,278.061,404.447,276.226,404.446z"/>
		<path style="fill:#2CAA60;" d="M239.449,383.216c-1.835,0.001-3.596-0.728-4.894-2.025c-1.298-1.298-2.026-3.058-2.025-4.894
			v-99.588c0-3.821,3.098-6.919,6.919-6.919s6.919,3.098,6.919,6.919v99.588c0.001,1.835-0.728,3.596-2.025,4.894
			C243.045,382.489,241.284,383.217,239.449,383.216L239.449,383.216z"/>
		<path style="fill:#2CAA60;" d="M202.678,361.986c-1.835,0.001-3.596-0.728-4.894-2.025c-1.298-1.298-2.026-3.058-2.025-4.894
			V255.48c0-3.821,3.098-6.919,6.919-6.919s6.919,3.098,6.919,6.919v99.588c0.001,1.835-0.728,3.596-2.025,4.894
			C206.274,361.259,204.514,361.988,202.678,361.986z"/>
		<path style="fill:#2CAA60;" d="M312.989,355.378c-1.212,0.001-2.403-0.318-3.453-0.926l-147.088-84.919
			c-3.308-1.912-4.441-6.142-2.531-9.451s6.14-4.444,9.45-2.536l147.088,84.919c2.714,1.566,4.038,4.761,3.225,7.787
			S316.123,355.383,312.989,355.378L312.989,355.378z"/>
		<path style="fill:#2CAA60;" d="M312.989,390.527c-1.212,0.001-2.403-0.318-3.453-0.926l-147.088-84.919
			c-2.143-1.235-3.463-3.52-3.464-5.993c-0.001-2.473,1.319-4.759,3.46-5.995c2.142-1.236,4.781-1.236,6.922,0.002l147.088,84.919
			c2.714,1.566,4.038,4.761,3.225,7.787C318.868,388.429,316.123,390.531,312.989,390.527L312.989,390.527z"/>
	</g>
</g>
<g>
</g>
<g>
</g>
<g>
</g>
<g>
</g>
<g>
</g>
<g>
</g>
<g>
</g>
<g>
</g>
<g>
</g>
<g>
</g>
<g>
</g>
<g>
</g>
<g>
</g>
<g>
</g>
<g>
</g>
</svg>
