<?xml version="1.0" encoding="iso-8859-1"?>
<!-- Generator: Adobe Illustrator 19.0.0, SVG Export Plug-In . SVG Version: 6.00 Build 0)  -->
<svg version="1.1" id="Capa_1" xmlns="http://www.w3.org/2000/svg" xmlns:xlink="http://www.w3.org/1999/xlink" x="0px" y="0px"
	 viewBox="0 0 512 512" style="enable-background:new 0 0 512 512;" xml:space="preserve">
<g>
	<polygon style="fill:#B0D2EF;" points="218.258,0 188.23,17.366 112.053,67.459 112.053,363.174 369.852,512 399.949,494.634 
		399.949,104.891 	"/>
	<polygon style="fill:#91BAE2;" points="399.949,104.891 399.949,494.634 369.852,512 369.852,122.257 	"/>
	<polygon style="fill:#A0C9D3;" points="399.949,104.891 369.852,122.257 188.23,17.366 218.258,0 	"/>
	<path style="fill:#91BAE2;" d="M188.228,17.366v80.675c0,7.403-5.258,10.378-11.762,6.642l-64.415-37.224L188.228,17.366z"/>
	<g>
		<path style="fill:#E57D25;" d="M184.3,316.385c-2.162,0.003-4.201-1.006-5.512-2.726c-1.31-1.72-1.741-3.954-1.164-6.038
			l18.46-66.669c0.57-2.064,2.064-3.748,4.046-4.56c1.982-0.812,4.228-0.66,6.082,0.412l12.257,7.074
			c3.308,1.912,4.441,6.142,2.531,9.451c-1.91,3.309-6.14,4.444-9.45,2.536l-4.514-2.608l-16.074,58.054
			C190.132,314.306,187.408,316.381,184.3,316.385z"/>
		<path style="fill:#E57D25;" d="M215.003,256.791c-1.212,0.001-2.403-0.318-3.453-0.926l-12.257-7.074
			c-2.143-1.235-3.463-3.52-3.464-5.993c-0.001-2.473,1.319-4.759,3.46-5.995c2.142-1.236,4.781-1.236,6.922,0.002l12.257,7.074
			c2.714,1.566,4.038,4.761,3.225,7.787C220.882,254.692,218.137,256.795,215.003,256.791L215.003,256.791z"/>
		<path style="fill:#E57D25;" d="M233.462,344.777c-3.271-0.004-6.093-2.298-6.764-5.5l-11.743-55.973
			c-0.765-3.731,1.63-7.378,5.358-8.159c3.727-0.781,7.385,1.597,8.183,5.321l11.743,55.973c0.426,2.04-0.091,4.164-1.405,5.781
			C237.52,343.838,235.546,344.777,233.462,344.777L233.462,344.777z"/>
		
			<rect x="201.969" y="274.31" transform="matrix(-0.5 0.866 -0.866 -0.5 569.2775 262.4133)" style="fill:#E57D25;" width="13.838" height="42.461"/>
		<path style="fill:#E57D25;" d="M294.604,380.074c-1.212,0.001-2.403-0.318-3.453-0.926l-21.453-12.385
			c-14.77-9.451-24.052-25.466-24.912-42.98c-1.057-7.976,2.816-15.8,9.799-19.796c6.983-3.996,15.69-3.372,22.032,1.58l9.081,5.25
			c0.387,0.211,0.751,0.46,1.088,0.743c0.292,0.243,0.563,0.51,0.811,0.797l0.007,0.007l0,0c1.074,1.246,1.666,2.835,1.669,4.48l0,0
			v0.014l0,0v45.229l8.797,5.074c2.714,1.566,4.038,4.761,3.225,7.787C300.483,377.976,297.738,380.078,294.604,380.074
			L294.604,380.074z M263.537,315.534c-0.743-0.025-1.48,0.148-2.135,0.5c-2.136,1.975-3.173,4.868-2.777,7.75
			c0.805,12.092,6.97,23.191,16.811,30.263v-33.182l-5.737-3.311C267.848,316.371,265.728,315.676,263.537,315.534L263.537,315.534z
			"/>
	</g>
</g>
<g>
</g>
<g>
</g>
<g>
</g>
<g>
</g>
<g>
</g>
<g>
</g>
<g>
</g>
<g>
</g>
<g>
</g>
<g>
</g>
<g>
</g>
<g>
</g>
<g>
</g>
<g>
</g>
<g>
</g>
</svg>
