<?xml version="1.0" encoding="iso-8859-1"?>
<!-- Generator: Adobe Illustrator 19.0.0, SVG Export Plug-In . SVG Version: 6.00 Build 0)  -->
<svg version="1.1" id="Capa_1" xmlns="http://www.w3.org/2000/svg" xmlns:xlink="http://www.w3.org/1999/xlink" x="0px" y="0px"
	 viewBox="0 0 512 512" style="enable-background:new 0 0 512 512;" xml:space="preserve">
<g>
	<polygon style="fill:#B0D2EF;" points="218.258,0 188.23,17.366 112.053,67.459 112.053,363.174 369.852,512 399.949,494.634 
		399.949,104.891 	"/>
	<polygon style="fill:#91BAE2;" points="399.949,104.891 399.949,494.634 369.852,512 369.852,122.257 	"/>
	<polygon style="fill:#A0C9D3;" points="399.949,104.891 369.852,122.257 188.23,17.366 218.258,0 	"/>
	<path style="fill:#91BAE2;" d="M188.228,17.366v80.675c0,7.403-5.258,10.378-11.762,6.642l-64.415-37.224L188.228,17.366z"/>
	<g>
		<path style="fill:#E74C3C;" d="M165.908,302.095c-1.835,0.001-3.596-0.728-4.894-2.025c-1.298-1.298-2.026-3.058-2.025-4.894
			v-63.27c0-3.821,3.098-6.919,6.919-6.919s6.919,3.098,6.919,6.919v63.27c0.001,1.835-0.728,3.596-2.025,4.894
			C169.504,301.367,167.744,302.096,165.908,302.095L165.908,302.095z"/>
		<path style="fill:#E74C3C;" d="M187.706,284.088c-0.976-0.003-1.951-0.089-2.912-0.257c-2.436-0.42-4.462-2.108-5.316-4.427
			c-0.854-2.319-0.406-4.918,1.176-6.818c1.582-1.899,4.056-2.811,6.492-2.391c0.347,0.101,0.718,0.085,1.054-0.047
			c0.717-1.061,1.029-2.344,0.879-3.615c-0.586-8.08-4.861-15.439-11.588-19.953l-4.662-2.696v22.527
			c0,3.821-3.098,6.919-6.919,6.919c-3.821,0-6.919-3.098-6.919-6.919v-34.507c0-2.472,1.318-4.757,3.459-5.993s4.779-1.236,6.919,0
			l15.041,8.682c10.975,7.023,17.872,18.925,18.507,31.939c0.271,5.36-1.853,10.563-5.797,14.203
			C194.479,282.937,191.142,284.125,187.706,284.088z"/>
		<path style="fill:#E74C3C;" d="M282.354,369.318c-1.835,0.001-3.596-0.728-4.894-2.025c-1.298-1.298-2.026-3.058-2.025-4.894
			v-63.263c0-2.472,1.318-4.757,3.459-5.993s4.779-1.236,6.919,0l30.642,17.689c3.31,1.911,4.444,6.143,2.534,9.453
			c-1.911,3.31-6.143,4.444-9.453,2.534l-20.264-11.696v51.277c0.001,1.835-0.728,3.596-2.025,4.894
			C285.95,368.59,284.19,369.319,282.354,369.318z"/>
		<path style="fill:#E74C3C;" d="M243.624,341.851c-3.592-0.004-6.583-2.756-6.886-6.335c-0.303-3.579,2.183-6.794,5.723-7.402
			c6.122-1.047,6.784-9.068,6.784-12.466c-1.053-15.677-8.799-30.143-21.263-39.709v51.081c0,3.821-3.098,6.919-6.919,6.919
			s-6.919-3.098-6.919-6.919v-63.27c0-2.472,1.318-4.757,3.459-5.993c2.141-1.236,4.779-1.236,6.919,0l7.52,4.345
			c18.408,11.769,29.976,31.725,31.041,53.547c0,14.176-7.007,24.176-18.284,26.101
			C244.412,341.817,244.018,341.851,243.624,341.851L243.624,341.851z"/>
		<path style="fill:#E74C3C;" d="M306.861,348.324c-1.212,0-2.403-0.319-3.453-0.926l-6.128-3.534
			c-2.143-1.235-3.463-3.52-3.464-5.993c-0.001-2.473,1.319-4.759,3.46-5.995c2.142-1.236,4.781-1.236,6.922,0.002l6.128,3.534
			c2.714,1.566,4.038,4.761,3.225,7.787S309.995,348.328,306.861,348.324z"/>
	</g>
</g>
<g>
</g>
<g>
</g>
<g>
</g>
<g>
</g>
<g>
</g>
<g>
</g>
<g>
</g>
<g>
</g>
<g>
</g>
<g>
</g>
<g>
</g>
<g>
</g>
<g>
</g>
<g>
</g>
<g>
</g>
</svg>
