<?xml version="1.0" encoding="iso-8859-1"?>
<!-- Generator: Adobe Illustrator 19.0.0, SVG Export Plug-In . SVG Version: 6.00 Build 0)  -->
<svg version="1.1" id="Capa_1" xmlns="http://www.w3.org/2000/svg" xmlns:xlink="http://www.w3.org/1999/xlink" x="0px" y="0px"
	 viewBox="0 0 512 512" style="enable-background:new 0 0 512 512;" xml:space="preserve">
<g>
	<polygon style="fill:#B0D2EF;" points="218.258,0 188.23,17.366 112.053,67.459 112.053,363.174 369.852,512 399.949,494.634 
		399.949,104.891 	"/>
	<polygon style="fill:#91BAE2;" points="399.949,104.891 399.949,494.634 369.852,512 369.852,122.257 	"/>
	<polygon style="fill:#A0C9D3;" points="399.949,104.891 369.852,122.257 188.23,17.366 218.258,0 	"/>
	<path style="fill:#91BAE2;" d="M188.228,17.366v80.675c0,7.403-5.258,10.378-11.762,6.642l-64.415-37.224L188.228,17.366z"/>
	<g>
		<path style="fill:#BFC4C8;" d="M279.064,312.527c-3.297-0.003-6.134-2.334-6.777-5.568c-4.717-21.973-16.28-41.884-33.027-56.872
			c-2.888-2.5-3.203-6.868-0.703-9.757c2.5-2.888,6.868-3.203,9.757-0.703c19.039,17.026,32.183,39.655,37.541,64.628
			c0.361,1.799-0.009,3.668-1.028,5.195s-2.604,2.584-4.404,2.941C279.975,312.483,279.52,312.529,279.064,312.527z"/>
		<path style="fill:#BFC4C8;" d="M184.152,257.73c-2.132,0-4.144-0.982-5.456-2.662c-1.312-1.68-1.777-3.871-1.26-5.939
			c1.938-9.375,7.655-17.537,15.804-22.561c8.587-4.613,18.696-5.483,27.946-2.405c3.676,1.045,5.808,4.872,4.764,8.547
			c-1.045,3.676-4.872,5.808-8.547,4.763c-5.653-1.996-11.875-1.608-17.236,1.074c-4.873,3.187-8.236,8.223-9.311,13.946
			C190.082,255.567,187.321,257.725,184.152,257.73L184.152,257.73z"/>
	</g>
	<g>
		<polygon style="fill:#FFFFFF;" points="219.303,242.992 243.817,257.142 243.817,229.023 219.303,214.874 		"/>
		<polygon style="fill:#FFFFFF;" points="268.331,327.535 292.844,341.684 292.844,313.565 268.331,299.416 		"/>
		<polygon style="fill:#FFFFFF;" points="170.276,270.917 194.789,285.073 194.789,256.955 170.276,242.799 		"/>
	</g>
	<path style="fill:#F0C41A;" d="M264.474,386.698l-25.992-74.535v74.979c0,3.821-3.098,6.919-6.919,6.919s-6.919-3.098-6.919-6.919
		v-83.041l-25.969,44.611c-2.735,5.096-4.072,10.826-3.875,16.606v5.812c0.177,8.662,2.009,17.211,5.397,25.185l8.026,19.511
		l-1.245,2.144l46.703,26.985l1.245-2.145l7.957-10.309c3.869-5.515,5.792-12.16,5.466-18.889v-5.813
		C268.239,400.6,266.93,393.468,264.474,386.698z"/>
</g>
<g>
</g>
<g>
</g>
<g>
</g>
<g>
</g>
<g>
</g>
<g>
</g>
<g>
</g>
<g>
</g>
<g>
</g>
<g>
</g>
<g>
</g>
<g>
</g>
<g>
</g>
<g>
</g>
<g>
</g>
</svg>
