<?xml version="1.0" encoding="iso-8859-1"?>
<!-- Generator: Adobe Illustrator 19.0.0, SVG Export Plug-In . SVG Version: 6.00 Build 0)  -->
<svg version="1.1" id="Capa_1" xmlns="http://www.w3.org/2000/svg" xmlns:xlink="http://www.w3.org/1999/xlink" x="0px" y="0px"
	 viewBox="0 0 512 512" style="enable-background:new 0 0 512 512;" xml:space="preserve">
<g>
	<polygon style="fill:#B0D2EF;" points="218.258,0 188.23,17.366 112.053,67.459 112.053,363.174 369.852,512 399.949,494.634 
		399.949,104.891 	"/>
	<polygon style="fill:#91BAE2;" points="399.949,104.891 399.949,494.634 369.852,512 369.852,122.257 	"/>
	<polygon style="fill:#A0C9D3;" points="399.949,104.891 369.852,122.257 188.23,17.366 218.258,0 	"/>
	<path style="fill:#91BAE2;" d="M188.228,17.366v80.675c0,7.403-5.258,10.378-11.762,6.642l-64.415-37.224L188.228,17.366z"/>
	<g>
		<path style="fill:#E74C3C;" d="M208.814,326.858c-3.141,0.004-5.891-2.108-6.697-5.144s0.535-6.234,3.264-7.788l61.29-34.912
			c3.321-1.892,7.547-0.733,9.439,2.588c1.892,3.321,0.733,7.547-2.588,9.439l-61.291,34.912
			C211.191,326.547,210.013,326.859,208.814,326.858L208.814,326.858z"/>
		<path style="fill:#E74C3C;" d="M270.104,362.243c-2.469,0.002-4.753-1.311-5.993-3.446L202.82,253.115
			c-1.9-3.305-0.771-7.524,2.527-9.437c3.297-1.913,7.521-0.799,9.446,2.491l61.291,105.682c1.243,2.14,1.248,4.78,0.014,6.924
			C274.864,360.92,272.578,362.242,270.104,362.243L270.104,362.243z"/>
	</g>
</g>
<g>
</g>
<g>
</g>
<g>
</g>
<g>
</g>
<g>
</g>
<g>
</g>
<g>
</g>
<g>
</g>
<g>
</g>
<g>
</g>
<g>
</g>
<g>
</g>
<g>
</g>
<g>
</g>
<g>
</g>
</svg>
