<?xml version="1.0" encoding="iso-8859-1"?>
<!-- Generator: Adobe Illustrator 19.0.0, SVG Export Plug-In . SVG Version: 6.00 Build 0)  -->
<svg version="1.1" id="Capa_1" xmlns="http://www.w3.org/2000/svg" xmlns:xlink="http://www.w3.org/1999/xlink" x="0px" y="0px"
	 viewBox="0 0 512 512" style="enable-background:new 0 0 512 512;" xml:space="preserve">
<g>
	<polygon style="fill:#B0D2EF;" points="218.258,0 188.23,17.366 112.053,67.459 112.053,363.174 369.852,512 399.949,494.634 
		399.949,104.891 	"/>
	<polygon style="fill:#91BAE2;" points="399.949,104.891 399.949,494.634 369.852,512 369.852,122.257 	"/>
	<polygon style="fill:#A0C9D3;" points="399.949,104.891 369.852,122.257 188.23,17.366 218.258,0 	"/>
	<path style="fill:#91BAE2;" d="M188.228,17.366v80.675c0,7.403-5.258,10.378-11.762,6.642l-64.415-37.224L188.228,17.366z"/>
	<path style="fill:#F39D23;" d="M236.809,239.622l-14.71,27.525c-0.208,0.375-0.558,0.652-0.971,0.768
		c-0.413,0.116-0.856,0.063-1.23-0.149l-33.125-13.308c-2.348-0.943-3.307,1.795-1.648,4.706l24.151,42.392
		c0.617,0.999,0.894,2.17,0.791,3.339l-5.676,36.713c-0.392,2.537,2.16,6.077,4.292,5.953l29.355-1.702
		c1.139,0.09,2.176,0.689,2.824,1.63l29.355,35.597c2.132,2.585,4.684,1.992,4.292-0.997l-5.676-43.267
		c-0.238-0.894,0.072-1.844,0.791-2.425l24.151-14.505c1.659-0.996,0.7-4.841-1.648-6.609l-33.125-24.941
		c-1.026-0.816-1.791-1.915-2.201-3.161l-14.71-44.51C241.042,239.494,237.86,237.657,236.809,239.622z"/>
</g>
<g>
</g>
<g>
</g>
<g>
</g>
<g>
</g>
<g>
</g>
<g>
</g>
<g>
</g>
<g>
</g>
<g>
</g>
<g>
</g>
<g>
</g>
<g>
</g>
<g>
</g>
<g>
</g>
<g>
</g>
</svg>
