<?xml version="1.0" encoding="iso-8859-1"?>
<!-- Generator: Adobe Illustrator 19.0.0, SVG Export Plug-In . SVG Version: 6.00 Build 0)  -->
<svg version="1.1" id="Capa_1" xmlns="http://www.w3.org/2000/svg" xmlns:xlink="http://www.w3.org/1999/xlink" x="0px" y="0px"
	 viewBox="0 0 512 512" style="enable-background:new 0 0 512 512;" xml:space="preserve">
<g>
	<polygon style="fill:#B0D2EF;" points="218.258,0 188.23,17.366 112.053,67.459 112.053,363.174 369.852,512 399.949,494.634 
		399.949,104.891 	"/>
	<polygon style="fill:#91BAE2;" points="399.949,104.891 399.949,494.634 369.852,512 369.852,122.257 	"/>
	<polygon style="fill:#A0C9D3;" points="399.949,104.891 369.852,122.257 188.23,17.366 218.258,0 	"/>
	<path style="fill:#91BAE2;" d="M188.228,17.366v80.675c0,7.403-5.258,10.378-11.762,6.642l-64.415-37.224L188.228,17.366z"/>
	<g>
		<path style="fill:#275781;" d="M265.672,380.689c-7.932-0.156-15.738-2.016-22.888-5.453c-2.324-1.042-4.591-2.208-6.791-3.493
			c-2.27-1.311-4.541-2.743-6.767-4.331c-31.284-21.811-54.915-65.703-54.915-102.054c0-19.527,6.74-34.615,18.98-42.473
			c11.598-7.453,26.807-7.514,42.828-0.182c2.323,1.043,4.589,2.209,6.787,3.493c2.277,1.311,4.554,2.75,6.774,4.331
			c31.28,21.811,54.912,65.703,54.912,102.054c0,19.527-6.743,34.615-18.98,42.473C279.652,378.826,272.724,380.784,265.672,380.689
			L265.672,380.689z M213.256,231.108c-4.406-0.092-8.745,1.096-12.49,3.419c-8.135,5.23-12.618,16.176-12.618,30.831
			c0,31.702,21.544,71.568,49.047,90.743c1.912,1.358,3.811,2.561,5.71,3.655c1.799,1.049,3.652,2.003,5.551,2.858
			c11.676,5.338,22.186,5.595,29.679,0.797c8.139-5.23,12.618-16.176,12.618-30.831c0-31.709-21.544-71.568-49.047-90.743
			c-1.916-1.365-3.814-2.561-5.713-3.655c-1.794-1.051-3.644-2.005-5.541-2.858C225.086,232.71,219.223,231.272,213.256,231.108
			L213.256,231.108z"/>
		<path style="fill:#275781;" d="M233.246,368.696c-2.596,0.003-4.975-1.448-6.162-3.757
			c-12.423-24.889-18.948-52.305-19.068-80.122c0-28.378,7.625-50.703,20.926-61.243c2.993-2.373,7.343-1.871,9.716,1.122
			c2.373,2.993,1.871,7.343-1.122,9.716c-9.818,7.791-15.682,26.635-15.682,50.405c0.188,25.609,6.185,50.842,17.54,73.797
			c1.101,2.144,1.006,4.706-0.249,6.764C237.891,367.436,235.656,368.693,233.246,368.696L233.246,368.696z"/>
		<path style="fill:#275781;" d="M245.665,375.865c-2.944,0.002-5.566-1.86-6.536-4.64s-0.072-5.869,2.235-7.697
			c9.818-7.791,15.682-26.635,15.682-50.405c-0.188-25.609-6.185-50.842-17.541-73.797c-1.746-3.4-0.406-7.571,2.993-9.318
			c3.4-1.746,7.571-0.406,9.318,2.993c12.423,24.889,18.948,52.305,19.068,80.122c0,28.378-7.625,50.703-20.926,61.243
			C248.74,375.339,247.225,375.868,245.665,375.865z"/>
		<path style="fill:#275781;" d="M292.287,308.236h-0.068c-1.214,0.001-2.408-0.318-3.459-0.926l-105.581-60.953l6.919-11.987
			l105.581,60.953l-3.426,5.932L292.287,308.236z"/>
		
			<rect x="232.528" y="231.733" transform="matrix(-0.5 0.866 -0.866 -0.5 618.0767 241.0614)" style="fill:#275781;" width="13.838" height="134.455"/>
		
			<rect x="232.474" y="266.224" transform="matrix(-0.5003 0.8659 -0.8659 -0.5003 642.3588 283.4155)" style="fill:#275781;" width="13.838" height="121.703"/>
	</g>
</g>
<g>
</g>
<g>
</g>
<g>
</g>
<g>
</g>
<g>
</g>
<g>
</g>
<g>
</g>
<g>
</g>
<g>
</g>
<g>
</g>
<g>
</g>
<g>
</g>
<g>
</g>
<g>
</g>
<g>
</g>
</svg>
