<?xml version="1.0" encoding="iso-8859-1"?>
<!-- Generator: Adobe Illustrator 19.0.0, SVG Export Plug-In . SVG Version: 6.00 Build 0)  -->
<svg version="1.1" id="Capa_1" xmlns="http://www.w3.org/2000/svg" xmlns:xlink="http://www.w3.org/1999/xlink" x="0px" y="0px"
	 viewBox="0 0 512 512" style="enable-background:new 0 0 512 512;" xml:space="preserve">
<g>
	<polygon style="fill:#B0D2EF;" points="218.258,0 188.23,17.366 112.053,67.459 112.053,363.174 369.852,512 399.949,494.634 
		399.949,104.891 	"/>
	<polygon style="fill:#91BAE2;" points="399.949,104.891 399.949,494.634 369.852,512 369.852,122.257 	"/>
	<polygon style="fill:#A0C9D3;" points="399.949,104.891 369.852,122.257 188.23,17.366 218.258,0 	"/>
	<path style="fill:#91BAE2;" d="M188.228,17.366v80.675c0,7.403-5.258,10.378-11.762,6.642l-64.415-37.224L188.228,17.366z"/>
	<path style="fill:#FFFFFF;" d="M270.881,277.865h-13.838v-51.906c-0.953-14.721-8.745-28.146-21.054-36.277
		c-2.971-2.302-6.905-2.943-10.453-1.703c-2.788,2.39-4.175,6.03-3.682,9.669v51.912h-13.838v-51.912
		c-0.645-8.605,3.41-16.887,10.601-21.655c7.808-3.871,17.099-3.219,24.291,1.703c16.586,10.612,27.01,28.596,27.973,48.263V277.865
		z"/>
	<path style="fill:#F0C41A;" d="M178.165,284.675c0,38.811,27.45,86.144,61.286,105.68c33.836,19.535,61.286,3.898,61.286-34.912
		c-1.171-26.1-10.161-51.246-25.805-72.171c-3.905-5.489-8.218-10.675-12.902-15.515c-6.651-7.021-14.251-13.077-22.579-17.994
		c-6.901-4.196-14.583-6.945-22.579-8.078c-4.302-0.589-8.676-0.38-12.902,0.616C188.358,245.978,178.165,261.033,178.165,284.675z"
		/>
	<path style="fill:#E57D25;" d="M214.937,290.708c0.618,11.213,4.927,21.907,12.257,30.414v23.878
		c0.591,8.412,5.14,16.044,12.257,20.567c6.741,3.892,12.257,1.006,12.257-6.413v-23.878c7.354-0.408,12.257-6.278,12.257-16.261
		c-1.148-16.835-10.253-32.114-24.514-41.133C225.907,270.061,214.937,275.801,214.937,290.708z"/>
</g>
<g>
</g>
<g>
</g>
<g>
</g>
<g>
</g>
<g>
</g>
<g>
</g>
<g>
</g>
<g>
</g>
<g>
</g>
<g>
</g>
<g>
</g>
<g>
</g>
<g>
</g>
<g>
</g>
<g>
</g>
</svg>
