<?xml version="1.0" encoding="iso-8859-1"?>
<!-- Generator: Adobe Illustrator 19.0.0, SVG Export Plug-In . SVG Version: 6.00 Build 0)  -->
<svg version="1.1" id="Capa_1" xmlns="http://www.w3.org/2000/svg" xmlns:xlink="http://www.w3.org/1999/xlink" x="0px" y="0px"
	 viewBox="0 0 512 512" style="enable-background:new 0 0 512 512;" xml:space="preserve">
<g>
	<polygon style="fill:#B0D2EF;" points="218.258,0 188.23,17.366 112.053,67.459 112.053,363.174 369.852,512 399.949,494.634 
		399.949,104.891 	"/>
	<polygon style="fill:#91BAE2;" points="399.949,104.891 399.949,494.634 369.852,512 369.852,122.257 	"/>
	<polygon style="fill:#A0C9D3;" points="399.949,104.891 369.852,122.257 188.23,17.366 218.258,0 	"/>
	<path style="fill:#91BAE2;" d="M188.228,17.366v80.675c0,7.403-5.258,10.378-11.762,6.642l-64.415-37.224L188.228,17.366z"/>
	<g>
		<path style="fill:#30A8CD;" d="M257.837,302.645v-35.326c-0.211-13.963-7.033-26.998-18.386-35.13l0,0
			c-10.154-5.863-18.386,0.36-18.386,13.899v35.326c0.211,13.963,7.033,26.998,18.386,35.129l0,0
			C249.605,322.406,257.837,316.184,257.837,302.645z"/>
		<path style="fill:#30A8CD;" d="M239.449,379.703c-1.835,0.001-3.596-0.728-4.894-2.025c-1.298-1.298-2.026-3.058-2.025-4.894
			v-28.122c0-3.821,3.098-6.919,6.919-6.919s6.919,3.098,6.919,6.919v28.122c0.001,1.835-0.728,3.596-2.025,4.894
			C243.045,378.975,241.284,379.704,239.449,379.703L239.449,379.703z"/>
		<path style="fill:#30A8CD;" d="M257.827,390.318c-1.212,0.001-2.403-0.318-3.453-0.926l-36.77-21.23
			c-2.143-1.235-3.463-3.52-3.464-5.993s1.319-4.759,3.46-5.995c2.142-1.236,4.781-1.236,6.922,0.002l36.77,21.23
			c2.714,1.566,4.038,4.761,3.225,7.787C263.706,388.219,260.961,390.322,257.827,390.318L257.827,390.318z"/>
		<path style="fill:#30A8CD;" d="M258.686,357.487c-8.033-0.253-15.858-2.609-22.696-6.831
			c-27.485-17.58-44.76-47.378-46.358-79.966v-10.068l-8.797-5.074c-2.143-1.235-3.463-3.52-3.464-5.993s1.319-4.759,3.46-5.995
			s4.781-1.236,6.922,0.002l12.257,7.074c2.141,1.236,3.46,3.521,3.459,5.993v14.061c1.784,27.583,16.379,52.74,39.439,67.98
			c9.264,5.351,17.601,6.446,23.507,3.014c5.818-3.358,9.02-10.98,9.02-21.459v-14.061c0-2.472,1.318-4.757,3.459-5.993
			c2.141-1.236,4.779-1.236,6.919,0l12.257,7.081c3.308,1.912,4.441,6.142,2.531,9.451c-1.91,3.309-6.14,4.444-9.45,2.536
			l-1.878-1.088v2.074c0,15.635-5.662,27.513-15.939,33.446C268.877,356.22,263.821,357.538,258.686,357.487L258.686,357.487z"/>
	</g>
</g>
<g>
</g>
<g>
</g>
<g>
</g>
<g>
</g>
<g>
</g>
<g>
</g>
<g>
</g>
<g>
</g>
<g>
</g>
<g>
</g>
<g>
</g>
<g>
</g>
<g>
</g>
<g>
</g>
<g>
</g>
</svg>
