<?xml version="1.0" encoding="iso-8859-1"?>
<!-- Generator: Adobe Illustrator 19.0.0, SVG Export Plug-In . SVG Version: 6.00 Build 0)  -->
<svg version="1.1" id="Capa_1" xmlns="http://www.w3.org/2000/svg" xmlns:xlink="http://www.w3.org/1999/xlink" x="0px" y="0px"
	 viewBox="0 0 512 512" style="enable-background:new 0 0 512 512;" xml:space="preserve">
<g>
	<polygon style="fill:#B0D2EF;" points="218.258,0 188.23,17.366 112.053,67.459 112.053,363.174 369.852,512 399.949,494.634 
		399.949,104.891 	"/>
	<polygon style="fill:#91BAE2;" points="399.949,104.891 399.949,494.634 369.852,512 369.852,122.257 	"/>
	<polygon style="fill:#A0C9D3;" points="399.949,104.891 369.852,122.257 188.23,17.366 218.258,0 	"/>
	<path style="fill:#91BAE2;" d="M188.228,17.366v80.675c0,7.403-5.258,10.378-11.762,6.642l-64.415-37.224L188.228,17.366z"/>
	<g>
		<path style="fill:#275781;" d="M193.483,310.987c-3.57-0.004-6.551-2.725-6.88-6.28c-0.329-3.555,2.101-6.777,5.61-7.436
			l25.872-4.851l-30.142-40.453c-1.477-1.982-1.785-4.601-0.807-6.872c0.978-2.27,3.092-3.847,5.547-4.135
			c2.455-0.288,4.877,0.755,6.355,2.737l36.77,49.345c1.428,1.913,1.769,4.428,0.9,6.652c-0.869,2.224-2.823,3.842-5.17,4.281
			l-36.77,6.892C194.343,310.945,193.913,310.986,193.483,310.987L193.483,310.987z"/>
		<path style="fill:#275781;" d="M285.408,364.061c-1.212,0.001-2.403-0.318-3.453-0.926l-36.77-21.23
			c-3.31-1.911-4.444-6.143-2.534-9.453s6.143-4.444,9.453-2.534l36.77,21.23c2.714,1.566,4.038,4.761,3.225,7.787
			C291.287,361.963,288.542,364.065,285.408,364.061L285.408,364.061z"/>
	</g>
</g>
<g>
</g>
<g>
</g>
<g>
</g>
<g>
</g>
<g>
</g>
<g>
</g>
<g>
</g>
<g>
</g>
<g>
</g>
<g>
</g>
<g>
</g>
<g>
</g>
<g>
</g>
<g>
</g>
<g>
</g>
</svg>
