<?xml version="1.0" encoding="iso-8859-1"?>
<!-- Generator: Adobe Illustrator 19.0.0, SVG Export Plug-In . SVG Version: 6.00 Build 0)  -->
<svg version="1.1" id="Capa_1" xmlns="http://www.w3.org/2000/svg" xmlns:xlink="http://www.w3.org/1999/xlink" x="0px" y="0px"
	 viewBox="0 0 512 512" style="enable-background:new 0 0 512 512;" xml:space="preserve">
<g>
	<polygon style="fill:#B0D2EF;" points="218.258,0 188.23,17.366 112.053,67.459 112.053,363.174 369.852,512 399.949,494.634 
		399.949,104.891 	"/>
	<polygon style="fill:#91BAE2;" points="399.949,104.891 399.949,494.634 369.852,512 369.852,122.257 	"/>
	<polygon style="fill:#A0C9D3;" points="399.949,104.891 369.852,122.257 188.23,17.366 218.258,0 	"/>
	<path style="fill:#91BAE2;" d="M188.228,17.366v80.675c0,7.403-5.258,10.378-11.762,6.642l-64.415-37.224L188.228,17.366z"/>
	<g>
		<path style="fill:#2CAA60;" d="M202.685,309.263c-2.268,0.004-4.394-1.104-5.689-2.966l-24.514-35.243
			c-1.276-1.837-1.585-4.176-0.832-6.281c0.754-2.105,2.478-3.717,4.629-4.327l24.514-6.933c2.378-0.673,4.934-0.027,6.706,1.695
			c1.772,1.722,2.491,4.259,1.885,6.655s-2.443,4.287-4.821,4.96l-15.176,4.291l18.973,27.278c1.472,2.114,1.648,4.871,0.456,7.155
			C207.624,307.831,205.262,309.263,202.685,309.263L202.685,309.263z"/>
		<path style="fill:#2CAA60;" d="M276.219,351.723c-3.451-0.004-6.372-2.551-6.845-5.97c-0.473-3.419,1.646-6.663,4.966-7.604
			l15.176-4.291l-18.973-27.277c-2.183-3.138-1.409-7.452,1.73-9.635c3.138-2.183,7.452-1.409,9.635,1.73l24.514,35.243
			c1.276,1.837,1.586,4.176,0.832,6.281c-0.754,2.105-2.478,3.717-4.629,4.327l-24.514,6.933
			C277.496,351.637,276.859,351.725,276.219,351.723z"/>
		<path style="fill:#2CAA60;" d="M221.057,340.966c-2.475-0.003-4.76-1.327-5.992-3.473c-1.233-2.146-1.225-4.787,0.019-6.926
			l36.77-63.128c1.243-2.136,3.532-3.447,6.003-3.439s4.751,1.335,5.98,3.48c1.229,2.145,1.22,4.782-0.024,6.918l-36.77,63.128
			C225.805,339.66,223.523,340.971,221.057,340.966z"/>
	</g>
</g>
<g>
</g>
<g>
</g>
<g>
</g>
<g>
</g>
<g>
</g>
<g>
</g>
<g>
</g>
<g>
</g>
<g>
</g>
<g>
</g>
<g>
</g>
<g>
</g>
<g>
</g>
<g>
</g>
<g>
</g>
</svg>
