<?xml version="1.0" encoding="iso-8859-1"?>
<!-- Generator: Adobe Illustrator 19.0.0, SVG Export Plug-In . SVG Version: 6.00 Build 0)  -->
<svg version="1.1" id="Capa_1" xmlns="http://www.w3.org/2000/svg" xmlns:xlink="http://www.w3.org/1999/xlink" x="0px" y="0px"
	 viewBox="0 0 512 512" style="enable-background:new 0 0 512 512;" xml:space="preserve">
<g>
	<polygon style="fill:#B0D2EF;" points="218.258,0 188.23,17.366 112.053,67.459 112.053,363.174 369.852,512 399.949,494.634 
		399.949,104.891 	"/>
	<polygon style="fill:#91BAE2;" points="399.949,104.891 399.949,494.634 369.852,512 369.852,122.257 	"/>
	<polygon style="fill:#A0C9D3;" points="399.949,104.891 369.852,122.257 188.23,17.366 218.258,0 	"/>
	<path style="fill:#91BAE2;" d="M188.228,17.366v80.675c0,7.403-5.258,10.378-11.762,6.642l-64.415-37.224L188.228,17.366z"/>
	
		<ellipse transform="matrix(-0.494 -0.8694 0.8694 -0.494 100.4707 545.4359)" style="fill:#F0C41A;" cx="208.94" cy="243.484" rx="21.677" ry="12.606"/>
	<g>
		<path style="fill:#2CAA60;" d="M229.983,330.311c-2.685,0.003-5.13-1.548-6.27-3.98l-12.588-26.783l-46.858,12.912
			c-3.683,1.015-7.492-1.148-8.507-4.831c-1.015-3.683,1.148-7.492,4.831-8.507l52.48-14.466c3.249-0.898,6.671,0.678,8.101,3.73
			l15.068,32.068c1.005,2.142,0.846,4.649-0.422,6.647C234.55,329.098,232.349,330.309,229.983,330.311L229.983,330.311z"/>
		<path style="fill:#2CAA60;" d="M316.233,408.642c-1.214,0-2.407-0.319-3.459-0.926l-117.081-67.595
			c-2.143-1.235-3.463-3.52-3.464-5.993c-0.001-2.473,1.319-4.759,3.46-5.995c2.142-1.236,4.781-1.236,6.922,0.002l106.777,61.642
			l0.155-25.135l-39.845-66.777l-44.486,14.358c-2.351,0.76-4.929,0.209-6.764-1.447c-1.834-1.656-2.645-4.165-2.128-6.581
			c0.517-2.416,2.284-4.373,4.635-5.134l49.736-16.054c3.068-1.002,6.42,0.259,8.067,3.034l43.656,73.169
			c0.648,1.084,0.987,2.325,0.98,3.588l-0.243,38.966C323.124,405.567,320.036,408.637,316.233,408.642L316.233,408.642z"/>
	</g>
</g>
<g>
</g>
<g>
</g>
<g>
</g>
<g>
</g>
<g>
</g>
<g>
</g>
<g>
</g>
<g>
</g>
<g>
</g>
<g>
</g>
<g>
</g>
<g>
</g>
<g>
</g>
<g>
</g>
<g>
</g>
</svg>
