<?xml version="1.0" encoding="iso-8859-1"?>
<!-- Generator: Adobe Illustrator 19.0.0, SVG Export Plug-In . SVG Version: 6.00 Build 0)  -->
<svg version="1.1" id="Capa_1" xmlns="http://www.w3.org/2000/svg" xmlns:xlink="http://www.w3.org/1999/xlink" x="0px" y="0px"
	 viewBox="0 0 512 512" style="enable-background:new 0 0 512 512;" xml:space="preserve">
<g>
	<polygon style="fill:#E57D25;" points="218.258,0 188.23,17.366 112.053,67.459 112.053,363.174 369.852,512 399.949,494.634 
		399.949,104.891 	"/>
	<polygon style="fill:#D35525;" points="399.949,104.891 399.949,494.634 369.852,512 369.852,122.257 	"/>
	<polygon style="fill:#F8C176;" points="399.949,104.891 369.852,122.257 188.23,17.366 218.258,0 	"/>
	<path style="fill:#D35525;" d="M188.228,17.366v80.675c0,7.403-5.258,10.378-11.762,6.642l-64.415-37.224L188.228,17.366z"/>
	<g>
		<path style="fill:#F8C176;" d="M202.652,326.818c-2.162,0.003-4.201-1.006-5.512-2.726s-1.741-3.954-1.164-6.038l18.46-66.669
			c0.57-2.064,2.064-3.748,4.046-4.56c1.982-0.812,4.228-0.66,6.082,0.412l12.257,7.074c3.308,1.912,4.441,6.142,2.531,9.451
			c-1.91,3.309-6.14,4.444-9.45,2.536l-4.513-2.608l-16.075,58.055C208.483,324.738,205.759,326.813,202.652,326.818
			L202.652,326.818z"/>
		<path style="fill:#F8C176;" d="M233.354,267.223c-1.212,0.001-2.403-0.318-3.453-0.926l-12.257-7.074
			c-3.308-1.912-4.441-6.142-2.531-9.451c1.91-3.309,6.14-4.444,9.45-2.536l12.257,7.074c2.714,1.566,4.038,4.761,3.225,7.787
			S236.488,267.227,233.354,267.223L233.354,267.223z"/>
		<path style="fill:#F8C176;" d="M251.814,355.21c-3.271-0.004-6.093-2.298-6.764-5.5l-11.743-55.973
			c-0.764-3.73,1.631-7.376,5.358-8.157c3.727-0.781,7.384,1.597,8.182,5.32l11.743,55.973c0.425,2.04-0.091,4.164-1.405,5.781
			C255.871,354.27,253.898,355.209,251.814,355.21L251.814,355.21z"/>
		
			<rect x="220.288" y="284.756" transform="matrix(-0.5 0.866 -0.866 -0.5 605.8029 262.2185)" style="fill:#F8C176;" width="13.838" height="42.461"/>
		<path style="fill:#F8C176;" d="M276.26,369.318c-1.835,0.001-3.596-0.728-4.894-2.025c-1.298-1.298-2.026-3.058-2.025-4.894
			v-49.209c0-3.821,3.098-6.919,6.919-6.919s6.919,3.098,6.919,6.919v49.209c0.001,1.835-0.728,3.596-2.025,4.894
			C279.855,368.59,278.095,369.319,276.26,369.318z"/>
		<path style="fill:#F8C176;" d="M276.233,291.98c-0.9,0.012-1.793-0.153-2.628-0.487c-1.71-0.692-3.07-2.043-3.773-3.749
			c-0.703-1.706-0.69-3.623,0.037-5.319c0.339-0.841,0.86-1.595,1.527-2.21c0.611-0.668,1.367-1.188,2.209-1.52
			c1.709-0.696,3.622-0.696,5.331,0c0.842,0.332,1.598,0.852,2.209,1.52c0.648,0.63,1.166,1.381,1.527,2.21
			c0.881,2.141,0.633,4.581-0.661,6.501S278.548,291.993,276.233,291.98L276.233,291.98z"/>
	</g>
</g>
<g>
</g>
<g>
</g>
<g>
</g>
<g>
</g>
<g>
</g>
<g>
</g>
<g>
</g>
<g>
</g>
<g>
</g>
<g>
</g>
<g>
</g>
<g>
</g>
<g>
</g>
<g>
</g>
<g>
</g>
</svg>
