<?xml version="1.0" encoding="iso-8859-1"?>
<!-- Generator: Adobe Illustrator 19.0.0, SVG Export Plug-In . SVG Version: 6.00 Build 0)  -->
<svg version="1.1" id="Capa_1" xmlns="http://www.w3.org/2000/svg" xmlns:xlink="http://www.w3.org/1999/xlink" x="0px" y="0px"
	 viewBox="0 0 511.993 511.993" style="enable-background:new 0 0 511.993 511.993;" xml:space="preserve">
<g>
	<path style="fill:#B0D2EF;" d="M443.405,200.294l-8.372-4.843l-4.359-2.56v-34.11c-0.157-9.69-4.908-18.73-12.8-24.355
		L290.427,60.739c-2.661-1.917-6.22-2.027-8.995-0.277v0.069l-29.544,17.021l-0.208,0.138c-3.04,2.072-4.752,5.601-4.497,9.271
		L124.65,16.251L99.119,1.513c-2.545-1.826-5.916-2.015-8.649-0.484l-0.277,0.138l-29.475,17.09
		c-3.514,2.273-5.4,6.369-4.843,10.517v258.56c0.148,9.676,4.871,18.71,12.731,24.355l344.285,198.781
		c2.558,1.898,6.017,2.035,8.718,0.346l0.069,0.069l29.751-17.228c3.38-2.344,5.19-6.363,4.705-10.448V224.718
		C456.021,215.014,451.294,205.945,443.405,200.294z"/>
	<path style="fill:#4382C4;" d="M400.161,176.354v34.249l-153.046-88.355V88c-0.014-0.324,0.009-0.649,0.069-0.969v-0.069
		c-0.255-3.67,1.457-7.199,4.497-9.271l0.208-0.138c2.636-1.15,5.681-0.835,8.026,0.83L387.431,152
		C395.267,157.665,399.983,166.686,400.161,176.354z"/>
	<path style="fill:#275781;" d="M430.674,158.78v34.11l-30.512,17.712v-34.249c-0.179-9.668-4.894-18.689-12.731-24.355
		L259.915,78.383c-2.345-1.665-5.39-1.98-8.026-0.83l29.544-17.021v-0.069c2.774-1.75,6.333-1.641,8.995,0.277l127.446,73.686
		C425.766,140.051,430.517,149.09,430.674,158.78L430.674,158.78z"/>
	<g>
		<path style="fill:#91BAE2;" d="M456.135,224.718v258.491c0.485,4.085-1.325,8.104-4.705,10.448l-29.751,17.228l-0.069-0.069
			c2.97-2.408,4.509-6.163,4.082-9.963v-258.56c-0.157-9.69-4.908-18.73-12.8-24.355l-12.731-7.334l30.512-17.712l4.359,2.56
			l8.372,4.843C451.293,205.945,456.021,215.014,456.135,224.718L456.135,224.718z"/>
		<path style="fill:#91BAE2;" d="M247.184,86.962v0.069c-0.06,0.319-0.083,0.644-0.069,0.969v34.249L94.138,33.894L68.607,19.157
			c-2.308-1.614-5.276-1.953-7.888-0.899l29.475-17.09l0.277-0.138c2.733-1.53,6.104-1.341,8.649,0.484l25.531,14.737
			L247.184,86.962z"/>
	</g>
	
		<ellipse transform="matrix(-0.505 -0.8631 0.8631 -0.505 121.0991 609.1041)" style="fill:#FFFFFF;" cx="235.211" cy="269.827" rx="128.443" ry="74.15"/>
	<g>
		<path style="fill:#815434;" d="M276.269,393.809c-11.85-0.244-23.509-3.029-34.189-8.169c-3.526-1.578-6.963-3.346-10.297-5.297
			c-3.73-2.149-7.088-4.304-10.284-6.588c-48.034-33.48-84.304-100.797-84.304-156.534c0-29.189,9.912-51.628,27.905-63.182
			c17.007-10.912,39.466-10.919,63.297-0.02c3.526,1.578,6.964,3.346,10.297,5.297c3.655,2.108,7.122,4.324,10.284,6.588
			c48.034,33.48,84.304,100.797,84.304,156.534c0,29.189-9.912,51.628-27.905,63.182
			C296.673,391.112,286.56,393.957,276.269,393.809L276.269,393.809z M194.235,159.708c-7.645-0.15-15.168,1.925-21.655,5.973
			c-13.892,8.925-21.547,27.23-21.547,51.54c0,51.622,33.723,114.054,78.446,145.23c2.892,2.068,5.885,3.986,9.216,5.905
			c2.932,1.716,5.954,3.272,9.054,4.662c19.486,8.919,37.264,9.243,50.148,0.959c13.892-8.925,21.547-27.23,21.547-51.54
			c0-51.622-33.723-114.054-78.446-145.23c-2.865-2.047-5.946-4.014-9.216-5.905c-2.934-1.712-5.956-3.268-9.054-4.662
			C213.834,162.322,204.119,159.959,194.235,159.708z"/>
		<path style="fill:#815434;" d="M235.235,186.647c-1.835,0.001-3.596-0.728-4.894-2.025c-1.298-1.298-2.026-3.058-2.025-4.894
			v-14.419c0-3.821,3.098-6.919,6.919-6.919s6.919,3.098,6.919,6.919v14.419c0.001,1.835-0.728,3.596-2.025,4.894
			C238.831,185.919,237.07,186.648,235.235,186.647z"/>
		<path style="fill:#815434;" d="M326.357,329.356c-1.212,0.001-2.403-0.318-3.453-0.926l-12.568-7.257
			c-2.143-1.235-3.463-3.52-3.464-5.993s1.319-4.759,3.46-5.995c2.142-1.236,4.781-1.236,6.922,0.002l12.568,7.257
			c2.715,1.566,4.038,4.761,3.225,7.787C332.236,327.258,329.491,329.36,326.357,329.356L326.357,329.356z"/>
		<path style="fill:#815434;" d="M235.235,381.268c-1.835,0.001-3.596-0.728-4.894-2.025c-1.298-1.298-2.026-3.058-2.025-4.894
			V359.93c0-3.821,3.098-6.919,6.919-6.919s6.919,3.098,6.919,6.919v14.419c0.001,1.835-0.728,3.596-2.025,4.894
			C238.831,380.541,237.07,381.269,235.235,381.268z"/>
		<path style="fill:#815434;" d="M156.674,231.397c-1.212,0.001-2.403-0.318-3.453-0.926l-12.568-7.257
			c-3.31-1.911-4.444-6.143-2.534-9.453s6.143-4.444,9.453-2.534l12.568,7.257c2.714,1.566,4.038,4.761,3.225,7.787
			S159.808,231.401,156.674,231.397L156.674,231.397z"/>
		<path style="fill:#815434;" d="M246.945,310.207c-1.217-0.002-2.432-0.097-3.635-0.284c-14.085-3.625-25.922-13.147-32.48-26.128
			l0,0c-8.022-12.099-10.369-27.096-6.426-41.068c1.682-4.482,4.855-8.25,8.986-10.669c4.195-2.317,9.054-3.137,13.777-2.324
			c14.084,3.623,25.919,13.147,32.473,26.128c8.028,12.097,10.377,27.095,6.432,41.068c-1.683,4.486-4.862,8.254-9,10.669
			C253.983,309.34,250.491,310.239,246.945,310.207z M222.803,276.849c4.526,9.311,12.706,16.333,22.595,19.399
			c1.637,0.338,3.341,0.101,4.824-0.669c1.404-0.858,2.462-2.183,2.986-3.743c2.294-10.025,0.284-20.552-5.541-29.027
			c-4.523-9.312-12.7-16.335-22.588-19.399c-1.642-0.326-3.346-0.091-4.838,0.669c-1.397,0.863-2.448,2.187-2.973,3.743
			C214.976,257.846,216.982,268.372,222.803,276.849L222.803,276.849z"/>
		<path style="fill:#815434;" d="M215.715,243.079c-2.469,0.002-4.753-1.311-5.993-3.446l-26.034-44.899
			c-1.918-3.306-0.793-7.542,2.514-9.46c3.306-1.918,7.542-0.793,9.46,2.514l26.034,44.899c1.243,2.14,1.248,4.78,0.014,6.925
			C220.475,241.756,218.19,243.079,215.715,243.079L215.715,243.079z"/>
		<path style="fill:#815434;" d="M280.81,355.316c-2.469,0.002-4.753-1.311-5.993-3.446l-26.041-44.899
			c-1.91-3.305-0.782-7.533,2.52-9.449c3.302-1.916,7.531-0.796,9.453,2.503l26.041,44.899c1.242,2.14,1.248,4.78,0.014,6.924
			C285.569,353.993,283.284,355.315,280.81,355.316L280.81,355.316z"/>
	</g>
</g>
<g>
</g>
<g>
</g>
<g>
</g>
<g>
</g>
<g>
</g>
<g>
</g>
<g>
</g>
<g>
</g>
<g>
</g>
<g>
</g>
<g>
</g>
<g>
</g>
<g>
</g>
<g>
</g>
<g>
</g>
</svg>
