<?xml version="1.0" encoding="iso-8859-1"?>
<!-- Generator: Adobe Illustrator 19.0.0, SVG Export Plug-In . SVG Version: 6.00 Build 0)  -->
<svg version="1.1" id="Capa_1" xmlns="http://www.w3.org/2000/svg" xmlns:xlink="http://www.w3.org/1999/xlink" x="0px" y="0px"
	 viewBox="0 0 509.205 509.205" style="enable-background:new 0 0 509.205 509.205;" xml:space="preserve">
<g>
	<path style="fill:#B0D2EF;" d="M439.512,197.623l-8.26-4.779l-4.301-2.526v-33.655c-0.155-9.561-4.842-18.48-12.629-24.03
		L288.574,59.929c-2.626-1.892-6.137-2-8.875-0.273v0.068l-29.15,16.794l-0.205,0.137c-2.999,2.044-4.689,5.527-4.437,9.148
		l-120.9-69.769L99.817,1.493c-2.511-1.801-5.837-1.988-8.533-0.478l-0.273,0.137L61.929,18.014
		c-3.467,2.243-5.328,6.284-4.779,10.377v255.113c0.146,9.547,4.806,18.46,12.561,24.03l339.695,196.13
		c2.524,1.872,5.937,2.008,8.602,0.341l0.068,0.068l29.355-16.998c3.335-2.313,5.121-6.278,4.642-10.308V221.721
		C451.96,212.147,447.296,203.199,439.512,197.623z"/>
	<path style="fill:#4382C4;" d="M396.845,174.003v33.792l-151.006-87.177V86.827c-0.014-0.32,0.009-0.641,0.068-0.956v-0.068
		c-0.251-3.621,1.438-7.103,4.437-9.148l0.205-0.137c2.601-1.135,5.606-0.824,7.919,0.819l125.815,72.636
		C392.016,155.563,396.669,164.464,396.845,174.003z"/>
	<path style="fill:#275781;" d="M426.951,156.663v33.655l-30.106,17.476v-33.792c-0.176-9.539-4.829-18.44-12.561-24.03
		L258.468,77.337c-2.313-1.643-5.318-1.954-7.919-0.819l29.15-16.794v-0.068c2.737-1.727,6.249-1.619,8.875,0.273l125.747,72.704
		C422.108,138.183,426.796,147.102,426.951,156.663L426.951,156.663z"/>
	<g>
		<path style="fill:#91BAE2;" d="M452.073,221.721v255.044c0.479,4.03-1.307,7.995-4.642,10.308l-29.355,16.998l-0.068-0.068
			c2.93-2.376,4.449-6.081,4.028-9.83V239.061c-0.155-9.561-4.842-18.48-12.629-24.03l-12.561-7.236l30.106-17.476l4.301,2.526
			l8.26,4.779C447.295,203.199,451.96,212.147,452.073,221.721L452.073,221.721z"/>
		<path style="fill:#91BAE2;" d="M245.908,85.803v0.068c-0.059,0.315-0.082,0.636-0.068,0.956v33.792l-23.757-13.722l-13.653-7.919
			L94.902,33.442l-25.19-14.541c-2.277-1.593-5.205-1.927-7.782-0.887L91.011,1.152l0.273-0.137c2.696-1.51,6.023-1.324,8.533,0.478
			l25.19,14.541l96.051,55.433L245.908,85.803z"/>
	</g>
	<g>
		<path style="fill:#4382C4;" d="M222.082,106.897v283.034c0,3.77-3.056,6.827-6.827,6.827c-3.77,0-6.827-3.056-6.827-6.827V98.978
			L222.082,106.897z"/>
		<path style="fill:#4382C4;" d="M228.111,199.638c-1.196,0.001-2.371-0.314-3.406-0.913l-12.837-7.413
			c-3.264-1.886-4.381-6.06-2.497-9.325s6.058-4.385,9.324-2.502l12.837,7.413c2.676,1.546,3.98,4.697,3.178,7.682
			C233.908,197.565,231.202,199.64,228.111,199.638L228.111,199.638z"/>
		<path style="fill:#4382C4;" d="M215.275,206.951c-1.196,0-2.371-0.315-3.407-0.913l-12.84-7.413
			c-3.264-1.886-4.381-6.06-2.497-9.325c1.884-3.265,6.058-4.385,9.324-2.502l12.84,7.413c2.678,1.545,3.984,4.697,3.182,7.683
			C221.075,204.881,218.366,206.955,215.275,206.951L215.275,206.951z"/>
		<path style="fill:#4382C4;" d="M215.275,236.405c-1.196,0-2.371-0.315-3.407-0.913l-12.84-7.413
			c-2.114-1.219-3.417-3.473-3.417-5.913s1.301-4.695,3.414-5.915s4.717-1.219,6.83,0.002l12.84,7.413
			c2.678,1.545,3.984,4.697,3.182,7.683C221.075,234.334,218.367,236.409,215.275,236.405L215.275,236.405z"/>
		<path style="fill:#4382C4;" d="M215.275,265.858c-1.196,0-2.371-0.315-3.407-0.913l-12.84-7.413
			c-3.266-1.885-4.385-6.061-2.5-9.327c1.885-3.266,6.061-4.385,9.327-2.5l12.84,7.413c2.678,1.545,3.984,4.697,3.182,7.683
			C221.075,263.788,218.366,265.862,215.275,265.858L215.275,265.858z"/>
		<path style="fill:#4382C4;" d="M215.275,295.305c-1.195,0.001-2.369-0.315-3.403-0.913l-12.84-7.407
			c-2.124-1.212-3.438-3.469-3.443-5.915c-0.005-2.446,1.299-4.708,3.419-5.929c2.119-1.221,4.73-1.215,6.844,0.017l12.84,7.407
			c2.679,1.544,3.986,4.696,3.185,7.682C221.075,293.233,218.366,295.308,215.275,295.305L215.275,295.305z"/>
		<path style="fill:#4382C4;" d="M215.275,324.758c-1.195,0.001-2.369-0.315-3.403-0.913l-12.84-7.407
			c-2.124-1.212-3.438-3.469-3.443-5.915c-0.005-2.446,1.299-4.708,3.419-5.929c2.119-1.221,4.73-1.215,6.844,0.017l12.84,7.407
			c2.679,1.544,3.986,4.696,3.185,7.682C221.075,322.687,218.366,324.762,215.275,324.758L215.275,324.758z"/>
		<path style="fill:#4382C4;" d="M215.275,354.211c-1.196,0-2.371-0.315-3.407-0.913l-12.84-7.413
			c-2.114-1.219-3.417-3.473-3.417-5.913s1.301-4.695,3.414-5.915c2.113-1.22,4.717-1.219,6.83,0.002l12.84,7.413
			c2.678,1.545,3.984,4.697,3.182,7.683C221.075,352.141,218.366,354.216,215.275,354.211L215.275,354.211z"/>
		<path style="fill:#4382C4;" d="M228.111,229.091c-1.196,0.001-2.371-0.314-3.406-0.913l-12.837-7.413
			c-3.264-1.886-4.381-6.06-2.497-9.325c1.884-3.265,6.058-4.385,9.324-2.502l12.837,7.413c2.676,1.546,3.98,4.697,3.178,7.682
			C233.908,227.019,231.202,229.093,228.111,229.091L228.111,229.091z"/>
		<path style="fill:#4382C4;" d="M228.111,170.185c-1.196,0.001-2.371-0.314-3.406-0.913l-12.837-7.413
			c-3.264-1.886-4.381-6.06-2.497-9.325s6.058-4.385,9.324-2.502l12.837,7.413c2.676,1.546,3.98,4.697,3.178,7.682
			C233.908,168.112,231.202,170.186,228.111,170.185L228.111,170.185z"/>
		<path style="fill:#4382C4;" d="M215.275,177.498c-1.196,0-2.371-0.315-3.407-0.913l-12.84-7.413
			c-3.266-1.885-4.385-6.061-2.5-9.327c1.885-3.266,6.061-4.385,9.327-2.5l12.84,7.413c2.678,1.545,3.984,4.697,3.182,7.683
			C221.075,175.428,218.367,177.502,215.275,177.498L215.275,177.498z"/>
		<path style="fill:#4382C4;" d="M228.111,140.731c-1.196,0.001-2.371-0.315-3.406-0.913l-12.837-7.413
			c-2.114-1.219-3.417-3.473-3.417-5.913s1.301-4.695,3.414-5.915c2.113-1.22,4.717-1.219,6.83,0.002l12.837,7.413
			c2.676,1.546,3.98,4.697,3.178,7.682C233.908,138.659,231.202,140.733,228.111,140.731L228.111,140.731z"/>
		<path style="fill:#4382C4;" d="M215.275,148.045c-1.196,0-2.371-0.315-3.407-0.913l-12.84-7.413
			c-3.264-1.886-4.381-6.06-2.497-9.325c1.884-3.265,6.058-4.385,9.324-2.502l12.84,7.413c2.678,1.545,3.984,4.697,3.182,7.683
			C221.075,145.974,218.367,148.049,215.275,148.045z"/>
		<path style="fill:#4382C4;" d="M228.111,258.538c-1.196,0-2.371-0.315-3.406-0.913l-12.837-7.407
			c-2.114-1.219-3.417-3.473-3.417-5.913c-0.001-2.44,1.301-4.695,3.414-5.915c2.113-1.22,4.717-1.219,6.83,0.002l12.837,7.407
			c2.678,1.545,3.984,4.697,3.182,7.683C233.912,256.468,231.203,258.542,228.111,258.538L228.111,258.538z"/>
		<path style="fill:#4382C4;" d="M228.111,287.991c-1.196,0-2.371-0.315-3.406-0.913l-12.837-7.407
			c-3.264-1.886-4.381-6.06-2.497-9.325c1.884-3.265,6.058-4.385,9.324-2.502l12.837,7.407c2.678,1.545,3.984,4.697,3.182,7.683
			C233.912,285.921,231.203,287.995,228.111,287.991L228.111,287.991z"/>
		<path style="fill:#4382C4;" d="M228.111,317.445c-1.196,0.001-2.371-0.314-3.406-0.913l-12.837-7.414
			c-3.266-1.885-4.385-6.061-2.5-9.327c1.885-3.266,6.061-4.385,9.327-2.5l12.837,7.413c2.676,1.546,3.98,4.697,3.178,7.682
			C233.908,315.372,231.202,317.446,228.111,317.445L228.111,317.445z"/>
		<path style="fill:#4382C4;" d="M228.111,346.898c-1.196,0.001-2.371-0.315-3.406-0.913l-12.837-7.413
			c-3.264-1.886-4.381-6.06-2.497-9.325c1.884-3.265,6.058-4.385,9.324-2.502l12.837,7.413c2.676,1.546,3.98,4.697,3.178,7.682
			C233.908,344.825,231.202,346.9,228.111,346.898L228.111,346.898z"/>
		<path style="fill:#4382C4;" d="M228.111,376.351c-1.196,0.001-2.371-0.315-3.406-0.913l-12.837-7.413
			c-3.264-1.886-4.381-6.06-2.497-9.325c1.884-3.265,6.058-4.385,9.324-2.502l12.837,7.413c2.676,1.546,3.98,4.697,3.178,7.682
			C233.908,374.279,231.202,376.353,228.111,376.351L228.111,376.351z"/>
	</g>
	<path style="fill:#95A5A5;" d="M242.801,509.205c-2.228-0.032-4.407-0.651-6.32-1.793l-49.23-28.42h-0.003
		c-6.53-4.043-10.264-11.388-9.683-19.046l10.863-74.72c0.404-3.559,2.568-6.677,5.76-8.3c3.49-1.549,7.523-1.254,10.75,0.787
		l27.507,15.88c5.302,3.298,8.86,8.787,9.707,14.973l10.863,87.273c0.836,4.469-0.967,9.022-4.637,11.707
		C246.725,508.64,244.784,509.217,242.801,509.205L242.801,509.205z"/>
</g>
<g>
</g>
<g>
</g>
<g>
</g>
<g>
</g>
<g>
</g>
<g>
</g>
<g>
</g>
<g>
</g>
<g>
</g>
<g>
</g>
<g>
</g>
<g>
</g>
<g>
</g>
<g>
</g>
<g>
</g>
</svg>
