<?xml version="1.0" encoding="iso-8859-1"?>
<!-- Generator: Adobe Illustrator 19.0.0, SVG Export Plug-In . SVG Version: 6.00 Build 0)  -->
<svg version="1.1" id="Capa_1" xmlns="http://www.w3.org/2000/svg" xmlns:xlink="http://www.w3.org/1999/xlink" x="0px" y="0px"
	 viewBox="0 0 511.993 511.993" style="enable-background:new 0 0 511.993 511.993;" xml:space="preserve">
<g>
	<path style="fill:#B0D2EF;" d="M443.405,200.294l-8.372-4.843l-4.359-2.56v-34.11c-0.157-9.69-4.908-18.73-12.8-24.355
		L290.427,60.739c-2.661-1.917-6.22-2.027-8.995-0.277v0.069l-29.544,17.021l-0.208,0.138c-3.04,2.072-4.752,5.601-4.497,9.271
		L124.65,16.251L99.119,1.513c-2.545-1.826-5.916-2.015-8.649-0.484l-0.277,0.138l-29.475,17.09
		c-3.514,2.273-5.4,6.369-4.843,10.517v258.56c0.148,9.676,4.871,18.71,12.731,24.355l344.285,198.781
		c2.558,1.898,6.017,2.035,8.718,0.346l0.069,0.069l29.751-17.228c3.38-2.344,5.19-6.363,4.705-10.448V224.718
		C456.021,215.014,451.294,205.945,443.405,200.294z"/>
	<path style="fill:#4382C4;" d="M400.161,176.354v34.249l-153.046-88.355V88c-0.014-0.324,0.009-0.649,0.069-0.969v-0.069
		c-0.255-3.67,1.457-7.199,4.497-9.271l0.208-0.138c2.636-1.15,5.681-0.835,8.026,0.83L387.431,152
		C395.267,157.665,399.983,166.686,400.161,176.354z"/>
	<path style="fill:#275781;" d="M430.674,158.78v34.11l-30.512,17.712v-34.249c-0.179-9.668-4.894-18.689-12.731-24.355
		L259.915,78.383c-2.345-1.665-5.39-1.98-8.026-0.83l29.544-17.021v-0.069c2.774-1.75,6.333-1.641,8.995,0.277l127.446,73.686
		C425.766,140.051,430.517,149.09,430.674,158.78L430.674,158.78z"/>
	<g>
		<path style="fill:#91BAE2;" d="M456.135,224.718v258.491c0.485,4.085-1.325,8.104-4.705,10.448l-29.751,17.228l-0.069-0.069
			c2.97-2.408,4.509-6.163,4.082-9.963v-258.56c-0.157-9.69-4.908-18.73-12.8-24.355l-12.731-7.334l30.512-17.712l4.359,2.56
			l8.372,4.843C451.293,205.945,456.021,215.014,456.135,224.718L456.135,224.718z"/>
		<path style="fill:#91BAE2;" d="M247.184,86.962v0.069c-0.06,0.319-0.083,0.644-0.069,0.969v34.249L94.138,33.894L68.607,19.157
			c-2.308-1.614-5.276-1.953-7.888-0.899l29.475-17.09l0.277-0.138c2.733-1.53,6.104-1.341,8.649,0.484l25.531,14.737
			L247.184,86.962z"/>
	</g>
	<path style="fill:#F3D55A;" d="M326.324,322.418c0,53.98-35.6,77.83-81.371,56.889c-3.326-1.492-6.569-3.161-9.716-5
		c-3.264-1.884-6.528-3.943-9.716-6.219C179.75,336.177,144.15,271.22,144.15,217.24s35.6-77.83,81.371-56.889
		c3.326,1.491,6.569,3.16,9.716,5c3.264,1.884,6.528,3.943,9.716,6.219C290.725,203.481,326.324,268.438,326.324,322.418z"/>
	<g>
		<path style="fill:#D35525;" d="M205.208,259.41c-1.835,0.001-3.596-0.728-4.894-2.025c-1.298-1.298-2.026-3.058-2.025-4.894
			c0-17.203,6.169-30.237,17.372-36.709c11.284-6.514,25.811-5.318,40.925,3.412c3.308,1.912,4.441,6.142,2.531,9.451
			c-1.91,3.309-6.14,4.444-9.45,2.536c-10.642-6.149-20.264-7.345-27.088-3.412c-6.736,3.892-10.453,12.669-10.453,24.723
			c0.001,1.835-0.728,3.596-2.025,4.894C208.804,258.683,207.044,259.411,205.208,259.41z"/>
		<path style="fill:#D35525;" d="M253.12,342.045c-1.212,0.001-2.403-0.318-3.453-0.926c-30.463-19.484-49.609-52.51-51.378-88.628
			c0-3.821,3.098-6.919,6.919-6.919s6.919,3.098,6.919,6.919c1.775,31.168,18.284,59.628,44.459,76.642
			c2.714,1.566,4.038,4.761,3.225,7.787C258.999,339.947,256.254,342.049,253.12,342.045z"/>
		<path style="fill:#D35525;" d="M243.364,266.518c-1.212,0.001-2.403-0.318-3.453-0.926l-52.047-30.054
			c-3.31-1.911-4.444-6.143-2.534-9.453c1.911-3.31,6.143-4.444,9.453-2.534l52.047,30.054c2.714,1.566,4.038,4.761,3.225,7.787
			S246.497,266.523,243.364,266.518L243.364,266.518z"/>
		<path style="fill:#D35525;" d="M243.364,296.37c-1.212,0.001-2.403-0.318-3.453-0.926l-52.047-30.054
			c-2.143-1.235-3.463-3.52-3.464-5.993c-0.001-2.473,1.319-4.759,3.46-5.995c2.142-1.236,4.781-1.236,6.922,0.002l52.047,30.054
			c2.714,1.566,4.038,4.761,3.225,7.787S246.497,296.374,243.364,296.37L243.364,296.37z"/>
	</g>
</g>
<g>
</g>
<g>
</g>
<g>
</g>
<g>
</g>
<g>
</g>
<g>
</g>
<g>
</g>
<g>
</g>
<g>
</g>
<g>
</g>
<g>
</g>
<g>
</g>
<g>
</g>
<g>
</g>
<g>
</g>
</svg>
