<?xml version="1.0" encoding="iso-8859-1"?>
<!-- Generator: Adobe Illustrator 19.0.0, SVG Export Plug-In . SVG Version: 6.00 Build 0)  -->
<svg version="1.1" id="Capa_1" xmlns="http://www.w3.org/2000/svg" xmlns:xlink="http://www.w3.org/1999/xlink" x="0px" y="0px"
	 viewBox="0 0 511.993 511.993" style="enable-background:new 0 0 511.993 511.993;" xml:space="preserve">
<g>
	<path style="fill:#B0D2EF;" d="M443.405,200.294l-8.372-4.843l-4.359-2.56v-34.11c-0.157-9.69-4.908-18.73-12.8-24.355
		L290.427,60.739c-2.661-1.917-6.22-2.027-8.995-0.277v0.069l-29.544,17.021l-0.208,0.138c-3.04,2.072-4.752,5.601-4.497,9.271
		L124.65,16.251L99.119,1.513c-2.545-1.826-5.916-2.015-8.649-0.484l-0.277,0.138l-29.475,17.09
		c-3.514,2.273-5.4,6.369-4.843,10.517v258.56c0.148,9.676,4.871,18.71,12.731,24.355l344.285,198.781
		c2.558,1.898,6.017,2.035,8.718,0.346l0.069,0.069l29.751-17.228c3.38-2.344,5.19-6.363,4.705-10.448V224.718
		C456.021,215.014,451.294,205.945,443.405,200.294z"/>
	<path style="fill:#4382C4;" d="M400.161,176.354v34.249l-153.046-88.355V88c-0.014-0.324,0.009-0.649,0.069-0.969v-0.069
		c-0.255-3.67,1.457-7.199,4.497-9.271l0.208-0.138c2.636-1.15,5.681-0.835,8.026,0.83L387.431,152
		C395.267,157.665,399.983,166.686,400.161,176.354z"/>
	<path style="fill:#275781;" d="M430.674,158.78v34.11l-30.512,17.712v-34.249c-0.179-9.668-4.894-18.689-12.731-24.355
		L259.915,78.383c-2.345-1.665-5.39-1.98-8.026-0.83l29.544-17.021v-0.069c2.774-1.75,6.333-1.641,8.995,0.277l127.446,73.686
		C425.766,140.051,430.517,149.09,430.674,158.78L430.674,158.78z"/>
	<g>
		<path style="fill:#91BAE2;" d="M456.135,224.718v258.491c0.485,4.085-1.325,8.104-4.705,10.448l-29.751,17.228l-0.069-0.069
			c2.97-2.408,4.509-6.163,4.082-9.963v-258.56c-0.157-9.69-4.908-18.73-12.8-24.355l-12.731-7.334l30.512-17.712l4.359,2.56
			l8.372,4.843C451.293,205.945,456.021,215.014,456.135,224.718L456.135,224.718z"/>
		<path style="fill:#91BAE2;" d="M247.184,86.962v0.069c-0.06,0.319-0.083,0.644-0.069,0.969v34.249L94.138,33.894L68.607,19.157
			c-2.308-1.614-5.276-1.953-7.888-0.899l29.475-17.09l0.277-0.138c2.733-1.53,6.104-1.341,8.649,0.484l25.531,14.737
			L247.184,86.962z"/>
	</g>
	
		<ellipse transform="matrix(-0.505 -0.8631 0.8631 -0.505 121.0991 609.1041)" style="fill:#945BA2;" cx="235.211" cy="269.827" rx="128.443" ry="74.15"/>
	<g>
		<path style="fill:#FFFFFF;" d="M248.762,299.167c-9.899,0-21.264-7.77-28.716-20.622c-1.904-3.305-0.775-7.527,2.524-9.441
			c3.299-1.914,7.525-0.798,9.449,2.495c6.223,10.743,15.074,15.203,18.203,13.399l23.014-13.108
			c0.925-0.705,1.556-1.728,1.77-2.871c0.998-6.753-0.546-13.637-4.331-19.318c-6.23-10.743-15.088-15.189-18.203-13.399
			l-4.615,2.622c-2.149,1.225-4.788,1.209-6.922-0.041s-3.439-3.544-3.421-6.018c0.017-2.473,1.354-4.749,3.505-5.969l4.608-2.622
			c11.088-6.324,27.338,1.804,37.02,18.48c5.665,8.856,7.711,19.55,5.716,29.872c-1.113,4.731-4.1,8.806-8.277,11.29l-23.014,13.108
			C254.538,298.456,251.672,299.195,248.762,299.167z"/>
		<path style="fill:#FFFFFF;" d="M216.546,317.525c-9.899,0-21.264-7.77-28.716-20.622c-5.665-8.856-7.711-19.55-5.716-29.872
			c1.113-4.731,4.1-8.806,8.277-11.29l23.014-13.108c11.115-6.291,27.351,1.804,37.02,18.48c1.904,3.305,0.775,7.527-2.524,9.441
			s-7.525,0.798-9.449-2.495c-6.23-10.743-15.074-15.196-18.196-13.399l-23.014,13.108c-0.925,0.705-1.556,1.728-1.77,2.871
			c-0.998,6.753,0.546,13.637,4.331,19.318c6.23,10.743,15.081,15.196,18.203,13.399l4.601-2.622
			c2.148-1.224,4.787-1.209,6.921,0.04c2.134,1.249,3.44,3.541,3.426,6.014c-0.014,2.473-1.347,4.75-3.495,5.973l-4.601,2.622
			C222.323,316.814,219.456,317.553,216.546,317.525z"/>
	</g>
</g>
<g>
</g>
<g>
</g>
<g>
</g>
<g>
</g>
<g>
</g>
<g>
</g>
<g>
</g>
<g>
</g>
<g>
</g>
<g>
</g>
<g>
</g>
<g>
</g>
<g>
</g>
<g>
</g>
<g>
</g>
</svg>
