<?xml version="1.0" encoding="iso-8859-1"?>
<!-- Generator: Adobe Illustrator 19.0.0, SVG Export Plug-In . SVG Version: 6.00 Build 0)  -->
<svg version="1.1" id="Capa_1" xmlns="http://www.w3.org/2000/svg" xmlns:xlink="http://www.w3.org/1999/xlink" x="0px" y="0px"
	 viewBox="0 0 511.993 511.993" style="enable-background:new 0 0 511.993 511.993;" xml:space="preserve">
<g>
	<path style="fill:#B0D2EF;" d="M443.405,200.294l-8.372-4.843l-4.359-2.56v-34.11c-0.157-9.69-4.908-18.73-12.8-24.355
		L290.427,60.739c-2.661-1.917-6.22-2.027-8.995-0.277v0.069l-29.544,17.021l-0.208,0.138c-3.04,2.072-4.752,5.601-4.497,9.271
		L124.65,16.251L99.119,1.513c-2.545-1.826-5.916-2.015-8.649-0.484l-0.277,0.138l-29.475,17.09
		c-3.514,2.273-5.4,6.369-4.843,10.517v258.56c0.148,9.676,4.871,18.71,12.731,24.355l344.285,198.781
		c2.558,1.898,6.017,2.035,8.718,0.346l0.069,0.069l29.751-17.228c3.38-2.344,5.19-6.363,4.705-10.448V224.718
		C456.021,215.014,451.294,205.945,443.405,200.294z"/>
	<path style="fill:#4382C4;" d="M400.161,176.354v34.249l-153.046-88.355V88c-0.014-0.324,0.009-0.649,0.069-0.969v-0.069
		c-0.255-3.67,1.457-7.199,4.497-9.271l0.208-0.138c2.636-1.15,5.681-0.835,8.026,0.83L387.431,152
		C395.267,157.665,399.983,166.686,400.161,176.354z"/>
	<path style="fill:#275781;" d="M430.674,158.78v34.11l-30.512,17.712v-34.249c-0.179-9.668-4.894-18.689-12.731-24.355
		L259.915,78.383c-2.345-1.665-5.39-1.98-8.026-0.83l29.544-17.021v-0.069c2.774-1.75,6.333-1.641,8.995,0.277l127.446,73.686
		C425.766,140.051,430.517,149.09,430.674,158.78L430.674,158.78z"/>
	<g>
		<path style="fill:#91BAE2;" d="M456.135,224.718v258.491c0.485,4.085-1.325,8.104-4.705,10.448l-29.751,17.228l-0.069-0.069
			c2.97-2.408,4.509-6.163,4.082-9.963v-258.56c-0.157-9.69-4.908-18.73-12.8-24.355l-12.731-7.334l30.512-17.712l4.359,2.56
			l8.372,4.843C451.293,205.945,456.021,215.014,456.135,224.718L456.135,224.718z"/>
		<path style="fill:#91BAE2;" d="M247.184,86.962v0.069c-0.06,0.319-0.083,0.644-0.069,0.969v34.249L94.138,33.894L68.607,19.157
			c-2.308-1.614-5.276-1.953-7.888-0.899l29.475-17.09l0.277-0.138c2.733-1.53,6.104-1.341,8.649,0.484l25.531,14.737
			L247.184,86.962z"/>
	</g>
	
		<ellipse transform="matrix(-0.505 -0.8631 0.8631 -0.505 121.0991 609.1041)" style="fill:#FFFFFF;" cx="235.211" cy="269.827" rx="128.443" ry="74.15"/>
	<g>
		<path style="fill:#2C2F38;" d="M246.951,310.153c-5.362-0.138-10.594-1.678-15.176-4.466l0,0
			c-17.487-11.192-28.477-30.155-29.493-50.892c-0.758-9.004,3.477-17.7,11.034-22.655c8.17-4.017,17.87-3.317,25.379,1.831
			c17.49,11.19,28.483,30.153,29.5,50.892c0.757,9.001-3.475,17.693-11.027,22.649C254.057,309.283,250.531,310.194,246.951,310.153
			L246.951,310.153z M238.695,293.701c3.287,2.535,7.637,3.224,11.547,1.831c3.099-2.623,4.65-6.644,4.115-10.669
			c-1.024-15.788-9.381-30.185-22.581-38.905c-3.285-2.534-7.633-3.224-11.541-1.831c-3.101,2.622-4.651,6.644-4.115,10.669
			C217.144,270.581,225.498,284.978,238.695,293.701L238.695,293.701z"/>
		<path style="fill:#2C2F38;" d="M235.235,246.883c-1.835,0.001-3.596-0.728-4.894-2.025c-1.298-1.298-2.026-3.058-2.025-4.894
			v-43.473c0-3.821,3.098-6.919,6.919-6.919s6.919,3.098,6.919,6.919v43.473c0.001,1.835-0.728,3.596-2.025,4.894
			C238.831,246.156,237.07,246.884,235.235,246.883z"/>
		<path style="fill:#2C2F38;" d="M198.485,297.687c-3.141,0.004-5.891-2.108-6.697-5.144c-0.806-3.036,0.535-6.234,3.264-7.788
			l17.23-9.818c3.321-1.892,7.547-0.733,9.439,2.588c1.892,3.321,0.733,7.547-2.588,9.439l-17.23,9.818
			C200.863,297.376,199.684,297.688,198.485,297.687L198.485,297.687z"/>
	</g>
</g>
<g>
</g>
<g>
</g>
<g>
</g>
<g>
</g>
<g>
</g>
<g>
</g>
<g>
</g>
<g>
</g>
<g>
</g>
<g>
</g>
<g>
</g>
<g>
</g>
<g>
</g>
<g>
</g>
<g>
</g>
</svg>
