<?xml version="1.0" encoding="iso-8859-1"?>
<!-- Generator: Adobe Illustrator 19.0.0, SVG Export Plug-In . SVG Version: 6.00 Build 0)  -->
<svg version="1.1" id="Capa_1" xmlns="http://www.w3.org/2000/svg" xmlns:xlink="http://www.w3.org/1999/xlink" x="0px" y="0px"
	 viewBox="0 0 511.993 511.993" style="enable-background:new 0 0 511.993 511.993;" xml:space="preserve">
<g>
	<path style="fill:#B0D2EF;" d="M443.405,200.294l-8.372-4.843l-4.359-2.56v-34.11c-0.157-9.69-4.908-18.73-12.8-24.355
		L290.427,60.739c-2.661-1.917-6.22-2.027-8.995-0.277v0.069l-29.544,17.021l-0.208,0.138c-3.04,2.072-4.752,5.601-4.497,9.271
		L124.65,16.251L99.119,1.513c-2.545-1.826-5.916-2.015-8.649-0.484l-0.277,0.138l-29.475,17.09
		c-3.514,2.273-5.4,6.369-4.843,10.517v258.56c0.148,9.676,4.871,18.71,12.731,24.355l344.285,198.781
		c2.558,1.898,6.017,2.035,8.718,0.346l0.069,0.069l29.751-17.228c3.38-2.344,5.19-6.363,4.705-10.448V224.718
		C456.021,215.014,451.294,205.945,443.405,200.294z"/>
	<path style="fill:#4382C4;" d="M400.161,176.354v34.249l-153.046-88.355V88c-0.014-0.324,0.009-0.649,0.069-0.969v-0.069
		c-0.255-3.67,1.457-7.199,4.497-9.271l0.208-0.138c2.636-1.15,5.681-0.835,8.026,0.83L387.431,152
		C395.267,157.665,399.983,166.686,400.161,176.354z"/>
	<path style="fill:#275781;" d="M430.674,158.78v34.11l-30.512,17.712v-34.249c-0.179-9.668-4.894-18.689-12.731-24.355
		L259.915,78.383c-2.345-1.665-5.39-1.98-8.026-0.83l29.544-17.021v-0.069c2.774-1.75,6.333-1.641,8.995,0.277l127.446,73.686
		C425.766,140.051,430.517,149.09,430.674,158.78L430.674,158.78z"/>
	<g>
		<path style="fill:#91BAE2;" d="M456.135,224.718v258.491c0.485,4.085-1.325,8.104-4.705,10.448l-29.751,17.228l-0.069-0.069
			c2.97-2.408,4.509-6.163,4.082-9.963v-258.56c-0.157-9.69-4.908-18.73-12.8-24.355l-12.731-7.334l30.512-17.712l4.359,2.56
			l8.372,4.843C451.293,205.945,456.021,215.014,456.135,224.718L456.135,224.718z"/>
		<path style="fill:#91BAE2;" d="M247.184,86.962v0.069c-0.06,0.319-0.083,0.644-0.069,0.969v34.249L94.138,33.894L68.607,19.157
			c-2.308-1.614-5.276-1.953-7.888-0.899l29.475-17.09l0.277-0.138c2.733-1.53,6.104-1.341,8.649,0.484l25.531,14.737
			L247.184,86.962z"/>
	</g>
	<path style="fill:#894B98;" d="M144.15,217.24c0,53.98,35.6,118.937,81.371,150.848c3.188,2.276,6.452,4.335,9.716,6.219
		c3.147,1.84,6.39,3.509,9.716,5c45.771,20.941,81.371-2.909,81.371-56.889c0-53.98-35.6-118.937-81.371-150.848
		c-3.188-2.276-6.452-4.335-9.716-6.219c-3.147-1.84-6.39-3.509-9.716-5C179.75,139.41,144.15,163.26,144.15,217.24z"/>
	<path style="fill:#F0C41A;" d="M232.433,195.631l-15.616,29.221c-0.221,0.399-0.592,0.692-1.031,0.816
		c-0.439,0.124-0.909,0.067-1.305-0.158l-35.166-14.128c-2.493-1.001-3.51,1.905-1.75,4.996l25.639,45.004
		c0.655,1.06,0.949,2.304,0.84,3.545l-6.025,38.975c-0.416,2.693,2.293,6.451,4.556,6.32l31.163-1.806
		c1.209,0.096,2.31,0.732,2.998,1.731l31.163,37.791c2.263,2.745,4.973,2.115,4.556-1.059l-6.025-45.933
		c-0.252-0.949,0.077-1.957,0.84-2.575l25.639-15.399c1.761-1.058,0.743-5.139-1.75-7.016l-35.166-26.478
		c-1.09-0.867-1.902-2.033-2.337-3.356l-15.616-47.253C236.927,195.495,233.548,193.544,232.433,195.631z"/>
</g>
<g>
</g>
<g>
</g>
<g>
</g>
<g>
</g>
<g>
</g>
<g>
</g>
<g>
</g>
<g>
</g>
<g>
</g>
<g>
</g>
<g>
</g>
<g>
</g>
<g>
</g>
<g>
</g>
<g>
</g>
</svg>
