<?xml version="1.0" encoding="iso-8859-1"?>
<!-- Generator: Adobe Illustrator 19.0.0, SVG Export Plug-In . SVG Version: 6.00 Build 0)  -->
<svg version="1.1" id="Capa_1" xmlns="http://www.w3.org/2000/svg" xmlns:xlink="http://www.w3.org/1999/xlink" x="0px" y="0px"
	 viewBox="0 0 511.993 511.993" style="enable-background:new 0 0 511.993 511.993;" xml:space="preserve">
<g>
	<path style="fill:#B0D2EF;" d="M443.405,200.294l-8.372-4.843l-4.359-2.56v-34.11c-0.157-9.69-4.908-18.73-12.8-24.355
		L290.427,60.739c-2.661-1.917-6.22-2.027-8.995-0.277v0.069l-29.544,17.021l-0.208,0.138c-3.04,2.072-4.752,5.601-4.497,9.271
		L124.65,16.251L99.119,1.513c-2.545-1.826-5.916-2.015-8.649-0.484l-0.277,0.138l-29.475,17.09
		c-3.514,2.273-5.4,6.369-4.843,10.517v258.56c0.148,9.676,4.871,18.71,12.731,24.355l344.285,198.781
		c2.558,1.898,6.017,2.035,8.718,0.346l0.069,0.069l29.751-17.228c3.38-2.344,5.19-6.363,4.705-10.448V224.718
		C456.021,215.014,451.294,205.945,443.405,200.294z"/>
	<path style="fill:#4382C4;" d="M400.161,176.354v34.249l-153.046-88.355V88c-0.014-0.324,0.009-0.649,0.069-0.969v-0.069
		c-0.255-3.67,1.457-7.199,4.497-9.271l0.208-0.138c2.636-1.15,5.681-0.835,8.026,0.83L387.431,152
		C395.267,157.665,399.983,166.686,400.161,176.354z"/>
	<path style="fill:#275781;" d="M430.674,158.78v34.11l-30.512,17.712v-34.249c-0.179-9.668-4.894-18.689-12.731-24.355
		L259.915,78.383c-2.345-1.665-5.39-1.98-8.026-0.83l29.544-17.021v-0.069c2.774-1.75,6.333-1.641,8.995,0.277l127.446,73.686
		C425.766,140.051,430.517,149.09,430.674,158.78L430.674,158.78z"/>
	<g>
		<path style="fill:#91BAE2;" d="M456.135,224.718v258.491c0.485,4.085-1.325,8.104-4.705,10.448l-29.751,17.228l-0.069-0.069
			c2.97-2.408,4.509-6.163,4.082-9.963v-258.56c-0.157-9.69-4.908-18.73-12.8-24.355l-12.731-7.334l30.512-17.712l4.359,2.56
			l8.372,4.843C451.293,205.945,456.021,215.014,456.135,224.718L456.135,224.718z"/>
		<path style="fill:#91BAE2;" d="M247.184,86.962v0.069c-0.06,0.319-0.083,0.644-0.069,0.969v34.249L94.138,33.894L68.607,19.157
			c-2.308-1.614-5.276-1.953-7.888-0.899l29.475-17.09l0.277-0.138c2.733-1.53,6.104-1.341,8.649,0.484l25.531,14.737
			L247.184,86.962z"/>
	</g>
	<path style="fill:#30A8CD;" d="M249.059,165.957l-0.026-0.019l-0.054-0.041c-3.189-2.277-6.554-4.432-10.284-6.578
		c-3.333-1.955-6.771-3.725-10.297-5.304c-23.824-10.899-46.311-10.892-63.297,0.02c-17.993,11.557-27.905,33.997-27.905,63.182
		c0.285,18.602,3.657,37.027,9.978,54.524l-0.011,0.019l0.024,0.014c13.918,40.711,39.823,76.261,74.314,101.979
		c3.196,2.284,6.554,4.439,10.284,6.588c3.334,1.951,6.771,3.72,10.297,5.297c10.68,5.14,22.339,7.926,34.189,8.169
		c10.291,0.148,20.404-2.697,29.108-8.189c17.993-11.554,27.905-33.993,27.905-63.182
		C333.283,266.732,297.052,199.466,249.059,165.957z M244.633,371.525c-0.803-0.397-1.634-0.825-2.479-1.274v-43.642l24.761,14.296
		C263.095,353.303,255.255,364.077,244.633,371.525z M225.848,168.131c0.799,0.397,1.628,0.822,2.469,1.271v43.645l-24.755-14.292
		C207.382,186.355,215.223,175.58,225.848,168.131L225.848,168.131z M242.154,221.037v-40.291
		c9.474,16.835,16.997,34.696,22.421,53.236L242.154,221.037z M269.16,252.61c2.154,10.307,3.573,20.754,4.247,31.262
		l-31.252-18.043v-28.811L269.16,252.61z M228.317,229.029v28.811l-31.644-18.269c0.156-9.099,1.164-18.163,3.011-27.074
		L228.317,229.029z M183.16,231.77l-31.97-18.457c0.17-8.88,1.805-17.671,4.84-26.019l31.055,17.93
		C184.986,213.938,183.672,222.822,183.16,231.77L183.16,231.77z M182.914,247.609c0.205,10.171,1.103,20.316,2.686,30.365
		l-26.995-15.586c-3.427-10.661-5.734-21.65-6.886-32.789L182.914,247.609z M197.071,255.782l31.245,18.039v28.816l-27-15.589
		C199.163,276.74,197.744,266.291,197.071,255.782L197.071,255.782z M228.317,318.619v40.277
		c-9.474-16.829-16.995-34.685-22.418-53.22L228.317,318.619z M242.154,310.627V281.81l31.651,18.273
		c-0.155,9.101-1.163,18.167-3.011,27.079L242.154,310.627z M287.318,307.885l31.97,18.457c-0.171,8.882-1.807,17.674-4.844,26.022
		l-31.052-17.929C285.492,325.721,286.806,316.835,287.318,307.885L287.318,307.885z M287.564,292.046
		c-0.206-10.169-1.103-20.313-2.686-30.361l26.995,15.586c3.426,10.66,5.734,21.647,6.886,32.785L287.564,292.046z M304.109,256.808
		l-22.795-13.161c-3.452-14.781-8.156-29.242-14.059-43.226C282.513,217.096,294.96,236.14,304.109,256.808L304.109,256.808z
		 M172.58,165.68c6.487-4.049,14.01-6.125,21.655-5.976c5.597,0.09,11.154,0.951,16.515,2.561
		c-8.704,8.141-15.356,18.227-19.412,29.434l-28.703-16.573C165.359,171.409,168.727,168.209,172.58,165.68z M166.367,282.851
		l22.796,13.162c3.452,14.78,8.155,29.24,14.058,43.223C187.963,322.562,175.517,303.518,166.367,282.851L166.367,282.851z
		 M297.898,373.978c-11.622,6.647-25.564,7.897-38.183,3.423c8.71-8.14,15.367-18.229,19.423-29.439l28.7,16.571
		C305.115,368.249,301.748,371.448,297.898,373.978L297.898,373.978z"/>
</g>
<g>
</g>
<g>
</g>
<g>
</g>
<g>
</g>
<g>
</g>
<g>
</g>
<g>
</g>
<g>
</g>
<g>
</g>
<g>
</g>
<g>
</g>
<g>
</g>
<g>
</g>
<g>
</g>
<g>
</g>
</svg>
