<?xml version="1.0" encoding="iso-8859-1"?>
<!-- Generator: Adobe Illustrator 19.0.0, SVG Export Plug-In . SVG Version: 6.00 Build 0)  -->
<svg version="1.1" id="Capa_1" xmlns="http://www.w3.org/2000/svg" xmlns:xlink="http://www.w3.org/1999/xlink" x="0px" y="0px"
	 viewBox="0 0 511.993 511.993" style="enable-background:new 0 0 511.993 511.993;" xml:space="preserve">
<g>
	<path style="fill:#B0D2EF;" d="M443.405,200.294l-8.372-4.843l-4.359-2.56v-34.11c-0.157-9.69-4.908-18.73-12.8-24.355
		L290.427,60.739c-2.661-1.917-6.22-2.027-8.995-0.277v0.069l-29.544,17.021l-0.208,0.138c-3.04,2.072-4.752,5.601-4.497,9.271
		L124.65,16.251L99.119,1.513c-2.545-1.826-5.916-2.015-8.649-0.484l-0.277,0.138l-29.475,17.09
		c-3.514,2.273-5.4,6.369-4.843,10.517v258.56c0.148,9.676,4.871,18.71,12.731,24.355l344.285,198.781
		c2.558,1.898,6.017,2.035,8.718,0.346l0.069,0.069l29.751-17.228c3.38-2.344,5.19-6.363,4.705-10.448V224.718
		C456.021,215.014,451.294,205.945,443.405,200.294z"/>
	<path style="fill:#4382C4;" d="M400.161,176.354v34.249l-153.046-88.355V88c-0.014-0.324,0.009-0.649,0.069-0.969v-0.069
		c-0.255-3.67,1.457-7.199,4.497-9.271l0.208-0.138c2.636-1.15,5.681-0.835,8.026,0.83L387.431,152
		C395.267,157.665,399.983,166.686,400.161,176.354z"/>
	<path style="fill:#275781;" d="M430.674,158.78v34.11l-30.512,17.712v-34.249c-0.179-9.668-4.894-18.689-12.731-24.355
		L259.915,78.383c-2.345-1.665-5.39-1.98-8.026-0.83l29.544-17.021v-0.069c2.774-1.75,6.333-1.641,8.995,0.277l127.446,73.686
		C425.766,140.051,430.517,149.09,430.674,158.78L430.674,158.78z"/>
	<g>
		<path style="fill:#91BAE2;" d="M456.135,224.718v258.491c0.485,4.085-1.325,8.104-4.705,10.448l-29.751,17.228l-0.069-0.069
			c2.97-2.408,4.509-6.163,4.082-9.963v-258.56c-0.157-9.69-4.908-18.73-12.8-24.355l-12.731-7.334l30.512-17.712l4.359,2.56
			l8.372,4.843C451.293,205.945,456.021,215.014,456.135,224.718L456.135,224.718z"/>
		<path style="fill:#91BAE2;" d="M247.184,86.962v0.069c-0.06,0.319-0.083,0.644-0.069,0.969v34.249L94.138,33.894L68.607,19.157
			c-2.308-1.614-5.276-1.953-7.888-0.899l29.475-17.09l0.277-0.138c2.733-1.53,6.104-1.341,8.649,0.484l25.531,14.737
			L247.184,86.962z"/>
	</g>
	<path style="fill:#5F6062;" d="M144.113,217.218c0,54.003,35.615,118.986,81.405,150.91c3.19,2.277,6.455,4.337,9.72,6.222
		c3.148,1.84,6.393,3.51,9.72,5.002c45.79,20.949,81.405-2.91,81.405-56.913s-35.614-118.986-81.405-150.911
		c-3.19-2.278-6.455-4.337-9.72-6.222c-3.148-1.841-6.393-3.51-9.72-5.002C179.727,139.356,144.113,163.215,144.113,217.218z"/>
	<path style="fill:#EDF1F1;" d="M224.489,205.681L224.489,205.681c-2.412,6.388-10.161,5.596-16.663-1.703l0,0
		c-10.325-11.591-21.097-5.455-16.189,9.223l0,0c3.091,9.243-0.119,16.278-6.902,15.129l0,0c-10.772-1.825-10.772,15.649,0,26.262
		l0,0c6.783,6.684,9.993,17.425,6.902,23.099l0,0c-4.908,9.01,5.864,27.585,16.189,27.916l0,0
		c6.502,0.209,14.251,8.364,16.663,17.538l0,0c3.802,12.318,18.681,21.12,22.895,13.218l0,0c2.412-6.388,10.161-5.596,16.663,1.703
		l0,0c10.325,11.591,21.097,5.455,16.189-9.223l0,0c-3.091-9.243,0.119-16.278,6.902-15.129l0,0c8.959,0.318,8.857-17.241,0-26.262
		l0,0c-6.784-6.684-9.993-17.425-6.902-23.099l0,0c4.908-9.01-5.864-27.585-16.189-27.916l0,0
		c-6.502-0.209-14.251-8.364-16.663-17.538l0,0C243.553,204.332,228.319,195.537,224.489,205.681z"/>
	
		<ellipse transform="matrix(-0.505 -0.8631 0.8631 -0.505 121.0625 609.065)" style="fill:#5F6062;" cx="235.186" cy="269.817" rx="27.496" ry="15.879"/>
</g>
<g>
</g>
<g>
</g>
<g>
</g>
<g>
</g>
<g>
</g>
<g>
</g>
<g>
</g>
<g>
</g>
<g>
</g>
<g>
</g>
<g>
</g>
<g>
</g>
<g>
</g>
<g>
</g>
<g>
</g>
</svg>
