<?xml version="1.0" encoding="iso-8859-1"?>
<!-- Generator: Adobe Illustrator 19.0.0, SVG Export Plug-In . SVG Version: 6.00 Build 0)  -->
<svg version="1.1" id="Capa_1" xmlns="http://www.w3.org/2000/svg" xmlns:xlink="http://www.w3.org/1999/xlink" x="0px" y="0px"
	 viewBox="0 0 512 512" style="enable-background:new 0 0 512 512;" xml:space="preserve">
<g>
	<polygon style="fill:#B0D2EF;" points="218.258,0 188.23,17.366 112.053,67.459 112.053,363.174 369.852,512 399.949,494.634 
		399.949,104.891 	"/>
	<polygon style="fill:#91BAE2;" points="399.949,104.891 399.949,494.634 369.852,512 369.852,122.257 	"/>
	<polygon style="fill:#A0C9D3;" points="399.949,104.891 369.852,122.257 188.23,17.366 218.258,0 	"/>
	<path style="fill:#91BAE2;" d="M188.228,17.366v80.675c0,7.403-5.258,10.378-11.762,6.642l-64.415-37.224L188.228,17.366z"/>
	<g>
		<path style="fill:#275781;" d="M183.057,243.851c-2.946-0.048-5.827-0.873-8.351-2.392l0,0
			c-9.748-6.631-15.621-17.623-15.716-29.412v-9.493c-0.495-6.301,2.447-12.378,7.696-15.899c4.724-2.527,10.449-2.281,14.939,0.642
			c9.748,6.631,15.621,17.623,15.716,29.412v9.493c0.496,6.303-2.446,12.383-7.696,15.905
			C187.641,243.261,185.368,243.862,183.057,243.851L183.057,243.851z M173.307,198.743H173.3c-0.252,1.257-0.41,2.531-0.473,3.811
			v9.493c0.168,6.835,3.398,13.232,8.797,17.426l0,0c0.423,0.283,0.903,0.47,1.405,0.547h0.007c0.242-1.26,0.398-2.536,0.466-3.818
			v-9.493c-0.168-6.835-3.398-13.232-8.797-17.426C174.284,199.005,173.807,198.821,173.307,198.743z"/>
		<path style="fill:#275781;" d="M219.827,335.378c-2.946-0.048-5.827-0.873-8.351-2.392l0,0
			c-9.748-6.631-15.621-17.623-15.716-29.412v-9.493c-0.496-6.303,2.446-12.383,7.696-15.905c4.724-2.528,10.452-2.28,14.939,0.649
			c9.748,6.631,15.621,17.623,15.716,29.412v9.493c0.496,6.303-2.446,12.383-7.696,15.905
			C224.412,334.788,222.139,335.389,219.827,335.378L219.827,335.378z M210.07,290.264h-0.007c-0.242,1.26-0.398,2.536-0.466,3.818
			v9.493c0.168,6.835,3.398,13.232,8.797,17.426l0,0c0.423,0.283,0.903,0.47,1.405,0.547h0.007c0.242-1.26,0.398-2.536,0.466-3.818
			v-9.493c-0.168-6.835-3.398-13.232-8.797-17.426C211.053,290.528,210.573,290.341,210.07,290.264L210.07,290.264z"/>
		<path style="fill:#275781;" d="M305.624,384.919c-2.943-0.052-5.821-0.877-8.345-2.392l0,0
			c-9.744-6.637-15.617-17.629-15.716-29.419v-9.487c-0.496-6.303,2.446-12.383,7.696-15.905c4.724-2.527,10.449-2.281,14.939,0.642
			c9.743,6.636,15.615,17.625,15.716,29.412v9.493c0.496,6.303-2.446,12.383-7.696,15.905
			C310.215,384.326,307.939,384.93,305.624,384.919z M304.199,370.541c0.434,0.26,0.909,0.443,1.405,0.54
			c0.251-1.259,0.409-2.535,0.473-3.818v-9.493c-0.173-6.833-3.402-13.229-8.797-17.426c-0.437-0.254-0.911-0.436-1.405-0.541
			c-0.251,1.259-0.409,2.535-0.473,3.818v9.487C295.574,359.944,298.803,366.341,304.199,370.541L304.199,370.541z"/>
		<path style="fill:#275781;" d="M262.726,289.851c-2.945-0.051-5.825-0.876-8.351-2.392l0,0
			c-9.745-6.633-15.618-17.624-15.716-29.412v-9.493c-0.497-6.304,2.448-12.386,7.702-15.905c4.727-2.523,10.452-2.272,14.939,0.655
			c9.745,6.63,15.618,17.619,15.716,29.405v9.493c0.495,6.301-2.447,12.378-7.696,15.899
			C267.316,289.259,265.04,289.863,262.726,289.851z M261.294,275.473c0.438,0.25,0.912,0.432,1.405,0.541
			c0.26-1.256,0.421-2.53,0.48-3.811v-9.493c-0.172-6.835-3.404-13.232-8.804-17.426c-0.444-0.239-0.916-0.423-1.405-0.547
			c-0.251,1.259-0.409,2.535-0.473,3.818v9.493C252.666,264.882,255.895,271.278,261.294,275.473L261.294,275.473z"/>
		<path style="fill:#275781;" d="M305.624,314.622c-2.943-0.052-5.821-0.877-8.345-2.392l0,0
			c-9.743-6.636-15.615-17.625-15.716-29.412v-9.493c-0.496-6.303,2.446-12.383,7.696-15.905c4.724-2.528,10.452-2.28,14.939,0.649
			c9.748,6.631,15.621,17.623,15.716,29.412v9.487c0.496,6.303-2.446,12.383-7.696,15.905
			C310.215,314.029,307.939,314.633,305.624,314.622L305.624,314.622z M304.199,300.243c0.419,0.289,0.901,0.474,1.405,0.541
			c0.251-1.259,0.409-2.535,0.473-3.818v-9.487c-0.168-6.835-3.398-13.232-8.797-17.426c-0.423-0.283-0.903-0.47-1.405-0.547h-0.007
			c-0.242,1.26-0.398,2.536-0.466,3.818v9.493C295.574,289.651,298.803,296.047,304.199,300.243L304.199,300.243z"/>
		<path style="fill:#275781;" d="M221.064,267.155c-1.835,0.001-3.596-0.728-4.894-2.025c-1.298-1.298-2.026-3.058-2.025-4.894
			v-35.824l-5.932-0.514c-1.828-0.156-3.52-1.033-4.701-2.438c-1.181-1.404-1.756-3.221-1.596-5.049
			c0.131-1.838,1.001-3.545,2.412-4.731c1.41-1.186,3.241-1.751,5.074-1.566l12.257,1.054c3.578,0.306,6.326,3.301,6.324,6.892
			v42.176c0.001,1.835-0.728,3.596-2.025,4.893C224.659,266.428,222.899,267.156,221.064,267.155z"/>
		<path style="fill:#275781;" d="M178.165,312.682c-1.835,0.001-3.596-0.728-4.894-2.025c-1.298-1.298-2.026-3.058-2.025-4.894
			v-35.824l-5.932-0.514c-1.828-0.156-3.52-1.033-4.701-2.437c-1.181-1.404-1.756-3.221-1.596-5.049
			c0.124-1.841,0.992-3.552,2.404-4.74s3.247-1.75,5.082-1.557l12.257,1.054c3.578,0.306,6.326,3.301,6.324,6.892v42.176
			c0.001,1.835-0.728,3.596-2.025,4.893C181.761,311.955,180,312.683,178.165,312.682L178.165,312.682z"/>
		<path style="fill:#275781;" d="M263.962,362.223c-1.835,0.001-3.596-0.728-4.894-2.025c-1.298-1.298-2.026-3.058-2.025-4.894
			v-35.831l-5.926-0.507c-1.828-0.155-3.519-1.031-4.702-2.434c-1.182-1.403-1.759-3.218-1.602-5.046
			c0.129-1.839,0.997-3.547,2.406-4.734c1.409-1.188,3.24-1.754,5.073-1.57l12.257,1.047c3.58,0.303,6.332,3.299,6.331,6.892v42.182
			c0.001,1.835-0.727,3.596-2.025,4.893C267.558,361.495,265.797,362.224,263.962,362.223L263.962,362.223z"/>
	</g>
</g>
<g>
</g>
<g>
</g>
<g>
</g>
<g>
</g>
<g>
</g>
<g>
</g>
<g>
</g>
<g>
</g>
<g>
</g>
<g>
</g>
<g>
</g>
<g>
</g>
<g>
</g>
<g>
</g>
<g>
</g>
</svg>
