<?xml version="1.0" encoding="iso-8859-1"?>
<!-- Generator: Adobe Illustrator 19.0.0, SVG Export Plug-In . SVG Version: 6.00 Build 0)  -->
<svg version="1.1" id="Capa_1" xmlns="http://www.w3.org/2000/svg" xmlns:xlink="http://www.w3.org/1999/xlink" x="0px" y="0px"
	 viewBox="0 0 512 512" style="enable-background:new 0 0 512 512;" xml:space="preserve">
<g>
	<polygon style="fill:#B0D2EF;" points="218.258,0 188.23,17.366 112.053,67.459 112.053,363.174 369.852,512 399.949,494.634 
		399.949,104.891 	"/>
	<polygon style="fill:#91BAE2;" points="399.949,104.891 399.949,494.634 369.852,512 369.852,122.257 	"/>
	<polygon style="fill:#A0C9D3;" points="399.949,104.891 369.852,122.257 188.23,17.366 218.258,0 	"/>
	<path style="fill:#91BAE2;" d="M188.228,17.366v80.675c0,7.403-5.258,10.378-11.762,6.642l-64.415-37.224L188.228,17.366z"/>
	<path style="fill:#10A084;" d="M270.097,400.905h-0.182c-3.243-0.088-5.99-2.416-6.608-5.601l-24.71-127.588l-10.818,43.405
		c-0.526,2.108-2.012,3.846-4.012,4.695c-2,0.849-4.282,0.709-6.164-0.378l-12.419-7.169l-8.784,15.081
		c-1.343,2.352-3.949,3.688-6.642,3.405c-2.689-0.257-4.982-2.057-5.872-4.608l-11.412-32.77l-16.156-9.324
		c-2.143-1.235-3.463-3.52-3.464-5.993c-0.001-2.473,1.319-4.759,3.46-5.995c2.142-1.236,4.781-1.236,6.922,0.002l18.385,10.615
		c1.437,0.83,2.528,2.149,3.074,3.716l7.311,21l4.69-8.047c0.918-1.586,2.428-2.742,4.199-3.213c1.77-0.471,3.656-0.22,5.241,0.7
		l10.432,6.027l16.162-64.838c0.844-3.11,3.676-5.263,6.899-5.243c3.243,0.088,5.99,2.416,6.608,5.601l24.709,127.595l4.689-18.831
		c0.526-2.108,2.012-3.846,4.012-4.695c2-0.849,4.283-0.709,6.164,0.378l36.77,21.229c3.308,1.912,4.441,6.142,2.531,9.451
		c-1.91,3.309-6.14,4.444-9.45,2.536l-28.817-16.642l-10.034,40.257C276.044,398.744,273.274,400.906,270.097,400.905z"/>
</g>
<g>
</g>
<g>
</g>
<g>
</g>
<g>
</g>
<g>
</g>
<g>
</g>
<g>
</g>
<g>
</g>
<g>
</g>
<g>
</g>
<g>
</g>
<g>
</g>
<g>
</g>
<g>
</g>
<g>
</g>
</svg>
