<?xml version="1.0" encoding="iso-8859-1"?>
<!-- Generator: Adobe Illustrator 19.0.0, SVG Export Plug-In . SVG Version: 6.00 Build 0)  -->
<svg version="1.1" id="Capa_1" xmlns="http://www.w3.org/2000/svg" xmlns:xlink="http://www.w3.org/1999/xlink" x="0px" y="0px"
	 viewBox="0 0 512 512" style="enable-background:new 0 0 512 512;" xml:space="preserve">
<g>
	<polygon style="fill:#B0D2EF;" points="218.258,0 188.23,17.366 112.053,67.459 112.053,363.174 369.852,512 399.949,494.634 
		399.949,104.891 	"/>
	<polygon style="fill:#91BAE2;" points="399.949,104.891 399.949,494.634 369.852,512 369.852,122.257 	"/>
	<polygon style="fill:#A0C9D3;" points="399.949,104.891 369.852,122.257 188.23,17.366 218.258,0 	"/>
	<path style="fill:#91BAE2;" d="M188.228,17.366v80.675c0,7.403-5.258,10.378-11.762,6.642l-64.415-37.224L188.228,17.366z"/>
	<g>
		<path style="fill:#E95566;" d="M266.888,293.689c-2.634,0.003-5.042-1.49-6.209-3.851c-5.715-10.125-14.34-18.301-24.757-23.466
			c-2.143-1.235-3.463-3.52-3.464-5.993c-0.001-2.473,1.319-4.759,3.46-5.995c2.142-1.236,4.781-1.236,6.922,0.002
			c12.818,6.484,23.364,16.708,30.243,29.318c1.061,2.144,0.939,4.683-0.322,6.716S269.28,293.688,266.888,293.689L266.888,293.689z
			"/>
		<path style="fill:#E95566;" d="M239.374,309.365c-1.296,0.001-2.565-0.365-3.662-1.054c-25.77-16.115-33.831-39.365-26.527-51.669
			c4.581-7.696,15.811-12.331,33.595-2.291c3.329,1.877,4.505,6.097,2.628,9.426c-1.877,3.329-6.097,4.505-9.426,2.628
			c-8.101-4.568-13.642-4.811-14.899-2.696c-2.811,4.736,2.392,20.628,21.966,32.872c2.616,1.638,3.832,4.81,2.979,7.777
			S242.461,309.367,239.374,309.365L239.374,309.365z"/>
		<path style="fill:#E95566;" d="M239.374,351.426c-1.212,0.001-2.403-0.318-3.453-0.926c-12.838-6.224-23.366-16.367-30.061-28.966
			c-1.225-2.149-1.209-4.788,0.041-6.922c1.25-2.134,3.544-3.439,6.018-3.421s4.749,1.354,5.969,3.505
			c5.465,10.472,14.237,18.846,24.953,23.818c2.714,1.566,4.038,4.761,3.225,7.787C245.253,349.327,242.508,351.43,239.374,351.426
			L239.374,351.426z"/>
		<path style="fill:#E95566;" d="M256.773,357c-7.351-0.366-14.491-2.583-20.757-6.446c-3.332-1.862-4.527-6.07-2.671-9.406
			c1.856-3.335,6.062-4.538,9.401-2.689c10.804,6.02,16.338,5,17.027,3.966c1.662-2.486-1.189-15.818-24.703-34.568
			c-1.934-1.54-2.899-3.995-2.532-6.439c0.367-2.445,2.01-4.508,4.311-5.412c2.301-0.904,4.909-0.513,6.843,1.027
			c25.007,19.939,35.831,40.777,27.574,53.095C267.931,354.75,262.462,357.342,256.773,357z"/>
		<path style="fill:#E95566;" d="M239.381,361.946c-1.835,0.001-3.596-0.728-4.894-2.025c-1.298-1.298-2.026-3.058-2.025-4.894
			V249.858c0-3.821,3.098-6.919,6.919-6.919c3.821,0,6.919,3.098,6.919,6.919v105.169c0.001,1.835-0.728,3.596-2.025,4.894
			C242.977,361.218,241.217,361.947,239.381,361.946L239.381,361.946z"/>
	</g>
</g>
<g>
</g>
<g>
</g>
<g>
</g>
<g>
</g>
<g>
</g>
<g>
</g>
<g>
</g>
<g>
</g>
<g>
</g>
<g>
</g>
<g>
</g>
<g>
</g>
<g>
</g>
<g>
</g>
<g>
</g>
</svg>
