<?xml version="1.0" encoding="iso-8859-1"?>
<!-- Generator: Adobe Illustrator 19.0.0, SVG Export Plug-In . SVG Version: 6.00 Build 0)  -->
<svg version="1.1" id="Capa_1" xmlns="http://www.w3.org/2000/svg" xmlns:xlink="http://www.w3.org/1999/xlink" x="0px" y="0px"
	 viewBox="0 0 512 512" style="enable-background:new 0 0 512 512;" xml:space="preserve">
<g>
	<polygon style="fill:#B0D2EF;" points="218.258,0 188.23,17.366 112.053,67.459 112.053,363.174 369.852,512 399.949,494.634 
		399.949,104.891 	"/>
	<polygon style="fill:#91BAE2;" points="399.949,104.891 399.949,494.634 369.852,512 369.852,122.257 	"/>
	<polygon style="fill:#A0C9D3;" points="399.949,104.891 369.852,122.257 188.23,17.366 218.258,0 	"/>
	<path style="fill:#91BAE2;" d="M188.228,17.366v80.675c0,7.403-5.258,10.378-11.762,6.642l-64.415-37.224L188.228,17.366z"/>
	<g>
		<path style="fill:#C03A2A;" d="M273.151,367.527c-1.212,0.001-2.403-0.318-3.453-0.926l-12.257-7.074
			c-2.141-1.236-3.46-3.521-3.459-5.993v-63.27c0-3.821,3.098-6.919,6.919-6.919c3.821,0,6.919,3.098,6.919,6.919v59.277
			l8.797,5.074c2.714,1.566,4.038,4.761,3.225,7.787S276.285,367.531,273.151,367.527L273.151,367.527z"/>
		<path style="fill:#C03A2A;" d="M205.746,328.608c-1.835,0.001-3.596-0.728-4.894-2.025c-1.298-1.298-2.026-3.058-2.025-4.894
			v-77.331c0-2.472,1.318-4.757,3.459-5.993c2.141-1.236,4.779-1.236,6.919,0l30.642,17.696c3.308,1.912,4.441,6.142,2.531,9.451
			c-1.91,3.309-6.14,4.444-9.45,2.536l-20.263-11.703v65.345c0.001,1.835-0.728,3.596-2.025,4.894
			C209.342,327.881,207.581,328.609,205.746,328.608z"/>
		<path style="fill:#C03A2A;" d="M230.253,300.581c-1.212,0.001-2.403-0.318-3.453-0.926l-6.128-3.541
			c-3.308-1.912-4.441-6.142-2.531-9.451c1.91-3.309,6.14-4.444,9.45-2.536l6.128,3.541c2.714,1.566,4.038,4.761,3.225,7.787
			C236.132,298.483,233.387,300.585,230.253,300.581z"/>
	</g>
</g>
<g>
</g>
<g>
</g>
<g>
</g>
<g>
</g>
<g>
</g>
<g>
</g>
<g>
</g>
<g>
</g>
<g>
</g>
<g>
</g>
<g>
</g>
<g>
</g>
<g>
</g>
<g>
</g>
<g>
</g>
</svg>
