<?xml version="1.0" encoding="iso-8859-1"?>
<!-- Generator: Adobe Illustrator 19.0.0, SVG Export Plug-In . SVG Version: 6.00 Build 0)  -->
<svg version="1.1" id="Capa_1" xmlns="http://www.w3.org/2000/svg" xmlns:xlink="http://www.w3.org/1999/xlink" x="0px" y="0px"
	 viewBox="0 0 512 512" style="enable-background:new 0 0 512 512;" xml:space="preserve">
<g>
	<polygon style="fill:#B0D2EF;" points="218.258,0 188.23,17.366 112.053,67.459 112.053,363.174 369.852,512 399.949,494.634 
		399.949,104.891 	"/>
	<polygon style="fill:#91BAE2;" points="399.949,104.891 399.949,494.634 369.852,512 369.852,122.257 	"/>
	<polygon style="fill:#A0C9D3;" points="399.949,104.891 369.852,122.257 188.23,17.366 218.258,0 	"/>
	<path style="fill:#91BAE2;" d="M188.228,17.366v80.675c0,7.403-5.258,10.378-11.762,6.642l-64.415-37.224L188.228,17.366z"/>
	<g>
		<path style="fill:#275781;" d="M185.753,304.919c-3.64-0.003-6.655-2.824-6.899-6.456c-0.244-3.632,2.367-6.831,5.974-7.321
			c6.223-0.845,7.149-7.926,7.149-12.074c-1.325-16.281-9.706-31.167-22.939-40.743v51.149c0,3.821-3.098,6.919-6.919,6.919
			s-6.919-3.098-6.919-6.919v-63.27c0-2.472,1.318-4.757,3.459-5.993s4.779-1.236,6.919,0l7.885,4.554
			c18.935,11.801,30.989,32.035,32.351,54.304c0,14.304-7.324,24.182-19.122,25.791
			C186.381,304.898,186.067,304.919,185.753,304.919z"/>
		<path style="fill:#275781;" d="M250.084,344.899c-4.15-0.096-8.201-1.28-11.75-3.432c-2.732-1.605-5.251-3.546-7.5-5.777
			c-8.665-8.432-13.794-19.848-14.345-31.926v-21.088c-0.505-7.082,2.864-13.882,8.804-17.77c6.399-3.208,14.032-2.709,19.959,1.304
			c12.953,8.289,21.093,22.336,21.845,37.696v21.088c0.503,7.08-2.862,13.878-8.797,17.77
			C255.798,344.189,252.963,344.926,250.084,344.899L250.084,344.899z M233.543,276.601c-0.463-0.021-0.923,0.077-1.338,0.284
			c-1.471,1.546-2.162,3.676-1.878,5.791v21.088c0.579,8.352,4.21,16.2,10.203,22.047l0.007,0.007
			c1.411,1.415,2.996,2.646,4.716,3.662c3.095,1.784,5.23,1.818,6.122,1.304c1.476-1.543,2.17-3.674,1.885-5.791v-21.088
			c-0.757-10.409-6.261-19.891-14.926-25.71C236.898,277.267,235.25,276.718,233.543,276.601L233.543,276.601z"/>
		<path style="fill:#275781;" d="M311.368,380.311c-4.155-0.104-8.21-1.3-11.757-3.466c-12.953-8.289-21.091-22.336-21.838-37.696
			v-21.088c-0.506-7.082,2.864-13.882,8.804-17.77c6.399-3.208,14.032-2.709,19.959,1.304c6.941,4.275,12.581,10.366,16.311,17.615
			c1.801,3.361,0.542,7.545-2.813,9.355c-3.356,1.81-7.543,0.563-9.362-2.787c-2.532-4.976-6.346-9.186-11.047-12.196
			c-3.101-1.777-5.243-1.804-6.135-1.311c-1.471,1.546-2.162,3.676-1.878,5.791v21.088c0.755,10.41,6.26,19.892,14.926,25.709
			c2.669,1.547,5.128,2.034,6.257,1.223c2.02-1.424,4.647-1.662,6.891-0.625s3.763,3.193,3.986,5.655
			c0.223,2.462-0.884,4.856-2.904,6.28C318.016,379.323,314.729,380.344,311.368,380.311z"/>
	</g>
</g>
<g>
</g>
<g>
</g>
<g>
</g>
<g>
</g>
<g>
</g>
<g>
</g>
<g>
</g>
<g>
</g>
<g>
</g>
<g>
</g>
<g>
</g>
<g>
</g>
<g>
</g>
<g>
</g>
<g>
</g>
</svg>
