<?xml version="1.0" encoding="iso-8859-1"?>
<!-- Generator: Adobe Illustrator 19.0.0, SVG Export Plug-In . SVG Version: 6.00 Build 0)  -->
<svg version="1.1" id="Capa_1" xmlns="http://www.w3.org/2000/svg" xmlns:xlink="http://www.w3.org/1999/xlink" x="0px" y="0px"
	 viewBox="0 0 512 512" style="enable-background:new 0 0 512 512;" xml:space="preserve">
<g>
	<polygon style="fill:#B0D2EF;" points="218.258,0 188.23,17.366 112.053,67.459 112.053,363.174 369.852,512 399.949,494.634 
		399.949,104.891 	"/>
	<polygon style="fill:#91BAE2;" points="399.949,104.891 399.949,494.634 369.852,512 369.852,122.257 	"/>
	<polygon style="fill:#A0C9D3;" points="399.949,104.891 369.852,122.257 188.23,17.366 218.258,0 	"/>
	<path style="fill:#91BAE2;" d="M188.228,17.366v80.675c0,7.403-5.258,10.378-11.762,6.642l-64.415-37.224L188.228,17.366z"/>
	<g>
		<path style="fill:#E57D25;" d="M167.442,302.095c-1.835,0.001-3.596-0.728-4.894-2.025c-1.298-1.298-2.026-3.058-2.025-4.894
			v-63.27c0-3.821,3.098-6.919,6.919-6.919s6.919,3.098,6.919,6.919v63.27c0.001,1.835-0.728,3.596-2.025,4.894
			C171.038,301.367,169.277,302.096,167.442,302.095L167.442,302.095z"/>
		<path style="fill:#E57D25;" d="M189.233,284.088c-0.976-0.003-1.95-0.089-2.912-0.257c-3.765-0.649-6.291-4.228-5.642-7.993
			s4.228-6.291,7.993-5.642c0.35,0.093,0.72,0.077,1.061-0.047c0.714-1.062,1.024-2.344,0.872-3.615
			c-0.586-8.078-4.858-15.437-11.581-19.953l-4.662-2.696v22.527c0,3.821-3.098,6.919-6.919,6.919s-6.919-3.098-6.919-6.919v-34.507
			c0-2.472,1.318-4.757,3.459-5.993c2.141-1.236,4.779-1.236,6.919,0l15.041,8.682c10.973,7.025,17.866,18.926,18.5,31.939
			c0.271,5.36-1.853,10.563-5.797,14.203C196.005,282.937,192.669,284.125,189.233,284.088L189.233,284.088z"/>
		<path style="fill:#E57D25;" d="M222.597,333.939c-1.835,0.001-3.596-0.728-4.894-2.025c-1.298-1.298-2.026-3.058-2.025-4.894
			v-63.27c0-3.821,3.098-6.919,6.919-6.919s6.919,3.098,6.919,6.919v63.27c0.001,1.835-0.728,3.596-2.025,4.894
			C226.193,333.212,224.433,333.94,222.597,333.939L222.597,333.939z"/>
		<path style="fill:#E57D25;" d="M244.395,315.932c-0.976-0.003-1.95-0.089-2.912-0.257c-3.765-0.649-6.291-4.228-5.642-7.993
			c0.649-3.765,4.228-6.291,7.993-5.642c0.347,0.101,0.718,0.084,1.054-0.047c0.717-1.061,1.029-2.344,0.879-3.615
			c-0.587-8.076-4.858-15.433-11.581-19.946l-4.669-2.696v22.527c0,3.821-3.098,6.919-6.919,6.919s-6.919-3.098-6.919-6.919V263.75
			c0-2.472,1.318-4.757,3.459-5.993c2.141-1.236,4.779-1.236,6.919,0l15.04,8.689c10.979,7.017,17.877,18.918,18.507,31.932
			c0.271,5.36-1.853,10.563-5.797,14.203C251.168,314.781,247.831,315.97,244.395,315.932L244.395,315.932z"/>
		<path style="fill:#E57D25;" d="M311.456,321.973c-1.212,0.001-2.403-0.318-3.453-0.926l-36.77-21.23
			c-3.308-1.912-4.441-6.142-2.531-9.451s6.14-4.444,9.45-2.536l36.77,21.23c2.714,1.566,4.038,4.761,3.225,7.787
			C317.334,319.875,314.589,321.978,311.456,321.973L311.456,321.973z"/>
		<path style="fill:#E57D25;" d="M293.077,374.628c-1.835,0.001-3.596-0.728-4.894-2.025c-1.298-1.298-2.026-3.058-2.025-4.894
			v-63.27c0-3.821,3.098-6.919,6.919-6.919c3.821,0,6.919,3.098,6.919,6.919v63.27c0.001,1.835-0.728,3.596-2.025,4.893
			C296.673,373.901,294.912,374.629,293.077,374.628z"/>
	</g>
</g>
<g>
</g>
<g>
</g>
<g>
</g>
<g>
</g>
<g>
</g>
<g>
</g>
<g>
</g>
<g>
</g>
<g>
</g>
<g>
</g>
<g>
</g>
<g>
</g>
<g>
</g>
<g>
</g>
<g>
</g>
</svg>
