<?xml version="1.0" encoding="iso-8859-1"?>
<!-- Generator: Adobe Illustrator 19.0.0, SVG Export Plug-In . SVG Version: 6.00 Build 0)  -->
<svg version="1.1" id="Capa_1" xmlns="http://www.w3.org/2000/svg" xmlns:xlink="http://www.w3.org/1999/xlink" x="0px" y="0px"
	 viewBox="0 0 512 512" style="enable-background:new 0 0 512 512;" xml:space="preserve">
<g>
	<polygon style="fill:#B0D2EF;" points="218.258,0 188.23,17.366 112.053,67.459 112.053,363.174 369.852,512 399.949,494.634 
		399.949,104.891 	"/>
	<polygon style="fill:#91BAE2;" points="399.949,104.891 399.949,494.634 369.852,512 369.852,122.257 	"/>
	<polygon style="fill:#A0C9D3;" points="399.949,104.891 369.852,122.257 188.23,17.366 218.258,0 	"/>
	<path style="fill:#91BAE2;" d="M188.228,17.366v80.675c0,7.403-5.258,10.378-11.762,6.642l-64.415-37.224L188.228,17.366z"/>
	<g>
		<path style="fill:#2CAA60;" d="M289.631,336.568c-2.373,0.004-4.583-1.211-5.851-3.216c-4.517-6.294-6.148-14.21-4.487-21.777
			c1.128-3.872,3.925-7.039,7.628-8.635c8.878-3.743,21.277,2.432,28.851,14.398c1.342,2.089,1.463,4.736,0.316,6.938
			s-3.386,3.62-5.867,3.717c-2.481,0.097-4.823-1.143-6.138-3.249c-4.405-6.946-10.371-9.547-11.77-9.061
			c-0.175,3.684,0.941,7.314,3.155,10.264c1.349,2.13,1.433,4.826,0.219,7.035C294.473,335.191,292.152,336.565,289.631,336.568
			L289.631,336.568z"/>
		<path style="fill:#2CAA60;" d="M302.834,380.919c-9.819-1.05-18.506-6.833-23.264-15.486c-1.326-2.088-1.437-4.726-0.29-6.917
			c1.147-2.192,3.377-3.604,5.848-3.705c2.472-0.101,4.809,1.126,6.131,3.217c4.399,6.939,10.365,9.534,11.777,9.054
			c0.171-3.682-0.945-7.308-3.155-10.257c-1.359-2.089-1.49-4.747-0.342-6.959c1.147-2.212,3.395-3.636,5.885-3.729
			s4.838,1.161,6.146,3.282c4.514,6.293,6.144,14.206,4.487,21.77c-1.127,3.872-3.925,7.039-7.628,8.635
			C306.657,380.563,304.754,380.936,302.834,380.919L302.834,380.919z"/>
		<path style="fill:#2CAA60;" d="M211.881,330.399c-2.648,0.005-5.065-1.504-6.223-3.885l-9.547-19.581
			c-1.676-3.433-0.251-7.575,3.182-9.25c3.433-1.676,7.575-0.251,9.25,3.182l9.547,19.581c1.045,2.143,0.913,4.673-0.349,6.695
			S214.265,330.394,211.881,330.399L211.881,330.399z"/>
		<path style="fill:#2CAA60;" d="M178.503,261.899c-2.648,0.005-5.065-1.504-6.223-3.885l-9.527-19.534
			c-1.676-3.433-0.251-7.575,3.182-9.25c3.433-1.676,7.575-0.251,9.25,3.182l9.527,19.534c1.045,2.143,0.913,4.673-0.349,6.695
			C183.101,260.664,180.887,261.894,178.503,261.899L178.503,261.899z"/>
		<path style="fill:#2CAA60;" d="M168.969,305.628c-2.866,0-5.436-1.768-6.461-4.444c-1.025-2.677-0.294-5.708,1.839-7.623
			l42.905-38.493c2.848-2.515,7.191-2.264,9.729,0.564c2.538,2.828,2.321,7.173-0.486,9.733l-42.905,38.493
			C172.323,305.001,170.676,305.632,168.969,305.628L168.969,305.628z"/>
		<path style="fill:#2CAA60;" d="M260.895,358.703c-1.212,0.001-2.403-0.318-3.453-0.926l-24.514-14.149
			c-2.141-1.236-3.46-3.521-3.459-5.993v-63.27c0-3.821,3.098-6.919,6.919-6.919s6.919,3.098,6.919,6.919v59.277l21.054,12.149
			c2.714,1.566,4.038,4.761,3.225,7.787S264.028,358.707,260.895,358.703z"/>
	</g>
</g>
<g>
</g>
<g>
</g>
<g>
</g>
<g>
</g>
<g>
</g>
<g>
</g>
<g>
</g>
<g>
</g>
<g>
</g>
<g>
</g>
<g>
</g>
<g>
</g>
<g>
</g>
<g>
</g>
<g>
</g>
</svg>
