<?xml version="1.0" encoding="iso-8859-1"?>
<!-- Generator: Adobe Illustrator 19.0.0, SVG Export Plug-In . SVG Version: 6.00 Build 0)  -->
<svg version="1.1" id="Capa_1" xmlns="http://www.w3.org/2000/svg" xmlns:xlink="http://www.w3.org/1999/xlink" x="0px" y="0px"
	 viewBox="0 0 512 512" style="enable-background:new 0 0 512 512;" xml:space="preserve">
<g>
	<polygon style="fill:#B0D2EF;" points="218.258,0 188.23,17.366 112.053,67.459 112.053,363.174 369.852,512 399.949,494.634 
		399.949,104.891 	"/>
	<polygon style="fill:#91BAE2;" points="399.949,104.891 399.949,494.634 369.852,512 369.852,122.257 	"/>
	<polygon style="fill:#A0C9D3;" points="399.949,104.891 369.852,122.257 188.23,17.366 218.258,0 	"/>
	<path style="fill:#91BAE2;" d="M188.228,17.366v80.675c0,7.403-5.258,10.378-11.762,6.642l-64.415-37.224L188.228,17.366z"/>
	<path style="fill:#FFFFFF;" d="M306.868,308.98c-1.835,0.001-3.596-0.728-4.894-2.025c-1.298-1.298-2.026-3.058-2.025-4.894
		v-44.987c-0.955-14.721-8.746-28.145-21.054-36.277c-2.974-2.299-6.909-2.94-10.459-1.703c-2.788,2.393-4.174,6.035-3.682,9.676
		v55.905c0,3.821-3.098,6.919-6.919,6.919c-3.821,0-6.919-3.098-6.919-6.919V228.77c-1.183-8.753,3.059-17.349,10.727-21.735
		s17.228-3.683,24.172,1.775c16.587,10.611,27.011,28.596,27.973,48.263v44.987c0.001,1.835-0.728,3.596-2.026,4.894
		C310.464,308.252,308.703,308.981,306.868,308.98L306.868,308.98z"/>
	<path style="fill:#F0C41A;" d="M172.036,284.675c0,38.811,27.45,86.144,61.286,105.68s61.286,3.898,61.286-34.912
		c-1.171-26.1-10.161-51.246-25.805-72.171c-3.904-5.489-8.217-10.675-12.902-15.515c-6.651-7.021-14.251-13.077-22.579-17.994
		c-6.901-4.196-14.583-6.945-22.579-8.078c-4.302-0.589-8.676-0.38-12.902,0.616C182.229,245.978,172.036,261.033,172.036,284.675z"
		/>
	<path style="fill:#E57D25;" d="M208.808,290.708c0.618,11.213,4.927,21.906,12.257,30.414v23.878
		c0.591,8.412,5.14,16.044,12.257,20.567c6.741,3.892,12.257,1.006,12.257-6.413v-23.878c7.354-0.408,12.257-6.278,12.257-16.261
		c-1.148-16.835-10.254-32.114-24.514-41.133C219.778,270.061,208.808,275.801,208.808,290.708z"/>
</g>
<g>
</g>
<g>
</g>
<g>
</g>
<g>
</g>
<g>
</g>
<g>
</g>
<g>
</g>
<g>
</g>
<g>
</g>
<g>
</g>
<g>
</g>
<g>
</g>
<g>
</g>
<g>
</g>
<g>
</g>
</svg>
