<?xml version="1.0" encoding="iso-8859-1"?>
<!-- Generator: Adobe Illustrator 19.0.0, SVG Export Plug-In . SVG Version: 6.00 Build 0)  -->
<svg version="1.1" id="Capa_1" xmlns="http://www.w3.org/2000/svg" xmlns:xlink="http://www.w3.org/1999/xlink" x="0px" y="0px"
	 viewBox="0 0 512 512" style="enable-background:new 0 0 512 512;" xml:space="preserve">
<g>
	<polygon style="fill:#B0D2EF;" points="218.258,0 188.23,17.366 112.053,67.459 112.053,363.174 369.852,512 399.949,494.634 
		399.949,104.891 	"/>
	<polygon style="fill:#91BAE2;" points="399.949,104.891 399.949,494.634 369.852,512 369.852,122.257 	"/>
	<polygon style="fill:#A0C9D3;" points="399.949,104.891 369.852,122.257 188.23,17.366 218.258,0 	"/>
	<path style="fill:#91BAE2;" d="M188.228,17.366v80.675c0,7.403-5.258,10.378-11.762,6.642l-64.415-37.224L188.228,17.366z"/>
	<path style="fill:#E95566;" d="M184.293,247.119c0.052,4.756,0.806,9.479,2.238,14.015l0.914,2.346l49.657,92.674
		c1.253,2.338,3.445,3.604,4.698,2.712l49.657-35.336l0.914-1.29c1.577-3.6,2.341-7.503,2.238-11.431
		c-0.052-4.756-0.806-9.479-2.238-14.015c-3.017-9.728-8.176-18.657-15.098-26.129c-3.217-3.509-6.934-6.525-11.031-8.95
		c-3.355-2.056-7.121-3.349-11.032-3.788c-3.121-0.378-6.281,0.257-9.014,1.812c-2.956,2.004-5.292,4.795-6.746,8.057l0,0
		c-1.693-5.501-3.953-10.812-6.745-15.845c-2.515-4.413-5.54-8.515-9.014-12.22c-3.217-3.509-6.934-6.525-11.032-8.95
		c-3.355-2.056-7.121-3.349-11.031-3.788c-6.413-0.813-12.583,2.741-15.097,8.696C184.955,239.288,184.19,243.191,184.293,247.119z"
		/>
</g>
<g>
</g>
<g>
</g>
<g>
</g>
<g>
</g>
<g>
</g>
<g>
</g>
<g>
</g>
<g>
</g>
<g>
</g>
<g>
</g>
<g>
</g>
<g>
</g>
<g>
</g>
<g>
</g>
<g>
</g>
</svg>
