<?xml version="1.0" encoding="iso-8859-1"?>
<!-- Generator: Adobe Illustrator 19.0.0, SVG Export Plug-In . SVG Version: 6.00 Build 0)  -->
<svg version="1.1" id="Capa_1" xmlns="http://www.w3.org/2000/svg" xmlns:xlink="http://www.w3.org/1999/xlink" x="0px" y="0px"
	 viewBox="0 0 512 512" style="enable-background:new 0 0 512 512;" xml:space="preserve">
<g>
	<polygon style="fill:#B0D2EF;" points="218.258,0 188.23,17.366 112.053,67.459 112.053,363.174 369.852,512 399.949,494.634 
		399.949,104.891 	"/>
	<polygon style="fill:#91BAE2;" points="399.949,104.891 399.949,494.634 369.852,512 369.852,122.257 	"/>
	<polygon style="fill:#A0C9D3;" points="399.949,104.891 369.852,122.257 188.23,17.366 218.258,0 	"/>
	<path style="fill:#91BAE2;" d="M188.228,17.366v80.675c0,7.403-5.258,10.378-11.762,6.642l-64.415-37.224L188.228,17.366z"/>
	<path style="fill:#F39D23;" d="M239.451,278.53v64.202c0,2.971,3.072,6.265,4.966,5.331c6.385-1.984,13.333-0.802,18.703,3.181
		c7.635,4.532,14.053,10.852,18.703,18.416c1.894,3.12,4.966,3.374,4.966,0.403v-64.202c0-10.875-10.6-25.803-23.669-33.348
		C250.051,264.967,239.451,267.655,239.451,278.53z"/>
	<path style="fill:#F0C41A;" d="M192.113,251.2v64.202c0,2.971,3.072,6.265,4.966,5.331c6.385-1.984,13.333-0.802,18.703,3.181
		c7.635,4.532,14.053,10.853,18.703,18.416c1.894,3.12,4.966,3.374,4.966,0.403V278.53c0-10.875-10.6-25.803-23.669-33.348
		C202.713,237.637,192.113,240.325,192.113,251.2z"/>
</g>
<g>
</g>
<g>
</g>
<g>
</g>
<g>
</g>
<g>
</g>
<g>
</g>
<g>
</g>
<g>
</g>
<g>
</g>
<g>
</g>
<g>
</g>
<g>
</g>
<g>
</g>
<g>
</g>
<g>
</g>
</svg>
