<?xml version="1.0" encoding="iso-8859-1"?>
<!-- Generator: Adobe Illustrator 19.0.0, SVG Export Plug-In . SVG Version: 6.00 Build 0)  -->
<svg version="1.1" id="Capa_1" xmlns="http://www.w3.org/2000/svg" xmlns:xlink="http://www.w3.org/1999/xlink" x="0px" y="0px"
	 viewBox="0 0 512 512" style="enable-background:new 0 0 512 512;" xml:space="preserve">
<g>
	<polygon style="fill:#B0D2EF;" points="218.258,0 188.23,17.366 112.053,67.459 112.053,363.174 369.852,512 399.949,494.634 
		399.949,104.891 	"/>
	<polygon style="fill:#91BAE2;" points="399.949,104.891 399.949,494.634 369.852,512 369.852,122.257 	"/>
	<polygon style="fill:#A0C9D3;" points="399.949,104.891 369.852,122.257 188.23,17.366 218.258,0 	"/>
	<path style="fill:#91BAE2;" d="M188.228,17.366v80.675c0,7.403-5.258,10.378-11.762,6.642l-64.415-37.224L188.228,17.366z"/>
	<path style="fill:#E57D25;" d="M234.876,235.972l-11.339,4.097l-28.469,10.269l-21.351-12.327c-2.61-1.507-4.745-0.264-4.745,2.761
		v38.505c0.184,3.344,1.945,6.403,4.745,8.24l21.351,12.327l28.469,43.142l11.339,17.191c3.132,4.614,7.639,4.631,7.639,0.065
		V244.728C242.515,240.163,238.008,234.975,234.876,235.972z"/>
	<g>
		<path style="fill:#E74C3C;" d="M269.834,354.135c-0.419,0-0.838-0.007-1.264-0.027c-3.795-0.218-6.704-3.457-6.515-7.254
			s3.406-6.73,7.204-6.57c2.102,0.252,4.208-0.441,5.75-1.892c2.582-3.111,3.835-7.114,3.487-11.142
			c-0.768-12.809-5.968-24.951-14.71-34.345c-2.551-2.834-2.327-7.197,0.499-9.756c2.827-2.559,7.191-2.347,9.757,0.472
			c11.068,11.92,17.549,27.379,18.291,43.628c0.447,7.829-2.372,15.494-7.784,21.169
			C280.582,352.179,275.299,354.231,269.834,354.135L269.834,354.135z"/>
		<path style="fill:#E74C3C;" d="M280.01,386.655c-0.696,0-1.399-0.02-2.101-0.054c-3.795-0.218-6.704-3.457-6.515-7.254
			c0.189-3.797,3.406-6.73,7.204-6.57c5.778,0.571,11.52-1.388,15.743-5.372c6.249-7.159,9.371-16.523,8.669-26
			c-1.499-26.169-12.066-50.999-29.885-70.223c-1.661-1.832-2.218-4.411-1.461-6.765c0.757-2.354,2.714-4.125,5.131-4.645
			c2.418-0.52,4.929,0.291,6.587,2.126c20.202,21.714,32.059,49.882,33.466,79.506c0.833,13.285-3.862,26.323-12.973,36.027
			C297.434,383.513,288.866,386.825,280.01,386.655L280.01,386.655z"/>
	</g>
</g>
<g>
</g>
<g>
</g>
<g>
</g>
<g>
</g>
<g>
</g>
<g>
</g>
<g>
</g>
<g>
</g>
<g>
</g>
<g>
</g>
<g>
</g>
<g>
</g>
<g>
</g>
<g>
</g>
<g>
</g>
</svg>
