<?xml version="1.0" encoding="iso-8859-1"?>
<!-- Generator: Adobe Illustrator 19.0.0, SVG Export Plug-In . SVG Version: 6.00 Build 0)  -->
<svg version="1.1" id="Capa_1" xmlns="http://www.w3.org/2000/svg" xmlns:xlink="http://www.w3.org/1999/xlink" x="0px" y="0px"
	 viewBox="0 0 512 512" style="enable-background:new 0 0 512 512;" xml:space="preserve">
<g>
	<polygon style="fill:#B0D2EF;" points="218.258,0 188.23,17.366 112.053,67.459 112.053,363.174 369.852,512 399.949,494.634 
		399.949,104.891 	"/>
	<polygon style="fill:#91BAE2;" points="399.949,104.891 399.949,494.634 369.852,512 369.852,122.257 	"/>
	<polygon style="fill:#A0C9D3;" points="399.949,104.891 369.852,122.257 188.23,17.366 218.258,0 	"/>
	<path style="fill:#91BAE2;" d="M188.228,17.366v80.675c0,7.403-5.258,10.378-11.762,6.642l-64.415-37.224L188.228,17.366z"/>
	<path style="fill:#5F6062;" d="M288.319,319.086c-6.387-6.293-9.409-16.407-6.499-21.749c4.621-8.484-5.521-25.974-15.243-26.285
		c-6.122-0.196-13.419-7.875-15.69-16.513c-3.607-13.716-17.95-21.997-21.557-12.446c-2.271,6.015-9.567,5.269-15.69-1.604
		c-9.722-10.914-19.865-5.136-15.243,8.684c2.91,8.703-0.112,15.327-6.499,14.245c-10.142-1.719-10.142,14.734,0,24.727v0
		c6.387,6.293,9.409,16.406,6.499,21.749c-4.622,8.483,5.521,25.973,15.243,26.285c6.122,0.197,13.418,7.875,15.69,16.513
		c3.579,11.599,17.59,19.886,21.557,12.446c2.272-6.015,9.568-5.269,15.69,1.604c9.722,10.914,19.864,5.136,15.243-8.684
		c-2.911-8.703,0.111-15.327,6.499-14.245C296.755,344.112,296.659,327.58,288.319,319.086z M239.431,323.554
		c-10.823-7.026-17.646-18.792-18.369-31.676c0-11.637,8.224-16.322,18.369-10.465c10.823,7.026,17.646,18.792,18.369,31.676
		C257.8,324.726,249.576,329.411,239.431,323.554z"/>
</g>
<g>
</g>
<g>
</g>
<g>
</g>
<g>
</g>
<g>
</g>
<g>
</g>
<g>
</g>
<g>
</g>
<g>
</g>
<g>
</g>
<g>
</g>
<g>
</g>
<g>
</g>
<g>
</g>
<g>
</g>
</svg>
