<?xml version="1.0" encoding="iso-8859-1"?>
<!-- Generator: Adobe Illustrator 19.0.0, SVG Export Plug-In . SVG Version: 6.00 Build 0)  -->
<svg version="1.1" id="Capa_1" xmlns="http://www.w3.org/2000/svg" xmlns:xlink="http://www.w3.org/1999/xlink" x="0px" y="0px"
	 viewBox="0 0 512 512" style="enable-background:new 0 0 512 512;" xml:space="preserve">
<g>
	<polygon style="fill:#B0D2EF;" points="218.258,0 188.23,17.366 112.053,67.459 112.053,363.174 369.852,512 399.949,494.634 
		399.949,104.891 	"/>
	<polygon style="fill:#91BAE2;" points="399.949,104.891 399.949,494.634 369.852,512 369.852,122.257 	"/>
	<polygon style="fill:#A0C9D3;" points="399.949,104.891 369.852,122.257 188.23,17.366 218.258,0 	"/>
	<path style="fill:#91BAE2;" d="M188.228,17.366v80.675c0,7.403-5.258,10.378-11.762,6.642l-64.415-37.224L188.228,17.366z"/>
	<g>
		<path style="fill:#C03A2A;" d="M202.685,317.831c-2.268,0.004-4.394-1.104-5.689-2.966l-24.514-35.243
			c-1.276-1.837-1.585-4.176-0.832-6.281s2.478-3.717,4.629-4.327l24.514-6.933c3.676-1.041,7.499,1.095,8.541,4.77
			c1.041,3.676-1.095,7.499-4.77,8.541l-15.176,4.291l18.973,27.277c1.472,2.114,1.648,4.871,0.456,7.155
			C207.624,316.398,205.262,317.83,202.685,317.831L202.685,317.831z"/>
		<path style="fill:#C03A2A;" d="M276.219,360.291c-3.451-0.004-6.372-2.551-6.845-5.97c-0.473-3.419,1.646-6.663,4.966-7.604
			l15.176-4.297l-18.973-27.27c-2.183-3.138-1.409-7.452,1.73-9.635c3.138-2.183,7.452-1.409,9.635,1.73l24.514,35.236
			c1.276,1.837,1.586,4.176,0.832,6.282c-0.754,2.105-2.478,3.717-4.629,4.327l-24.514,6.939
			C277.496,360.204,276.859,360.293,276.219,360.291z"/>
		<path style="fill:#C03A2A;" d="M237.469,326.824c-1.835,0.001-3.596-0.728-4.894-2.025c-1.298-1.298-2.026-3.058-2.025-4.894v-10
			c0-2.416,1.26-4.657,3.324-5.912l12.155-7.399c0.196-0.149,0.743-1.041,0.743-3.169c-0.549-7.516-4.526-14.361-10.784-18.561
			c-0.918-0.692-2.047-1.045-3.196-1c-0.543,0.945-0.775,2.037-0.662,3.122c0,3.821-3.098,6.919-6.919,6.919
			s-6.919-3.098-6.919-6.919c-0.701-6.129,2.312-12.087,7.664-15.155c5.352-3.068,12.017-2.656,16.951,1.047
			c10.498,6.716,17.094,18.099,17.703,30.547c0.387,5.982-2.456,11.715-7.453,15.027l-8.77,5.338v6.115
			c0.001,1.835-0.727,3.596-2.025,4.894S239.304,326.825,237.469,326.824L237.469,326.824z"/>
		<path style="fill:#C03A2A;" d="M237.489,345.392c-0.926-0.004-1.843-0.193-2.696-0.554c-0.843-0.334-1.601-0.854-2.216-1.52
			c-0.645-0.634-1.161-1.386-1.52-2.216c-0.336-0.835-0.502-1.729-0.486-2.628c-0.007-1.838,0.714-3.605,2.006-4.912
			c2.748-2.561,7.009-2.561,9.757,0c1.308,1.303,2.053,3.066,2.074,4.912c-0.011,0.904-0.199,1.797-0.554,2.628
			c-0.738,1.666-2.07,2.998-3.736,3.736C239.286,345.192,238.393,345.381,237.489,345.392z"/>
	</g>
</g>
<g>
</g>
<g>
</g>
<g>
</g>
<g>
</g>
<g>
</g>
<g>
</g>
<g>
</g>
<g>
</g>
<g>
</g>
<g>
</g>
<g>
</g>
<g>
</g>
<g>
</g>
<g>
</g>
<g>
</g>
</svg>
