<?xml version="1.0" encoding="iso-8859-1"?>
<!-- Generator: Adobe Illustrator 19.0.0, SVG Export Plug-In . SVG Version: 6.00 Build 0)  -->
<svg version="1.1" id="Capa_1" xmlns="http://www.w3.org/2000/svg" xmlns:xlink="http://www.w3.org/1999/xlink" x="0px" y="0px"
	 viewBox="0 0 512 512" style="enable-background:new 0 0 512 512;" xml:space="preserve">
<g>
	<polygon style="fill:#B0D2EF;" points="218.258,0 188.23,17.366 112.053,67.459 112.053,363.174 369.852,512 399.949,494.634 
		399.949,104.891 	"/>
	<polygon style="fill:#91BAE2;" points="399.949,104.891 399.949,494.634 369.852,512 369.852,122.257 	"/>
	<polygon style="fill:#A0C9D3;" points="399.949,104.891 369.852,122.257 188.23,17.366 218.258,0 	"/>
	<path style="fill:#91BAE2;" d="M188.228,17.366v80.675c0,7.403-5.258,10.378-11.762,6.642l-64.415-37.224L188.228,17.366z"/>
	<g>
		<path style="fill:#3B96D3;" d="M230.785,307.424l-0.003-0.005"/>
		<path style="fill:#3B96D3;" d="M252.199,330.507c-11.874-1.449-22.196-8.837-27.399-19.608c-1.241-2.139-1.246-4.777-0.014-6.921
			s3.514-3.468,5.987-3.473c2.473-0.005,4.76,1.309,6.001,3.448c5.919,10.209,14.108,13.919,16.588,12.466l21.662-12.345
			c0.768-0.619,1.293-1.491,1.48-2.459c0.913-6.254-0.527-12.625-4.041-17.878c-5.912-10.216-14.061-13.905-16.588-12.473
			l-4.324,2.466c-3.317,1.896-7.544,0.743-9.439-2.574c-1.896-3.317-0.743-7.544,2.574-9.439l4.331-2.473
			c10.635-6.068,26.203,1.642,35.419,17.547c5.388,8.428,7.331,18.605,5.426,28.426c-1.07,4.564-3.954,8.494-7.987,10.885
			l-21.662,12.345C257.768,329.823,255.004,330.534,252.199,330.507L252.199,330.507z"/>
		<path style="fill:#3B96D3;" d="M221.861,347.791c-11.876-1.45-22.199-8.84-27.399-19.615c-5.383-8.433-7.325-18.61-5.426-28.432
			c1.077-4.559,3.96-8.485,7.987-10.878l21.669-12.338c10.628-6.061,26.182,1.635,35.412,17.547c1.25,2.139,1.261,4.784,0.029,6.933
			c-1.232,2.15-3.519,3.477-5.997,3.479c-2.478,0.003-4.768-1.32-6.005-3.467c-5.926-10.223-14.128-13.892-16.588-12.466
			l-21.669,12.338c-0.768,0.618-1.29,1.491-1.473,2.459c-0.916,6.253,0.522,12.624,4.034,17.878
			c5.926,10.237,14.135,13.878,16.588,12.473l4.324-2.466c3.317-1.896,7.544-0.743,9.439,2.574c1.896,3.317,0.743,7.544-2.574,9.439
			l-4.331,2.473C227.436,347.106,224.67,347.819,221.861,347.791L221.861,347.791z"/>
	</g>
</g>
<g>
</g>
<g>
</g>
<g>
</g>
<g>
</g>
<g>
</g>
<g>
</g>
<g>
</g>
<g>
</g>
<g>
</g>
<g>
</g>
<g>
</g>
<g>
</g>
<g>
</g>
<g>
</g>
<g>
</g>
</svg>
