<?xml version="1.0" encoding="iso-8859-1"?>
<!-- Generator: Adobe Illustrator 19.0.0, SVG Export Plug-In . SVG Version: 6.00 Build 0)  -->
<svg version="1.1" id="Capa_1" xmlns="http://www.w3.org/2000/svg" xmlns:xlink="http://www.w3.org/1999/xlink" x="0px" y="0px"
	 viewBox="0 0 512 512" style="enable-background:new 0 0 512 512;" xml:space="preserve">
<g>
	<polygon style="fill:#B0D2EF;" points="218.258,0 188.23,17.366 112.053,67.459 112.053,363.174 369.852,512 399.949,494.634 
		399.949,104.891 	"/>
	<polygon style="fill:#91BAE2;" points="399.949,104.891 399.949,494.634 369.852,512 369.852,122.257 	"/>
	<polygon style="fill:#A0C9D3;" points="399.949,104.891 369.852,122.257 188.23,17.366 218.258,0 	"/>
	<path style="fill:#91BAE2;" d="M188.228,17.366v80.675c0,7.403-5.258,10.378-11.762,6.642l-64.415-37.224L188.228,17.366z"/>
	<path style="fill:#3D314B;" d="M294.841,366.764l-0.014-70.02c-0.002-1.325-0.384-2.622-1.101-3.736
		c-4.779-7.349-11.188-13.497-18.73-17.966c-6.775-4.836-15.49-6.043-23.324-3.23c-1.074,0.52-4.676,0.622-10.453-2.71
		c-3.972-2.346-7.531-5.329-10.534-8.831c-1.895-2.187-4.952-2.963-7.661-1.946c-2.709,1.017-4.5,3.613-4.488,6.507l0.008,50.666
		c-2.061-2.062-4.367-3.863-6.867-5.362c-5.69-3.847-13.016-4.315-19.149-1.223c-5.704,3.721-8.944,10.24-8.466,17.034
		c0.71,14.554,8.422,27.863,20.696,35.716c3.393,2.061,7.268,3.193,11.236,3.284c2.773,0.026,5.504-0.685,7.912-2.061
		c5.495-3.584,8.688-9.804,8.396-16.358h0.084v-66.609c0.635,0.405,1.27,0.797,1.912,1.169c6.772,4.825,15.477,6.029,23.304,3.223
		c1.115-0.514,4.696-0.608,10.473,2.716c5.079,3.018,9.478,7.055,12.919,11.858L281,338.059c-2.058-2.059-4.36-3.857-6.855-5.356
		c-5.521-4.222-13.035-4.722-19.066-1.268s-9.403,10.187-8.556,17.085c0.717,14.554,8.43,27.861,20.703,35.716
		c3.393,2.06,7.268,3.192,11.236,3.284c2.774,0.024,5.505-0.69,7.913-2.067c5.703-3.719,8.943-10.236,8.466-17.027
		c0-0.544-0.106-1.111-0.135-1.662L294.841,366.764z M216.99,350.905c-0.804,0.459-2.75,0.257-5.311-1.23
		c-7.997-5.37-13.078-14.122-13.777-23.73c0-2.871,0.777-4.608,1.547-5.054c0.319-0.157,0.672-0.231,1.027-0.216
		c1.526,0.116,2.999,0.613,4.284,1.446c7.997,5.37,13.078,14.122,13.777,23.73C218.537,348.723,217.76,350.459,216.99,350.905
		L216.99,350.905z M279.456,373.473c-0.797,0.466-2.736,0.27-5.311-1.223c-7.998-5.37-13.082-14.121-13.784-23.73
		c0-2.871,0.777-4.608,1.554-5.054c0.321-0.157,0.677-0.232,1.034-0.216c1.523,0.117,2.993,0.612,4.277,1.439
		c7.997,5.373,13.078,14.127,13.777,23.736C281.003,371.297,280.226,373.027,279.456,373.473z"/>
</g>
<g>
</g>
<g>
</g>
<g>
</g>
<g>
</g>
<g>
</g>
<g>
</g>
<g>
</g>
<g>
</g>
<g>
</g>
<g>
</g>
<g>
</g>
<g>
</g>
<g>
</g>
<g>
</g>
<g>
</g>
</svg>
