<?xml version="1.0" encoding="iso-8859-1"?>
<!-- Generator: Adobe Illustrator 19.0.0, SVG Export Plug-In . SVG Version: 6.00 Build 0)  -->
<svg version="1.1" id="Capa_1" xmlns="http://www.w3.org/2000/svg" xmlns:xlink="http://www.w3.org/1999/xlink" x="0px" y="0px"
	 viewBox="0 0 512 512" style="enable-background:new 0 0 512 512;" xml:space="preserve">
<g>
	<polygon style="fill:#B0D2EF;" points="218.258,0 188.23,17.366 112.053,67.459 112.053,363.174 369.852,512 399.949,494.634 
		399.949,104.891 	"/>
	<polygon style="fill:#91BAE2;" points="399.949,104.891 399.949,494.634 369.852,512 369.852,122.257 	"/>
	<polygon style="fill:#A0C9D3;" points="399.949,104.891 369.852,122.257 188.23,17.366 218.258,0 	"/>
	<path style="fill:#91BAE2;" d="M188.228,17.366v80.675c0,7.403-5.258,10.378-11.762,6.642l-64.415-37.224L188.228,17.366z"/>
	<path style="fill:#FFFFFF;" d="M197.176,266.521c0.245-22.644,15.204-32.388,33.643-21.743
		c13.487,8.896,23.667,21.989,28.966,37.251c2.269,0.429,4.444,1.254,6.426,2.437c10.847,7.371,18.166,18.896,20.227,31.847
		c8.694,10.129,13.731,22.887,14.3,36.223c0,17.066-11.267,24.519-25.033,16.571l-51.788-29.9c-0.293-0.169-0.577-0.374-0.865-0.552
		c-0.288-0.155-0.572-0.278-0.86-0.445l-20.718-11.961c-14.043-9.619-22.692-25.328-23.308-42.339
		C178.165,269.845,186.394,262.815,197.176,266.521z"/>
</g>
<g>
</g>
<g>
</g>
<g>
</g>
<g>
</g>
<g>
</g>
<g>
</g>
<g>
</g>
<g>
</g>
<g>
</g>
<g>
</g>
<g>
</g>
<g>
</g>
<g>
</g>
<g>
</g>
<g>
</g>
</svg>
