<?xml version="1.0" encoding="iso-8859-1"?>
<!-- Generator: Adobe Illustrator 19.0.0, SVG Export Plug-In . SVG Version: 6.00 Build 0)  -->
<svg version="1.1" id="Capa_1" xmlns="http://www.w3.org/2000/svg" xmlns:xlink="http://www.w3.org/1999/xlink" x="0px" y="0px"
	 viewBox="0 0 512 512" style="enable-background:new 0 0 512 512;" xml:space="preserve">
<g>
	<polygon style="fill:#CC66A2;" points="218.258,0 188.23,17.366 112.053,67.459 112.053,363.174 369.852,512 399.949,494.634 
		399.949,104.891 	"/>
	<polygon style="fill:#802F35;" points="399.949,104.891 399.949,494.634 369.852,512 369.852,122.257 	"/>
	<polygon style="fill:#EC7977;" points="399.949,104.891 369.852,122.257 188.23,17.366 218.258,0 	"/>
	<path style="fill:#802F35;" d="M188.228,17.366v80.675c0,7.403-5.258,10.378-11.762,6.642l-64.415-37.224L188.228,17.366z"/>
	<g>
		<path style="fill:#EC7977;" d="M211.874,335.682c-1.835,0.001-3.596-0.728-4.894-2.025c-1.298-1.298-2.026-3.058-2.025-4.894
			v-77.324c0-3.821,3.098-6.919,6.919-6.919s6.919,3.098,6.919,6.919v77.324c0.001,1.835-0.728,3.596-2.025,4.894
			S213.71,335.684,211.874,335.682z"/>
		<path style="fill:#EC7977;" d="M267.023,367.527c-1.212,0-2.403-0.319-3.453-0.926l-9.196-5.304
			c-14.767-9.456-24.047-25.472-24.905-42.986c-0.581-7.846,3.125-15.393,9.689-19.73c6.66-3.378,14.597-3.047,20.953,0.872v-16.169
			c0-3.821,3.098-6.919,6.919-6.919c3.821,0,6.919,3.098,6.919,6.919v49.209c0,3.821-3.098,6.919-6.919,6.919
			c-3.821,0-6.919-3.098-6.919-6.919v-17.101l-5.736-3.304c-2.353-1.829-5.449-2.396-8.297-1.52
			c-2.134,1.973-3.168,4.865-2.77,7.743c0.817,12.578,7.473,24.048,17.986,31l9.196,5.304c2.714,1.566,4.038,4.761,3.225,7.787
			C272.902,365.429,270.157,367.531,267.023,367.527L267.023,367.527z"/>
	</g>
</g>
<g>
</g>
<g>
</g>
<g>
</g>
<g>
</g>
<g>
</g>
<g>
</g>
<g>
</g>
<g>
</g>
<g>
</g>
<g>
</g>
<g>
</g>
<g>
</g>
<g>
</g>
<g>
</g>
<g>
</g>
</svg>
