<?xml version="1.0" encoding="iso-8859-1"?>
<!-- Generator: Adobe Illustrator 19.0.0, SVG Export Plug-In . SVG Version: 6.00 Build 0)  -->
<svg version="1.1" id="Capa_1" xmlns="http://www.w3.org/2000/svg" xmlns:xlink="http://www.w3.org/1999/xlink" x="0px" y="0px"
	 viewBox="0 0 512 512" style="enable-background:new 0 0 512 512;" xml:space="preserve">
<g>
	<polygon style="fill:#56B26E;" points="218.258,0 188.23,17.366 112.053,67.459 112.053,363.174 369.852,512 399.949,494.634 
		399.949,104.891 	"/>
	<polygon style="fill:#4D8056;" points="399.949,104.891 399.949,494.634 369.852,512 369.852,122.257 	"/>
	<polygon style="fill:#74BD85;" points="399.949,104.891 369.852,122.257 188.23,17.366 218.258,0 	"/>
	<path style="fill:#4D8056;" d="M188.228,17.366v80.675c0,7.403-5.258,10.378-11.762,6.642l-64.415-37.224L188.228,17.366z"/>
	<g>
		<path style="fill:#BBD1B5;" d="M208.807,324.122c-3.592-0.004-6.584-2.758-6.885-6.338c-0.301-3.58,2.188-6.794,5.729-7.399
			c8.628-1.473,9.561-12.203,9.561-16.743c-1.362-20.668-12.057-39.592-29.061-51.419v65.311c0,3.821-3.098,6.919-6.919,6.919
			s-6.919-3.098-6.919-6.919v-77.324c0-2.472,1.318-4.757,3.459-5.993c2.141-1.236,4.779-1.236,6.919,0l9.189,5.304
			c22.037,14.098,35.887,37.992,37.169,64.122c0,16.52-8.074,28.162-21.074,30.378C209.59,324.087,209.199,324.121,208.807,324.122
			L208.807,324.122z"/>
		<path style="fill:#BBD1B5;" d="M256.347,357.824h-0.176c-3.247-0.083-5.998-2.413-6.615-5.601l-13.831-71.257
			c-0.475-2.428,0.383-4.924,2.25-6.547c1.867-1.623,4.458-2.126,6.796-1.319s4.067,2.802,4.535,5.231l7.865,40.493l6.176-24.932
			c0.583-2.411,2.412-4.326,4.795-5.018s4.953-0.056,6.737,1.667c1.784,1.723,2.51,4.27,1.901,6.675l-13.716,55.351
			C262.301,355.656,259.529,357.826,256.347,357.824z"/>
		<path style="fill:#BBD1B5;" d="M293.111,336.865c-0.562-0.001-1.123-0.069-1.669-0.203c-1.781-0.441-3.315-1.571-4.262-3.142
			c-0.948-1.571-1.233-3.455-0.792-5.236l4.568-18.453c0.931-3.694,4.673-5.94,8.371-5.025c3.698,0.915,5.96,4.647,5.061,8.349
			l-4.568,18.453C299.057,334.694,296.29,336.862,293.111,336.865z"/>
		<path style="fill:#BBD1B5;" d="M283.956,373.764h-0.176c-3.246-0.083-5.998-2.413-6.615-5.601l-13.831-71.257
			c-0.475-2.428,0.383-4.924,2.25-6.547c1.867-1.623,4.458-2.126,6.796-1.319c2.338,0.807,4.067,2.802,4.535,5.231l7.865,40.507
			l1.608-6.493c0.932-3.693,4.673-5.938,8.371-5.023c3.697,0.915,5.96,4.646,5.062,8.347l-9.149,36.899
			C289.907,371.594,287.136,373.763,283.956,373.764z"/>
	</g>
</g>
<g>
</g>
<g>
</g>
<g>
</g>
<g>
</g>
<g>
</g>
<g>
</g>
<g>
</g>
<g>
</g>
<g>
</g>
<g>
</g>
<g>
</g>
<g>
</g>
<g>
</g>
<g>
</g>
<g>
</g>
</svg>
