<?xml version="1.0" encoding="iso-8859-1"?>
<!-- Generator: Adobe Illustrator 19.0.0, SVG Export Plug-In . SVG Version: 6.00 Build 0)  -->
<svg version="1.1" id="Capa_1" xmlns="http://www.w3.org/2000/svg" xmlns:xlink="http://www.w3.org/1999/xlink" x="0px" y="0px"
	 viewBox="0 0 512 512" style="enable-background:new 0 0 512 512;" xml:space="preserve">
<g>
	<polygon style="fill:#4382C4;" points="218.258,0 188.23,17.366 112.053,67.459 112.053,363.174 369.852,512 399.949,494.634 
		399.949,104.891 	"/>
	<polygon style="fill:#275781;" points="399.949,104.891 399.949,494.634 369.852,512 369.852,122.257 	"/>
	<polygon style="fill:#30A8CD;" points="399.949,104.891 369.852,122.257 188.23,17.366 218.258,0 	"/>
	<path style="fill:#275781;" d="M188.228,17.366v80.675c0,7.403-5.258,10.378-11.762,6.642l-64.415-37.224L188.228,17.366z"/>
	<g>
		<path style="fill:#B0D2EF;" d="M197.956,319.993c-1.835,0.001-3.596-0.728-4.894-2.025c-1.298-1.298-2.026-3.058-2.025-4.894
			v-76.52c0-3.821,3.098-6.919,6.919-6.919s6.919,3.098,6.919,6.919v76.52c0.001,1.835-0.728,3.596-2.025,4.894
			C201.551,319.266,199.791,319.994,197.956,319.993z"/>
		<path style="fill:#B0D2EF;" d="M224.307,298.21c-1.094-0.002-2.186-0.097-3.264-0.284c-3.765-0.649-6.291-4.228-5.642-7.993
			s4.228-6.291,7.993-5.642c0.833,0.24,1.729,0.104,2.453-0.372c1.233-1.547,1.799-3.521,1.574-5.487
			c-0.745-10.275-6.178-19.635-14.73-25.379l-7.818-4.513v29.75c0,3.821-3.098,6.919-6.919,6.919s-6.919-3.098-6.919-6.919v-41.736
			c0-2.472,1.318-4.757,3.459-5.993c2.141-1.236,4.779-1.236,6.919,0l18.196,10.507c12.841,8.215,20.908,22.139,21.649,37.365
			c0.327,6.054-2.052,11.94-6.493,16.068C231.834,296.944,228.124,298.26,224.307,298.21z"/>
		<path style="fill:#B0D2EF;" d="M262.773,319.095c-2.373,0.004-4.583-1.211-5.851-3.216c-4.481-6.245-6.1-14.1-4.453-21.608
			c1.125-3.854,3.913-7.004,7.601-8.588c8.791-3.736,21.122,2.405,28.635,14.27c2.015,3.226,1.048,7.474-2.165,9.51
			c-3.213,2.036-7.468,1.096-9.524-2.105c-2.293-4.584-6.552-7.87-11.568-8.925c-0.117,3.609,0.998,7.15,3.162,10.041
			c1.349,2.13,1.433,4.826,0.219,7.035C267.615,317.718,265.294,319.092,262.773,319.095L262.773,319.095z"/>
		<path style="fill:#B0D2EF;" d="M275.834,362.986c-9.74-1.043-18.356-6.78-23.075-15.365c-1.323-2.088-1.431-4.723-0.284-6.913
			c1.147-2.19,3.375-3.601,5.845-3.703c2.47-0.102,4.806,1.122,6.129,3.21c2.321,4.559,6.564,7.837,11.561,8.932
			c0.123-3.611-0.99-7.155-3.155-10.047c-1.344-2.089-1.465-4.737-0.318-6.94c1.147-2.203,3.387-3.621,5.868-3.718
			c2.482-0.096,4.824,1.145,6.139,3.252c4.48,6.249,6.096,14.105,4.446,21.615c-1.122,3.849-3.905,6.996-7.588,8.581
			C279.638,362.627,277.745,362.999,275.834,362.986z"/>
	</g>
</g>
<g>
</g>
<g>
</g>
<g>
</g>
<g>
</g>
<g>
</g>
<g>
</g>
<g>
</g>
<g>
</g>
<g>
</g>
<g>
</g>
<g>
</g>
<g>
</g>
<g>
</g>
<g>
</g>
<g>
</g>
</svg>
