<?xml version="1.0" encoding="iso-8859-1"?>
<!-- Generator: Adobe Illustrator 19.0.0, SVG Export Plug-In . SVG Version: 6.00 Build 0)  -->
<svg version="1.1" id="Capa_1" xmlns="http://www.w3.org/2000/svg" xmlns:xlink="http://www.w3.org/1999/xlink" x="0px" y="0px"
	 viewBox="0 0 512 512" style="enable-background:new 0 0 512 512;" xml:space="preserve">
<g>
	<polygon style="fill:#B0D2EF;" points="218.258,0 188.23,17.366 112.053,67.459 112.053,363.174 369.852,512 399.949,494.634 
		399.949,104.891 	"/>
	<polygon style="fill:#91BAE2;" points="399.949,104.891 399.949,494.634 369.852,512 369.852,122.257 	"/>
	<polygon style="fill:#A0C9D3;" points="399.949,104.891 369.852,122.257 188.23,17.366 218.258,0 	"/>
	<path style="fill:#91BAE2;" d="M188.228,17.366v80.675c0,7.403-5.258,10.378-11.762,6.642l-64.415-37.224L188.228,17.366z"/>
	<g>
		<path style="fill:#36495D;" d="M303.793,229.777c-1.212,0.001-2.403-0.318-3.453-0.926l-128.703-74.304
			c-2.143-1.235-3.463-3.52-3.464-5.993c-0.001-2.473,1.319-4.759,3.46-5.995c2.142-1.236,4.781-1.236,6.922,0.002l128.703,74.304
			c2.714,1.566,4.038,4.761,3.225,7.787C309.672,227.679,306.927,229.781,303.793,229.777L303.793,229.777z"/>
		<path style="fill:#36495D;" d="M303.793,257.892c-1.212,0.001-2.403-0.318-3.453-0.926l-128.703-74.304
			c-2.143-1.235-3.463-3.52-3.464-5.993c-0.001-2.473,1.319-4.759,3.46-5.995c2.142-1.236,4.781-1.236,6.922,0.002L307.26,244.98
			c2.714,1.566,4.038,4.761,3.225,7.787S306.927,257.896,303.793,257.892L303.793,257.892z"/>
		<path style="fill:#36495D;" d="M303.793,286.014c-1.212,0.001-2.403-0.318-3.453-0.926l-128.703-74.304
			c-2.143-1.235-3.463-3.52-3.464-5.993c-0.001-2.473,1.319-4.759,3.46-5.995c2.142-1.236,4.781-1.236,6.922,0.002l128.703,74.304
			c2.714,1.566,4.038,4.761,3.225,7.787S306.927,286.018,303.793,286.014L303.793,286.014z"/>
		<path style="fill:#36495D;" d="M303.793,314.128c-1.212,0.001-2.403-0.318-3.453-0.926l-128.703-74.304
			c-2.143-1.235-3.463-3.52-3.464-5.993c-0.001-2.473,1.319-4.759,3.46-5.995c2.142-1.236,4.781-1.236,6.922,0.002l128.703,74.304
			c2.714,1.566,4.038,4.761,3.225,7.787S306.927,314.133,303.793,314.128L303.793,314.128z"/>
		<path style="fill:#36495D;" d="M303.793,342.25c-1.212,0.001-2.403-0.318-3.453-0.926L171.638,267.02
			c-2.143-1.235-3.463-3.52-3.464-5.993c-0.001-2.473,1.319-4.759,3.46-5.995c2.142-1.236,4.781-1.236,6.922,0.002l128.703,74.304
			c2.714,1.566,4.038,4.761,3.225,7.787S306.927,342.254,303.793,342.25L303.793,342.25z"/>
		<path style="fill:#36495D;" d="M303.793,370.365c-1.212,0.001-2.403-0.318-3.453-0.926l-128.703-74.304
			c-2.143-1.235-3.463-3.52-3.464-5.993c-0.001-2.473,1.319-4.759,3.46-5.995c2.142-1.236,4.781-1.236,6.922,0.002l128.703,74.304
			c2.714,1.566,4.038,4.761,3.225,7.787S306.927,370.369,303.793,370.365L303.793,370.365z"/>
	</g>
</g>
<g>
</g>
<g>
</g>
<g>
</g>
<g>
</g>
<g>
</g>
<g>
</g>
<g>
</g>
<g>
</g>
<g>
</g>
<g>
</g>
<g>
</g>
<g>
</g>
<g>
</g>
<g>
</g>
<g>
</g>
</svg>
