<?xml version="1.0" encoding="iso-8859-1"?>
<!-- Generator: Adobe Illustrator 19.0.0, SVG Export Plug-In . SVG Version: 6.00 Build 0)  -->
<svg version="1.1" id="Capa_1" xmlns="http://www.w3.org/2000/svg" xmlns:xlink="http://www.w3.org/1999/xlink" x="0px" y="0px"
	 viewBox="0 0 511.993 511.993" style="enable-background:new 0 0 511.993 511.993;" xml:space="preserve">
<g>
	<path style="fill:#B0D2EF;" d="M443.405,200.294l-8.372-4.843l-4.359-2.56v-34.11c-0.157-9.69-4.908-18.73-12.8-24.355
		L290.427,60.739c-2.661-1.917-6.22-2.027-8.995-0.277v0.069l-29.544,17.021l-0.208,0.138c-3.04,2.072-4.752,5.601-4.497,9.271
		L124.65,16.251L99.119,1.513c-2.545-1.826-5.916-2.015-8.649-0.484l-0.277,0.138l-29.475,17.09
		c-3.514,2.273-5.4,6.369-4.843,10.517v258.56c0.148,9.676,4.871,18.71,12.731,24.355l344.285,198.781
		c2.558,1.898,6.017,2.035,8.718,0.346l0.069,0.069l29.751-17.228c3.38-2.344,5.19-6.363,4.705-10.448V224.718
		C456.021,215.014,451.294,205.945,443.405,200.294z"/>
	<path style="fill:#4382C4;" d="M400.161,176.354v34.249l-153.046-88.355V88c-0.014-0.324,0.009-0.649,0.069-0.969v-0.069
		c-0.255-3.67,1.457-7.199,4.497-9.271l0.208-0.138c2.636-1.15,5.681-0.835,8.026,0.83L387.431,152
		C395.267,157.665,399.983,166.686,400.161,176.354z"/>
	<path style="fill:#275781;" d="M430.674,158.78v34.11l-30.512,17.712v-34.249c-0.179-9.668-4.894-18.689-12.731-24.355
		L259.915,78.383c-2.345-1.665-5.39-1.98-8.026-0.83l29.544-17.021v-0.069c2.774-1.75,6.333-1.641,8.995,0.277l127.446,73.686
		C425.766,140.051,430.517,149.09,430.674,158.78L430.674,158.78z"/>
	<g>
		<path style="fill:#91BAE2;" d="M456.135,224.718v258.491c0.485,4.085-1.325,8.104-4.705,10.448l-29.751,17.228l-0.069-0.069
			c2.97-2.408,4.509-6.163,4.082-9.963v-258.56c-0.157-9.69-4.908-18.73-12.8-24.355l-12.731-7.334l30.512-17.712l4.359,2.56
			l8.372,4.843C451.293,205.945,456.021,215.014,456.135,224.718L456.135,224.718z"/>
		<path style="fill:#91BAE2;" d="M247.184,86.962v0.069c-0.06,0.319-0.083,0.644-0.069,0.969v34.249L94.138,33.894L68.607,19.157
			c-2.308-1.614-5.276-1.953-7.888-0.899l29.475-17.09l0.277-0.138c2.733-1.53,6.104-1.341,8.649,0.484l25.531,14.737
			L247.184,86.962z"/>
	</g>
	
		<ellipse transform="matrix(-0.505 -0.8631 0.8631 -0.505 121.0991 609.1041)" style="fill:#2CAA60;" cx="235.211" cy="269.827" rx="128.388" ry="74.122"/>
	<g>
		<path style="fill:#FFFFFF;" d="M254.756,269.999v-37.503c-0.224-14.823-7.467-28.661-19.519-37.294l0,0
			c-10.78-6.224-19.518,0.383-19.518,14.756v37.503c0.224,14.823,7.467,28.661,19.518,37.294l0,0
			C246.017,290.978,254.756,284.372,254.756,269.999z"/>
		<path style="fill:#FFFFFF;" d="M235.235,351.376c-1.835,0.001-3.596-0.728-4.894-2.025s-2.026-3.058-2.025-4.894v-29.851
			c0-3.821,3.098-6.919,6.919-6.919s6.919,3.098,6.919,6.919v29.851c0.001,1.835-0.728,3.596-2.025,4.894
			C238.831,350.649,237.07,351.377,235.235,351.376L235.235,351.376z"/>
		<path style="fill:#FFFFFF;" d="M254.749,362.646c-1.212,0.001-2.403-0.318-3.453-0.926l-39.034-22.541
			c-2.143-1.235-3.463-3.52-3.464-5.993c-0.001-2.473,1.319-4.759,3.46-5.995c2.142-1.236,4.781-1.236,6.922,0.002l39.034,22.54
			c2.714,1.566,4.038,4.761,3.225,7.787S257.883,362.65,254.749,362.646z"/>
		<path style="fill:#FFFFFF;" d="M255.654,327.795c-8.452-0.27-16.685-2.751-23.878-7.196c-29.051-18.585-47.31-50.082-49-84.527
			V225.14l-9.554-5.514c-2.143-1.235-3.463-3.52-3.464-5.993c-0.001-2.473,1.319-4.759,3.46-5.995
			c2.142-1.236,4.781-1.236,6.922,0.002l13.014,7.514c2.141,1.236,3.46,3.521,3.459,5.993v14.926
			c1.904,29.433,17.476,56.277,42.081,72.541c9.98,5.77,19.007,6.899,25.379,3.203c6.318-3.642,9.79-11.865,9.79-23.155v-14.926
			c0-2.472,1.318-4.757,3.459-5.993c2.141-1.236,4.779-1.236,6.919,0l13.014,7.514c3.308,1.912,4.441,6.142,2.531,9.451
			c-1.91,3.309-6.14,4.444-9.45,2.536l-2.635-1.52v2.939c0,16.439-5.932,28.919-16.709,35.142
			C266.325,326.471,261.031,327.85,255.654,327.795z"/>
	</g>
</g>
<g>
</g>
<g>
</g>
<g>
</g>
<g>
</g>
<g>
</g>
<g>
</g>
<g>
</g>
<g>
</g>
<g>
</g>
<g>
</g>
<g>
</g>
<g>
</g>
<g>
</g>
<g>
</g>
<g>
</g>
</svg>
