<?xml version="1.0" encoding="iso-8859-1"?>
<!-- Generator: Adobe Illustrator 19.0.0, SVG Export Plug-In . SVG Version: 6.00 Build 0)  -->
<svg version="1.1" id="Capa_1" xmlns="http://www.w3.org/2000/svg" xmlns:xlink="http://www.w3.org/1999/xlink" x="0px" y="0px"
	 viewBox="0 0 511.993 511.993" style="enable-background:new 0 0 511.993 511.993;" xml:space="preserve">
<g>
	<path style="fill:#B0D2EF;" d="M443.405,200.294l-8.372-4.843l-4.359-2.56v-34.11c-0.157-9.69-4.908-18.73-12.8-24.355
		L290.427,60.739c-2.661-1.917-6.22-2.027-8.995-0.277v0.069l-29.544,17.021l-0.208,0.138c-3.04,2.072-4.752,5.601-4.497,9.271
		L124.65,16.251L99.119,1.513c-2.545-1.826-5.916-2.015-8.649-0.484l-0.277,0.138l-29.475,17.09
		c-3.514,2.273-5.4,6.369-4.843,10.517v258.56c0.148,9.676,4.871,18.71,12.731,24.355l344.285,198.781
		c2.558,1.898,6.017,2.035,8.718,0.346l0.069,0.069l29.751-17.228c3.38-2.344,5.19-6.363,4.705-10.448V224.718
		C456.021,215.014,451.294,205.945,443.405,200.294z"/>
	<path style="fill:#4382C4;" d="M400.161,176.354v34.249l-153.046-88.355V88c-0.014-0.324,0.009-0.649,0.069-0.969v-0.069
		c-0.255-3.67,1.457-7.199,4.497-9.271l0.208-0.138c2.636-1.15,5.681-0.835,8.026,0.83L387.431,152
		C395.267,157.665,399.983,166.686,400.161,176.354z"/>
	<path style="fill:#275781;" d="M430.674,158.78v34.11l-30.512,17.712v-34.249c-0.179-9.668-4.894-18.689-12.731-24.355
		L259.915,78.383c-2.345-1.665-5.39-1.98-8.026-0.83l29.544-17.021v-0.069c2.774-1.75,6.333-1.641,8.995,0.277l127.446,73.686
		C425.766,140.051,430.517,149.09,430.674,158.78L430.674,158.78z"/>
	<g>
		<path style="fill:#91BAE2;" d="M456.135,224.718v258.491c0.485,4.085-1.325,8.104-4.705,10.448l-29.751,17.228l-0.069-0.069
			c2.97-2.408,4.509-6.163,4.082-9.963v-258.56c-0.157-9.69-4.908-18.73-12.8-24.355l-12.731-7.334l30.512-17.712l4.359,2.56
			l8.372,4.843C451.293,205.945,456.021,215.014,456.135,224.718L456.135,224.718z"/>
		<path style="fill:#91BAE2;" d="M247.184,86.962v0.069c-0.06,0.319-0.083,0.644-0.069,0.969v34.249L94.138,33.894L68.607,19.157
			c-2.308-1.614-5.276-1.953-7.888-0.899l29.475-17.09l0.277-0.138c2.733-1.53,6.104-1.341,8.649,0.484l25.531,14.737
			L247.184,86.962z"/>
	</g>
	<path style="fill:#405D6C;" d="M144.15,217.24c0-53.98,35.6-77.83,81.371-56.889c3.326,1.491,6.569,3.16,9.716,5
		c3.264,1.884,6.528,3.943,9.716,6.219c45.771,31.911,81.371,96.867,81.371,150.848c0,53.98-35.6,77.83-81.371,56.889
		c-3.326-1.492-6.569-3.161-9.716-5c-3.264-1.884-6.528-3.943-9.716-6.219C179.75,336.177,144.15,271.22,144.15,217.24z"/>
	<g>
		<path style="fill:#95A5A5;" d="M285.647,290.93c-3.306-0.002-6.148-2.344-6.784-5.588c-4.943-23.405-17.263-44.608-35.149-60.493
			c-2.899-2.489-3.232-6.857-0.743-9.757c2.489-2.899,6.857-3.232,9.757-0.743c20.204,17.945,34.124,41.894,39.716,68.331
			c0.399,2.031-0.132,4.134-1.448,5.732C289.68,290.01,287.717,290.934,285.647,290.93L285.647,290.93z"/>
		<path style="fill:#95A5A5;" d="M184.85,232.741c-2.134,0.002-4.149-0.98-5.462-2.663c-1.313-1.682-1.776-3.876-1.255-5.945
			c2.046-9.833,8.05-18.389,16.601-23.656c9.02-4.847,19.638-5.768,29.358-2.547c2.383,0.669,4.227,2.56,4.835,4.959
			c0.608,2.399-0.111,4.94-1.888,6.664c-1.776,1.724-4.338,2.367-6.718,1.687c-6.127-2.153-12.867-1.714-18.662,1.216
			c-5.28,3.431-8.931,8.868-10.108,15.054C190.78,230.584,188.019,232.739,184.85,232.741L184.85,232.741z"/>
	</g>
	<g>
		<polygon style="fill:#FFFFFF;" points="222.223,217.543 248.252,232.564 248.252,202.716 222.223,187.688 		"/>
		<polygon style="fill:#FFFFFF;" points="274.274,307.295 300.303,322.316 300.303,292.468 274.274,277.44 		"/>
		<polygon style="fill:#FFFFFF;" points="170.172,247.19 196.201,262.218 196.201,232.363 170.172,217.342 		"/>
	</g>
	<path style="fill:#F0C41A;" d="M242.154,289.856v54.602c0,3.821-3.098,6.919-6.919,6.919c-3.821,0-6.919-3.098-6.919-6.919v-62.927
		l-34.131,57.903c9.219,10.811,19.748,20.433,31.343,28.644c3.122,2.237,6.355,4.315,9.686,6.227
		c3.166,1.824,6.422,3.486,9.756,4.982c9.61,4.675,20.107,7.246,30.789,7.542L242.154,289.856z"/>
</g>
<g>
</g>
<g>
</g>
<g>
</g>
<g>
</g>
<g>
</g>
<g>
</g>
<g>
</g>
<g>
</g>
<g>
</g>
<g>
</g>
<g>
</g>
<g>
</g>
<g>
</g>
<g>
</g>
<g>
</g>
</svg>
