<?xml version="1.0" encoding="iso-8859-1"?>
<!-- Generator: Adobe Illustrator 19.0.0, SVG Export Plug-In . SVG Version: 6.00 Build 0)  -->
<svg version="1.1" id="Capa_1" xmlns="http://www.w3.org/2000/svg" xmlns:xlink="http://www.w3.org/1999/xlink" x="0px" y="0px"
	 viewBox="0 0 511.993 511.993" style="enable-background:new 0 0 511.993 511.993;" xml:space="preserve">
<g>
	<path style="fill:#B0D2EF;" d="M443.405,200.294l-8.372-4.843l-4.359-2.56v-34.11c-0.157-9.69-4.908-18.73-12.8-24.355
		L290.427,60.739c-2.661-1.917-6.22-2.027-8.995-0.277v0.069l-29.544,17.021l-0.208,0.138c-3.04,2.072-4.752,5.601-4.497,9.271
		L124.65,16.251L99.119,1.513c-2.545-1.826-5.916-2.015-8.649-0.484l-0.277,0.138l-29.475,17.09
		c-3.514,2.273-5.4,6.369-4.843,10.517v258.56c0.148,9.676,4.871,18.71,12.731,24.355l344.285,198.781
		c2.558,1.898,6.017,2.035,8.718,0.346l0.069,0.069l29.751-17.228c3.38-2.344,5.19-6.363,4.705-10.448V224.718
		C456.021,215.014,451.294,205.945,443.405,200.294z"/>
	<path style="fill:#4382C4;" d="M400.161,176.354v34.249l-153.046-88.355V88c-0.014-0.324,0.009-0.649,0.069-0.969v-0.069
		c-0.255-3.67,1.457-7.199,4.497-9.271l0.208-0.138c2.636-1.15,5.681-0.835,8.026,0.83L387.431,152
		C395.267,157.665,399.983,166.686,400.161,176.354z"/>
	<path style="fill:#275781;" d="M430.674,158.78v34.11l-30.512,17.712v-34.249c-0.179-9.668-4.894-18.689-12.731-24.355
		L259.915,78.383c-2.345-1.665-5.39-1.98-8.026-0.83l29.544-17.021v-0.069c2.774-1.75,6.333-1.641,8.995,0.277l127.446,73.686
		C425.766,140.051,430.517,149.09,430.674,158.78L430.674,158.78z"/>
	<g>
		<path style="fill:#91BAE2;" d="M456.135,224.718v258.491c0.485,4.085-1.325,8.104-4.705,10.448l-29.751,17.228l-0.069-0.069
			c2.97-2.408,4.509-6.163,4.082-9.963v-258.56c-0.157-9.69-4.908-18.73-12.8-24.355l-12.731-7.334l30.512-17.712l4.359,2.56
			l8.372,4.843C451.293,205.945,456.021,215.014,456.135,224.718L456.135,224.718z"/>
		<path style="fill:#91BAE2;" d="M247.184,86.962v0.069c-0.06,0.319-0.083,0.644-0.069,0.969v34.249L94.138,33.894L68.607,19.157
			c-2.308-1.614-5.276-1.953-7.888-0.899l29.475-17.09l0.277-0.138c2.733-1.53,6.104-1.341,8.649,0.484l25.531,14.737
			L247.184,86.962z"/>
	</g>
	<path style="fill:#F3D55A;" d="M326.324,322.418c0,53.98-35.6,77.83-81.371,56.889c-3.326-1.492-6.569-3.161-9.716-5
		c-3.264-1.884-6.528-3.943-9.716-6.219C179.75,336.177,144.15,271.22,144.15,217.24s35.6-77.83,81.371-56.889
		c3.326,1.491,6.569,3.16,9.716,5c3.264,1.884,6.528,3.943,9.716,6.219C290.725,203.481,326.324,268.438,326.324,322.418z"/>
	<g>
		<path style="fill:#D35525;" d="M264.37,260.066c-2.634,0.001-5.04-1.491-6.209-3.851c-6.106-10.828-15.324-19.571-26.459-25.095
			c-3.308-1.912-4.441-6.142-2.531-9.451c1.91-3.309,6.14-4.444,9.45-2.536c13.535,6.845,24.674,17.635,31.946,30.946
			c1.061,2.144,0.939,4.683-0.322,6.716C268.983,258.827,266.762,260.064,264.37,260.066L264.37,260.066z"/>
		<path style="fill:#D35525;" d="M235.154,276.701c-1.296,0.001-2.565-0.365-3.662-1.054c-27.135-16.973-35.676-41.385-28.014-54.27
			c4.743-7.993,16.453-12.77,35.081-2.277c2.153,1.214,3.495,3.485,3.52,5.957c0.025,2.472-1.27,4.769-3.399,6.027
			c-2.128,1.258-4.766,1.284-6.919,0.07c-7.939-4.466-14.682-5.574-16.392-2.71c-3.054,5.149,2.453,22.331,23.46,35.473
			c2.616,1.638,3.832,4.81,2.979,7.777C240.956,274.66,238.241,276.703,235.154,276.701L235.154,276.701z"/>
		<path style="fill:#D35525;" d="M235.154,321.363c-1.212,0.001-2.403-0.318-3.453-0.926c-13.56-6.576-24.68-17.289-31.757-30.595
			c-1.224-2.148-1.209-4.787,0.04-6.921c1.249-2.134,3.541-3.44,6.014-3.426c2.473,0.014,4.75,1.347,5.973,3.495
			c5.873,11.162,15.23,20.102,26.648,25.459c2.714,1.566,4.038,4.761,3.225,7.787S238.288,321.367,235.154,321.363L235.154,321.363z
			"/>
		<path style="fill:#D35525;" d="M253.62,327.275c-7.73-0.389-15.236-2.722-21.824-6.784c-3.332-1.862-4.527-6.07-2.671-9.406
			c1.856-3.335,6.062-4.538,9.401-2.689c10.993,6.108,17.561,5.669,18.635,4.068c1.824-2.723-1.115-17.182-26.311-37.27
			c-1.934-1.54-2.899-3.995-2.532-6.439c0.367-2.445,2.01-4.508,4.311-5.412c2.301-0.904,4.909-0.513,6.842,1.027
			c26.358,21.02,37.818,42.919,29.182,55.797C265.193,324.956,259.519,327.639,253.62,327.275z"/>
		<path style="fill:#D35525;" d="M235.161,332.525c-1.835,0.001-3.596-0.728-4.894-2.025c-1.298-1.298-2.026-3.058-2.025-4.894
			V213.964c0-3.821,3.098-6.919,6.919-6.919s6.919,3.098,6.919,6.919v111.642c0.001,1.835-0.728,3.596-2.025,4.894
			C238.757,331.797,236.996,332.526,235.161,332.525L235.161,332.525z"/>
	</g>
</g>
<g>
</g>
<g>
</g>
<g>
</g>
<g>
</g>
<g>
</g>
<g>
</g>
<g>
</g>
<g>
</g>
<g>
</g>
<g>
</g>
<g>
</g>
<g>
</g>
<g>
</g>
<g>
</g>
<g>
</g>
</svg>
