<?xml version="1.0" encoding="iso-8859-1"?>
<!-- Generator: Adobe Illustrator 19.0.0, SVG Export Plug-In . SVG Version: 6.00 Build 0)  -->
<svg version="1.1" id="Capa_1" xmlns="http://www.w3.org/2000/svg" xmlns:xlink="http://www.w3.org/1999/xlink" x="0px" y="0px"
	 viewBox="0 0 511.993 511.993" style="enable-background:new 0 0 511.993 511.993;" xml:space="preserve">
<g>
	<path style="fill:#B0D2EF;" d="M443.405,200.294l-8.372-4.843l-4.359-2.56v-34.11c-0.157-9.69-4.908-18.73-12.8-24.355
		L290.427,60.739c-2.661-1.917-6.22-2.027-8.995-0.277v0.069l-29.544,17.021l-0.208,0.138c-3.04,2.072-4.752,5.601-4.497,9.271
		L124.65,16.251L99.119,1.513c-2.545-1.826-5.916-2.015-8.649-0.484l-0.277,0.138l-29.475,17.09
		c-3.514,2.273-5.4,6.369-4.843,10.517v258.56c0.148,9.676,4.871,18.71,12.731,24.355l344.285,198.781
		c2.558,1.898,6.017,2.035,8.718,0.346l0.069,0.069l29.751-17.228c3.38-2.344,5.19-6.363,4.705-10.448V224.718
		C456.021,215.014,451.294,205.945,443.405,200.294z"/>
	<path style="fill:#4382C4;" d="M400.161,176.354v34.249l-153.046-88.355V88c-0.014-0.324,0.009-0.649,0.069-0.969v-0.069
		c-0.255-3.67,1.457-7.199,4.497-9.271l0.208-0.138c2.636-1.15,5.681-0.835,8.026,0.83L387.431,152
		C395.267,157.665,399.983,166.686,400.161,176.354z"/>
	<path style="fill:#275781;" d="M430.674,158.78v34.11l-30.512,17.712v-34.249c-0.179-9.668-4.894-18.689-12.731-24.355
		L259.915,78.383c-2.345-1.665-5.39-1.98-8.026-0.83l29.544-17.021v-0.069c2.774-1.75,6.333-1.641,8.995,0.277l127.446,73.686
		C425.766,140.051,430.517,149.09,430.674,158.78L430.674,158.78z"/>
	<g>
		<path style="fill:#91BAE2;" d="M456.135,224.718v258.491c0.485,4.085-1.325,8.104-4.705,10.448l-29.751,17.228l-0.069-0.069
			c2.97-2.408,4.509-6.163,4.082-9.963v-258.56c-0.157-9.69-4.908-18.73-12.8-24.355l-12.731-7.334l30.512-17.712l4.359,2.56
			l8.372,4.843C451.293,205.945,456.021,215.014,456.135,224.718L456.135,224.718z"/>
		<path style="fill:#91BAE2;" d="M247.184,86.962v0.069c-0.06,0.319-0.083,0.644-0.069,0.969v34.249L94.138,33.894L68.607,19.157
			c-2.308-1.614-5.276-1.953-7.888-0.899l29.475-17.09l0.277-0.138c2.733-1.53,6.104-1.341,8.649,0.484l25.531,14.737
			L247.184,86.962z"/>
	</g>
	<path style="fill:#2CAA60;" d="M326.324,322.418c0,53.98-35.6,77.83-81.371,56.889c-3.326-1.492-6.569-3.161-9.716-5
		c-3.264-1.884-6.528-3.943-9.716-6.219C179.75,336.177,144.15,271.22,144.15,217.24s35.6-77.83,81.371-56.889
		c3.326,1.491,6.569,3.16,9.716,5c3.264,1.884,6.528,3.943,9.716,6.219C290.725,203.481,326.324,268.438,326.324,322.418z"/>
	<g>
		<path style="fill:#FFFFFF;" d="M196.208,276.599c-2.267,0.004-4.392-1.104-5.686-2.966l-26.027-37.412
			c-1.277-1.836-1.588-4.176-0.835-6.281c0.753-2.106,2.478-3.718,4.629-4.327l26.027-7.365c2.38-0.68,4.942-0.037,6.718,1.687
			c1.776,1.724,2.496,4.265,1.888,6.664c-0.608,2.399-2.452,4.29-4.835,4.959l-16.689,4.723l20.483,29.446
			c1.474,2.113,1.65,4.871,0.459,7.155C201.147,275.167,198.785,276.599,196.208,276.599L196.208,276.599z"/>
		<path style="fill:#FFFFFF;" d="M274.269,321.674c-3.451-0.004-6.372-2.551-6.845-5.97c-0.473-3.419,1.646-6.663,4.966-7.604
			l16.689-4.723l-20.486-29.446c-2.183-3.138-1.409-7.452,1.73-9.635c3.138-2.183,7.452-1.409,9.635,1.73l26.027,37.412
			c1.276,1.837,1.586,4.176,0.832,6.282c-0.754,2.105-2.478,3.717-4.629,4.327l-26.027,7.365
			C275.546,321.587,274.909,321.676,274.269,321.674L274.269,321.674z"/>
		<path style="fill:#FFFFFF;" d="M215.712,310.255c-2.475-0.001-4.761-1.325-5.994-3.472c-1.233-2.146-1.225-4.788,0.021-6.927
			l39.037-67.013c1.24-2.142,3.531-3.458,6.006-3.452c2.475,0.007,4.758,1.335,5.987,3.484s1.216,4.79-0.034,6.927l-39.037,67.013
			C220.458,308.947,218.177,310.258,215.712,310.255L215.712,310.255z"/>
	</g>
</g>
<g>
</g>
<g>
</g>
<g>
</g>
<g>
</g>
<g>
</g>
<g>
</g>
<g>
</g>
<g>
</g>
<g>
</g>
<g>
</g>
<g>
</g>
<g>
</g>
<g>
</g>
<g>
</g>
<g>
</g>
</svg>
