<?xml version="1.0" encoding="iso-8859-1"?>
<!-- Generator: Adobe Illustrator 19.0.0, SVG Export Plug-In . SVG Version: 6.00 Build 0)  -->
<svg version="1.1" id="Capa_1" xmlns="http://www.w3.org/2000/svg" xmlns:xlink="http://www.w3.org/1999/xlink" x="0px" y="0px"
	 viewBox="0 0 511.993 511.993" style="enable-background:new 0 0 511.993 511.993;" xml:space="preserve">
<g>
	<path style="fill:#B0D2EF;" d="M443.405,200.294l-8.372-4.843l-4.359-2.56v-34.11c-0.157-9.69-4.908-18.73-12.8-24.355
		L290.427,60.739c-2.661-1.917-6.22-2.027-8.995-0.277v0.069l-29.544,17.021l-0.208,0.138c-3.04,2.072-4.752,5.601-4.497,9.271
		L124.65,16.251L99.119,1.513c-2.545-1.826-5.916-2.015-8.649-0.484l-0.277,0.138l-29.475,17.09
		c-3.514,2.273-5.4,6.369-4.843,10.517v258.56c0.148,9.676,4.871,18.71,12.731,24.355l344.285,198.781
		c2.558,1.898,6.017,2.035,8.718,0.346l0.069,0.069l29.751-17.228c3.38-2.344,5.19-6.363,4.705-10.448V224.718
		C456.021,215.014,451.294,205.945,443.405,200.294z"/>
	<path style="fill:#4382C4;" d="M400.161,176.354v34.249l-153.046-88.355V88c-0.014-0.324,0.009-0.649,0.069-0.969v-0.069
		c-0.255-3.67,1.457-7.199,4.497-9.271l0.208-0.138c2.636-1.15,5.681-0.835,8.026,0.83L387.431,152
		C395.267,157.665,399.983,166.686,400.161,176.354z"/>
	<path style="fill:#275781;" d="M430.674,158.78v34.11l-30.512,17.712v-34.249c-0.179-9.668-4.894-18.689-12.731-24.355
		L259.915,78.383c-2.345-1.665-5.39-1.98-8.026-0.83l29.544-17.021v-0.069c2.774-1.75,6.333-1.641,8.995,0.277l127.446,73.686
		C425.766,140.051,430.517,149.09,430.674,158.78L430.674,158.78z"/>
	<g>
		<path style="fill:#91BAE2;" d="M456.135,224.718v258.491c0.485,4.085-1.325,8.104-4.705,10.448l-29.751,17.228l-0.069-0.069
			c2.97-2.408,4.509-6.163,4.082-9.963v-258.56c-0.157-9.69-4.908-18.73-12.8-24.355l-12.731-7.334l30.512-17.712l4.359,2.56
			l8.372,4.843C451.293,205.945,456.021,215.014,456.135,224.718L456.135,224.718z"/>
		<path style="fill:#91BAE2;" d="M247.184,86.962v0.069c-0.06,0.319-0.083,0.644-0.069,0.969v34.249L94.138,33.894L68.607,19.157
			c-2.308-1.614-5.276-1.953-7.888-0.899l29.475-17.09l0.277-0.138c2.733-1.53,6.104-1.341,8.649,0.484l25.531,14.737
			L247.184,86.962z"/>
	</g>
	
		<ellipse transform="matrix(-0.505 -0.8631 0.8631 -0.505 121.0991 609.1041)" style="fill:#E74C3C;" cx="235.211" cy="269.827" rx="128.388" ry="74.122"/>
	<g>
		<path style="fill:#FFFFFF;" d="M196.208,276.599c-2.268,0.004-4.394-1.104-5.689-2.966l-26.027-37.412
			c-1.276-1.837-1.586-4.176-0.832-6.281c0.754-2.105,2.478-3.717,4.629-4.327l26.027-7.365c2.38-0.68,4.942-0.037,6.718,1.687
			c1.776,1.724,2.496,4.265,1.888,6.664c-0.608,2.399-2.452,4.29-4.835,4.959l-16.689,4.723l20.486,29.446
			c1.472,2.114,1.648,4.871,0.456,7.155C201.147,275.167,198.785,276.599,196.208,276.599L196.208,276.599z"/>
		<path style="fill:#FFFFFF;" d="M274.269,321.674c-3.451-0.004-6.372-2.551-6.845-5.97c-0.473-3.419,1.646-6.663,4.966-7.604
			l16.689-4.723l-20.486-29.446c-2.183-3.138-1.409-7.452,1.73-9.635c3.138-2.183,7.452-1.409,9.635,1.73l26.027,37.412
			c1.276,1.837,1.586,4.176,0.832,6.282c-0.754,2.105-2.478,3.717-4.629,4.327l-26.027,7.365
			C275.546,321.587,274.909,321.676,274.269,321.674L274.269,321.674z"/>
		<path style="fill:#FFFFFF;" d="M233.134,286.147c-1.835,0.001-3.596-0.728-4.894-2.025c-1.298-1.298-2.026-3.058-2.025-4.894
			v-10.615c0-2.416,1.26-4.657,3.324-5.912l12.898-7.851c0.372-0.216,1-1.358,1-3.73c-0.59-8.13-4.892-15.535-11.662-20.074
			c-2.358-1.358-3.601-1.182-3.804-1.074c-0.291,0.169-0.932,1.338-0.932,3.696c0,3.821-3.098,6.919-6.919,6.919
			c-3.821,0-6.919-3.098-6.919-6.919c-0.743-6.354,2.375-12.538,7.925-15.718c5.55-3.18,12.462-2.744,17.568,1.11
			c11.019,7.048,17.944,18.996,18.581,32.061c0.406,6.203-2.534,12.151-7.709,15.594l-9.514,5.784v6.73
			c0.001,1.835-0.728,3.596-2.025,4.894C236.73,285.419,234.969,286.148,233.134,286.147z"/>
		<path style="fill:#FFFFFF;" d="M233.141,305.877c-0.906-0.01-1.801-0.199-2.635-0.554c-0.863-0.335-1.642-0.853-2.284-1.52
			c-1.285-1.284-2.004-3.028-2-4.845c0.009-1.834,0.725-3.594,2-4.912c1.994-1.954,4.952-2.55,7.547-1.52
			c0.843,0.332,1.598,0.852,2.209,1.52c0.667,0.614,1.188,1.369,1.527,2.209c0.355,0.857,0.543,1.775,0.554,2.703
			c0.008,1.834-0.746,3.588-2.081,4.845c-0.613,0.666-1.368,1.186-2.209,1.52C234.937,305.677,234.045,305.865,233.141,305.877
			L233.141,305.877z"/>
	</g>
</g>
<g>
</g>
<g>
</g>
<g>
</g>
<g>
</g>
<g>
</g>
<g>
</g>
<g>
</g>
<g>
</g>
<g>
</g>
<g>
</g>
<g>
</g>
<g>
</g>
<g>
</g>
<g>
</g>
<g>
</g>
</svg>
