<?xml version="1.0" encoding="iso-8859-1"?>
<!-- Generator: Adobe Illustrator 19.0.0, SVG Export Plug-In . SVG Version: 6.00 Build 0)  -->
<svg version="1.1" id="Capa_1" xmlns="http://www.w3.org/2000/svg" xmlns:xlink="http://www.w3.org/1999/xlink" x="0px" y="0px"
	 viewBox="0 0 511.993 511.993" style="enable-background:new 0 0 511.993 511.993;" xml:space="preserve">
<g>
	<path style="fill:#B0D2EF;" d="M443.405,200.294l-8.372-4.843l-4.359-2.56v-34.11c-0.157-9.69-4.908-18.73-12.8-24.355
		L290.427,60.739c-2.661-1.917-6.22-2.027-8.995-0.277v0.069l-29.544,17.021l-0.208,0.138c-3.04,2.072-4.752,5.601-4.497,9.271
		L124.65,16.251L99.119,1.513c-2.545-1.826-5.916-2.015-8.649-0.484l-0.277,0.138l-29.475,17.09
		c-3.514,2.273-5.4,6.369-4.843,10.517v258.56c0.148,9.676,4.871,18.71,12.731,24.355l344.285,198.781
		c2.558,1.898,6.017,2.035,8.718,0.346l0.069,0.069l29.751-17.228c3.38-2.344,5.19-6.363,4.705-10.448V224.718
		C456.021,215.014,451.294,205.945,443.405,200.294z"/>
	<path style="fill:#4382C4;" d="M400.161,176.354v34.249l-153.046-88.355V88c-0.014-0.324,0.009-0.649,0.069-0.969v-0.069
		c-0.255-3.67,1.457-7.199,4.497-9.271l0.208-0.138c2.636-1.15,5.681-0.835,8.026,0.83L387.431,152
		C395.267,157.665,399.983,166.686,400.161,176.354z"/>
	<path style="fill:#275781;" d="M430.674,158.78v34.11l-30.512,17.712v-34.249c-0.179-9.668-4.894-18.689-12.731-24.355
		L259.915,78.383c-2.345-1.665-5.39-1.98-8.026-0.83l29.544-17.021v-0.069c2.774-1.75,6.333-1.641,8.995,0.277l127.446,73.686
		C425.766,140.051,430.517,149.09,430.674,158.78L430.674,158.78z"/>
	<g>
		<path style="fill:#91BAE2;" d="M456.135,224.718v258.491c0.485,4.085-1.325,8.104-4.705,10.448l-29.751,17.228l-0.069-0.069
			c2.97-2.408,4.509-6.163,4.082-9.963v-258.56c-0.157-9.69-4.908-18.73-12.8-24.355l-12.731-7.334l30.512-17.712l4.359,2.56
			l8.372,4.843C451.293,205.945,456.021,215.014,456.135,224.718L456.135,224.718z"/>
		<path style="fill:#91BAE2;" d="M247.184,86.962v0.069c-0.06,0.319-0.083,0.644-0.069,0.969v34.249L94.138,33.894L68.607,19.157
			c-2.308-1.614-5.276-1.953-7.888-0.899l29.475-17.09l0.277-0.138c2.733-1.53,6.104-1.341,8.649,0.484l25.531,14.737
			L247.184,86.962z"/>
	</g>
	
		<ellipse transform="matrix(-0.505 -0.8631 0.8631 -0.505 121.0991 609.1041)" style="fill:#4382C4;" cx="235.211" cy="269.827" rx="128.388" ry="74.122"/>
	<path style="fill:#F0C41A;" d="M182.674,212.184c0.342,7.398,2.963,14.509,7.503,20.361c2.487,3.45,5.642,6.365,9.276,8.573
		c2.739,1.794,6.028,2.552,9.276,2.139c4.53-0.835,7.503-5.002,7.503-11.697c-0.662-11.768-6.894-22.514-16.779-28.933
		C190.189,197.276,182.674,201.557,182.674,212.184z"/>
	<path style="fill:#F39D23;" d="M176.682,248.591v20.621l45.543,26.294v-20.621c-0.632-11.804-5.411-23.005-13.495-31.629
		c-3.248,0.413-6.537-0.345-9.276-2.139c-3.635-2.208-6.789-5.123-9.276-8.573C182.219,232.005,176.682,237.964,176.682,248.591z"/>
	<path style="fill:#F0C41A;" d="M254.242,253.504c0.342,7.398,2.963,14.509,7.503,20.361c2.487,3.45,5.642,6.365,9.276,8.573
		c2.739,1.794,6.028,2.552,9.276,2.139c4.53-0.835,7.503-5.002,7.503-11.697c-0.662-11.767-6.894-22.514-16.779-28.933
		C261.757,238.596,254.242,242.877,254.242,253.504z"/>
	<path style="fill:#F39D23;" d="M248.25,289.91v20.621l45.543,26.295v-20.621c-0.632-11.804-5.411-23.005-13.495-31.629
		c-3.248,0.413-6.537-0.345-9.276-2.139c-3.635-2.208-6.789-5.123-9.276-8.573C253.787,273.325,248.25,279.284,248.25,289.91z"/>
</g>
<g>
</g>
<g>
</g>
<g>
</g>
<g>
</g>
<g>
</g>
<g>
</g>
<g>
</g>
<g>
</g>
<g>
</g>
<g>
</g>
<g>
</g>
<g>
</g>
<g>
</g>
<g>
</g>
<g>
</g>
</svg>
