<?xml version="1.0" encoding="iso-8859-1"?>
<!-- Generator: Adobe Illustrator 19.0.0, SVG Export Plug-In . SVG Version: 6.00 Build 0)  -->
<svg version="1.1" id="Capa_1" xmlns="http://www.w3.org/2000/svg" xmlns:xlink="http://www.w3.org/1999/xlink" x="0px" y="0px"
	 viewBox="0 0 511.993 511.993" style="enable-background:new 0 0 511.993 511.993;" xml:space="preserve">
<g>
	<path style="fill:#B0D2EF;" d="M443.405,200.294l-8.372-4.843l-4.359-2.56v-34.11c-0.157-9.69-4.908-18.73-12.8-24.355
		L290.427,60.739c-2.661-1.917-6.22-2.027-8.995-0.277v0.069l-29.544,17.021l-0.208,0.138c-3.04,2.072-4.752,5.601-4.497,9.271
		L124.65,16.251L99.119,1.513c-2.545-1.826-5.916-2.015-8.649-0.484l-0.277,0.138l-29.475,17.09
		c-3.514,2.273-5.4,6.369-4.843,10.517v258.56c0.148,9.676,4.871,18.71,12.731,24.355l344.285,198.781
		c2.558,1.898,6.017,2.035,8.718,0.346l0.069,0.069l29.751-17.228c3.38-2.344,5.19-6.363,4.705-10.448V224.718
		C456.021,215.014,451.294,205.945,443.405,200.294z"/>
	<path style="fill:#4382C4;" d="M400.161,176.354v34.249l-153.046-88.355V88c-0.014-0.324,0.009-0.649,0.069-0.969v-0.069
		c-0.255-3.67,1.457-7.199,4.497-9.271l0.208-0.138c2.636-1.15,5.681-0.835,8.026,0.83L387.431,152
		C395.267,157.665,399.983,166.686,400.161,176.354z"/>
	<path style="fill:#275781;" d="M430.674,158.78v34.11l-30.512,17.712v-34.249c-0.179-9.668-4.894-18.689-12.731-24.355
		L259.915,78.383c-2.345-1.665-5.39-1.98-8.026-0.83l29.544-17.021v-0.069c2.774-1.75,6.333-1.641,8.995,0.277l127.446,73.686
		C425.766,140.051,430.517,149.09,430.674,158.78L430.674,158.78z"/>
	<g>
		<path style="fill:#91BAE2;" d="M456.135,224.718v258.491c0.485,4.085-1.325,8.104-4.705,10.448l-29.751,17.228l-0.069-0.069
			c2.97-2.408,4.509-6.163,4.082-9.963v-258.56c-0.157-9.69-4.908-18.73-12.8-24.355l-12.731-7.334l30.512-17.712l4.359,2.56
			l8.372,4.843C451.293,205.945,456.021,215.014,456.135,224.718L456.135,224.718z"/>
		<path style="fill:#91BAE2;" d="M247.184,86.962v0.069c-0.06,0.319-0.083,0.644-0.069,0.969v34.249L94.138,33.894L68.607,19.157
			c-2.308-1.614-5.276-1.953-7.888-0.899l29.475-17.09l0.277-0.138c2.733-1.53,6.104-1.341,8.649,0.484l25.531,14.737
			L247.184,86.962z"/>
	</g>
	
		<ellipse transform="matrix(-0.505 -0.8631 0.8631 -0.505 121.0991 609.1041)" style="fill:#2CAA60;" cx="235.211" cy="269.827" rx="128.388" ry="74.122"/>
	<g>
		<path style="fill:#FFFFFF;" d="M274.107,323.836c-2.702,0-5.156-1.572-6.286-4.026c-1.13-2.454-0.728-5.341,1.029-7.393
			c0.671-0.79,1.274-1.636,1.804-2.527c1.262-2.124,3.562-3.414,6.033-3.382s4.738,1.378,5.946,3.534s1.175,4.792-0.087,6.916
			c-0.93,1.576-1.995,3.068-3.183,4.459C278.049,322.953,276.128,323.837,274.107,323.836L274.107,323.836z"/>
		<path style="fill:#FFFFFF;" d="M276.593,320.343c-2.489-0.003-4.784-1.342-6.011-3.507c-1.227-2.165-1.197-4.822,0.078-6.959
			c7.892-13.203,3.912-38.885-9.453-61.054c-11.25-18.689-27.094-32.182-41.351-35.216c-2.431-0.502-4.407-2.268-5.179-4.627
			s-0.221-4.951,1.444-6.793s4.188-2.651,6.613-2.12c17.878,3.811,37.162,19.757,50.324,41.615
			c16.365,27.142,20.169,57.399,9.48,75.291C281.29,319.065,279.031,320.346,276.593,320.343L276.593,320.343z"/>
		<path style="fill:#FFFFFF;" d="M300.114,328.991c-0.389-0.002-0.778-0.033-1.162-0.095l-27.25-4.622
			c-2.679-0.457-4.844-2.439-5.534-5.068l-9.682-36.844c-0.628-2.39,0.067-4.933,1.823-6.671c1.756-1.738,4.306-2.408,6.689-1.757
			c2.383,0.651,4.238,2.525,4.866,4.915l8.547,32.527l22.851,3.872c3.546,0.6,6.041,3.816,5.742,7.399
			S303.71,328.988,300.114,328.991L300.114,328.991z"/>
		<path style="fill:#FFFFFF;" d="M249.181,339.741c-0.486,0-0.97-0.049-1.446-0.149c-17.872-3.811-37.155-19.75-50.324-41.615
			c-16.351-27.142-20.162-57.399-9.48-75.291c1.959-3.28,6.206-4.351,9.486-2.392c3.28,1.959,4.351,6.206,2.392,9.486
			c-7.885,13.203-3.905,38.885,9.453,61.061c11.257,18.682,27.101,32.176,41.351,35.21c3.464,0.735,5.814,3.967,5.445,7.489
			S252.722,339.739,249.181,339.741L249.181,339.741z"/>
		<path style="fill:#FFFFFF;" d="M207.296,265.971c-3.141-0.003-5.886-2.123-6.682-5.162l-8.554-32.527l-22.845-3.872
			c-3.762-0.645-6.292-4.214-5.655-7.977c0.637-3.763,4.201-6.301,7.966-5.671l27.243,4.622c2.679,0.457,4.844,2.439,5.534,5.068
			l9.689,36.845c0.542,2.075,0.092,4.284-1.218,5.981S209.441,265.969,207.296,265.971L207.296,265.971z"/>
	</g>
</g>
<g>
</g>
<g>
</g>
<g>
</g>
<g>
</g>
<g>
</g>
<g>
</g>
<g>
</g>
<g>
</g>
<g>
</g>
<g>
</g>
<g>
</g>
<g>
</g>
<g>
</g>
<g>
</g>
<g>
</g>
</svg>
