<?xml version="1.0" encoding="iso-8859-1"?>
<!-- Generator: Adobe Illustrator 19.0.0, SVG Export Plug-In . SVG Version: 6.00 Build 0)  -->
<svg version="1.1" id="Capa_1" xmlns="http://www.w3.org/2000/svg" xmlns:xlink="http://www.w3.org/1999/xlink" x="0px" y="0px"
	 viewBox="0 0 511.993 511.993" style="enable-background:new 0 0 511.993 511.993;" xml:space="preserve">
<g>
	<path style="fill:#B0D2EF;" d="M443.405,200.294l-8.372-4.843l-4.359-2.56v-34.11c-0.157-9.69-4.908-18.73-12.8-24.355
		L290.427,60.739c-2.661-1.917-6.22-2.027-8.995-0.277v0.069l-29.544,17.021l-0.208,0.138c-3.04,2.072-4.752,5.601-4.497,9.271
		L124.65,16.251L99.119,1.513c-2.545-1.826-5.916-2.015-8.649-0.484l-0.277,0.138l-29.475,17.09
		c-3.514,2.273-5.4,6.369-4.843,10.517v258.56c0.148,9.676,4.871,18.71,12.731,24.355l344.285,198.781
		c2.558,1.898,6.017,2.035,8.718,0.346l0.069,0.069l29.751-17.228c3.38-2.344,5.19-6.363,4.705-10.448V224.718
		C456.021,215.014,451.294,205.945,443.405,200.294z"/>
	<path style="fill:#4382C4;" d="M400.161,176.354v34.249l-153.046-88.355V88c-0.014-0.324,0.009-0.649,0.069-0.969v-0.069
		c-0.255-3.67,1.457-7.199,4.497-9.271l0.208-0.138c2.636-1.15,5.681-0.835,8.026,0.83L387.431,152
		C395.267,157.665,399.983,166.686,400.161,176.354z"/>
	<path style="fill:#275781;" d="M430.674,158.78v34.11l-30.512,17.712v-34.249c-0.179-9.668-4.894-18.689-12.731-24.355
		L259.915,78.383c-2.345-1.665-5.39-1.98-8.026-0.83l29.544-17.021v-0.069c2.774-1.75,6.333-1.641,8.995,0.277l127.446,73.686
		C425.766,140.051,430.517,149.09,430.674,158.78L430.674,158.78z"/>
	<g>
		<path style="fill:#91BAE2;" d="M456.135,224.718v258.491c0.485,4.085-1.325,8.104-4.705,10.448l-29.751,17.228l-0.069-0.069
			c2.97-2.408,4.509-6.163,4.082-9.963v-258.56c-0.157-9.69-4.908-18.73-12.8-24.355l-12.731-7.334l30.512-17.712l4.359,2.56
			l8.372,4.843C451.293,205.945,456.021,215.014,456.135,224.718L456.135,224.718z"/>
		<path style="fill:#91BAE2;" d="M247.184,86.962v0.069c-0.06,0.319-0.083,0.644-0.069,0.969v34.249L94.138,33.894L68.607,19.157
			c-2.308-1.614-5.276-1.953-7.888-0.899l29.475-17.09l0.277-0.138c2.733-1.53,6.104-1.341,8.649,0.484l25.531,14.737
			L247.184,86.962z"/>
	</g>
	
		<ellipse transform="matrix(-0.505 -0.8631 0.8631 -0.505 121.0991 609.1041)" style="fill:#894B98;" cx="235.211" cy="269.827" rx="128.443" ry="74.15"/>
	<g>
		<path style="fill:#E57D25;" d="M247.816,251.566c-0.314,0-0.628-0.021-0.939-0.061l-40.851-5.561
			c-3.788-0.515-6.441-4.003-5.926-7.791c0.515-3.788,4.003-6.441,7.791-5.926l40.851,5.561c3.607,0.49,6.218,3.689,5.974,7.321
			S251.456,251.563,247.816,251.566z"/>
		<path style="fill:#E57D25;" d="M247.81,316.444c-1.859,0.003-3.64-0.745-4.939-2.074l-40.851-41.608
			c-2.676-2.728-2.633-7.108,0.095-9.784c2.728-2.676,7.108-2.633,9.784,0.095l40.851,41.608c1.951,1.989,2.518,4.954,1.44,7.523
			C253.11,314.772,250.596,316.444,247.81,316.444L247.81,316.444z"/>
	</g>
	<g>
		<path style="fill:#F0C41A;" d="M275.161,279.444c-4.224-0.101-8.348-1.308-11.959-3.5c-13.23-8.468-21.544-22.817-22.311-38.507
			c-0.517-7.198,2.903-14.112,8.939-18.068c6.507-3.26,14.268-2.748,20.291,1.338c13.23,8.466,21.544,22.812,22.311,38.5
			c0.519,7.2-2.902,14.117-8.939,18.074C280.955,278.726,278.08,279.472,275.161,279.444z M258.222,231.032
			c-0.511-0.023-1.019,0.089-1.473,0.324c-1.25,0.716-2.02,3.047-2.02,6.081c0.782,10.736,6.458,20.516,15.392,26.52
			c3.25,1.878,5.473,1.926,6.453,1.338c1.25-0.716,2.02-3.047,2.02-6.088c-0.782-10.734-6.458-20.511-15.392-26.513
			C261.71,231.724,259.996,231.152,258.222,231.032L258.222,231.032z"/>
		<path style="fill:#F0C41A;" d="M199.749,275.552c-4.224-0.101-8.348-1.308-11.959-3.5c-13.232-8.468-21.548-22.816-22.318-38.507
			c-0.927-7.312,2.638-14.462,9.035-18.123c6.397-3.66,14.368-3.111,20.202,1.393c13.232,8.464,21.546,22.811,22.311,38.5
			c0.517,7.196-2.901,14.109-8.932,18.068C205.549,274.834,202.671,275.582,199.749,275.552L199.749,275.552z M182.803,227.133
			c-0.512-0.021-1.02,0.093-1.473,0.331c-1.25,0.716-2.02,3.047-2.02,6.081c0.782,10.738,6.461,20.518,15.399,26.52
			c3.237,1.872,5.46,1.905,6.46,1.338c1.579-1.607,2.323-3.856,2.013-6.088c-0.778-10.735-6.455-20.515-15.392-26.513
			C186.296,227.831,184.58,227.256,182.803,227.133L182.803,227.133z"/>
		<path style="fill:#F0C41A;" d="M275.161,358.734c-4.224-0.101-8.348-1.308-11.959-3.5c-13.23-8.466-21.544-22.812-22.311-38.5
			c-0.93-7.311,2.632-14.464,9.028-18.126c6.396-3.662,14.367-3.114,20.202,1.389c13.23,8.469,21.544,22.817,22.311,38.507
			c0.517,7.198-2.903,14.112-8.939,18.068C280.955,358.017,278.08,358.763,275.161,358.734L275.161,358.734z M258.222,310.322
			c-0.511-0.023-1.019,0.089-1.473,0.324c-1.25,0.716-2.02,3.047-2.02,6.088c0.782,10.734,6.458,20.511,15.392,26.513
			c3.25,1.885,5.473,1.926,6.453,1.338c1.25-0.716,2.02-3.047,2.02-6.081c-0.782-10.736-6.458-20.516-15.392-26.52
			C261.71,311.015,259.996,310.442,258.222,310.322L258.222,310.322z"/>
	</g>
</g>
<g>
</g>
<g>
</g>
<g>
</g>
<g>
</g>
<g>
</g>
<g>
</g>
<g>
</g>
<g>
</g>
<g>
</g>
<g>
</g>
<g>
</g>
<g>
</g>
<g>
</g>
<g>
</g>
<g>
</g>
</svg>
