<?xml version="1.0" encoding="iso-8859-1"?>
<!-- Generator: Adobe Illustrator 19.0.0, SVG Export Plug-In . SVG Version: 6.00 Build 0)  -->
<svg version="1.1" id="Capa_1" xmlns="http://www.w3.org/2000/svg" xmlns:xlink="http://www.w3.org/1999/xlink" x="0px" y="0px"
	 viewBox="0 0 511.993 511.993" style="enable-background:new 0 0 511.993 511.993;" xml:space="preserve">
<g>
	<path style="fill:#B0D2EF;" d="M443.405,200.294l-8.372-4.843l-4.359-2.56v-34.11c-0.157-9.69-4.908-18.73-12.8-24.355
		L290.427,60.739c-2.661-1.917-6.22-2.027-8.995-0.277v0.069l-29.544,17.021l-0.208,0.138c-3.04,2.072-4.752,5.601-4.497,9.271
		L124.65,16.251L99.119,1.513c-2.545-1.826-5.916-2.015-8.649-0.484l-0.277,0.138l-29.475,17.09
		c-3.514,2.273-5.4,6.369-4.843,10.517v258.56c0.148,9.676,4.871,18.71,12.731,24.355l344.285,198.781
		c2.558,1.898,6.017,2.035,8.718,0.346l0.069,0.069l29.751-17.228c3.38-2.344,5.19-6.363,4.705-10.448V224.718
		C456.021,215.014,451.294,205.945,443.405,200.294z"/>
	<path style="fill:#4382C4;" d="M400.161,176.354v34.249l-153.046-88.355V88c-0.014-0.324,0.009-0.649,0.069-0.969v-0.069
		c-0.255-3.67,1.457-7.199,4.497-9.271l0.208-0.138c2.636-1.15,5.681-0.835,8.026,0.83L387.431,152
		C395.267,157.665,399.983,166.686,400.161,176.354z"/>
	<path style="fill:#275781;" d="M430.674,158.78v34.11l-30.512,17.712v-34.249c-0.179-9.668-4.894-18.689-12.731-24.355
		L259.915,78.383c-2.345-1.665-5.39-1.98-8.026-0.83l29.544-17.021v-0.069c2.774-1.75,6.333-1.641,8.995,0.277l127.446,73.686
		C425.766,140.051,430.517,149.09,430.674,158.78L430.674,158.78z"/>
	<g>
		<path style="fill:#91BAE2;" d="M456.135,224.718v258.491c0.485,4.085-1.325,8.104-4.705,10.448l-29.751,17.228l-0.069-0.069
			c2.97-2.408,4.509-6.163,4.082-9.963v-258.56c-0.157-9.69-4.908-18.73-12.8-24.355l-12.731-7.334l30.512-17.712l4.359,2.56
			l8.372,4.843C451.293,205.945,456.021,215.014,456.135,224.718L456.135,224.718z"/>
		<path style="fill:#91BAE2;" d="M247.184,86.962v0.069c-0.06,0.319-0.083,0.644-0.069,0.969v34.249L94.138,33.894L68.607,19.157
			c-2.308-1.614-5.276-1.953-7.888-0.899l29.475-17.09l0.277-0.138c2.733-1.53,6.104-1.341,8.649,0.484l25.531,14.737
			L247.184,86.962z"/>
	</g>
	
		<ellipse transform="matrix(-0.505 -0.8631 0.8631 -0.505 121.0991 609.1041)" style="fill:#D35525;" cx="235.211" cy="269.827" rx="128.443" ry="74.15"/>
	<path style="fill:#F0C41A;" d="M281.209,306.775l-0.014-66.101c-0.003-1.32-0.382-2.612-1.095-3.723
		c-4.515-6.968-10.581-12.798-17.723-17.034c-6.486-4.62-14.834-5.743-22.311-3c-0.777,0.378-3.959,0.628-9.365-2.487
		c-3.685-2.182-6.986-4.955-9.77-8.209c-1.893-2.193-4.952-2.975-7.665-1.958c-2.713,1.016-4.505,3.615-4.491,6.513l0.009,51.295
		c-1.789-1.715-3.764-3.226-5.887-4.505c-5.33-4.056-12.57-4.529-18.383-1.2c-5.812,3.329-9.068,9.813-8.266,16.463
		c0.678,13.875,8.03,26.564,19.73,34.054c3.261,1.978,6.984,3.064,10.797,3.149c2.685,0.023,5.329-0.664,7.662-1.993
		c5.506-3.582,8.639-9.866,8.189-16.419c-0.025-1.25-0.127-2.498-0.304-3.736h0.304v-62.163c0.378,0.236,0.764,0.466,1.149,0.689
		c6.478,4.619,14.82,5.734,22.284,2.98c0.777-0.358,3.953-0.628,9.399,2.514c4.678,2.778,8.732,6.493,11.905,10.912l0.003,38.682
		c-1.79-1.715-3.765-3.227-5.889-4.506c-5.33-4.056-12.57-4.529-18.383-1.2c-5.812,3.329-9.068,9.813-8.266,16.463
		c0.68,13.873,8.032,26.559,19.73,34.047c3.261,1.977,6.985,3.063,10.797,3.149c2.685,0.024,5.329-0.664,7.662-1.993
		c5.507-3.581,8.641-9.865,8.189-16.419c-0.017-1.427-0.133-2.852-0.347-4.264L281.209,306.775z"/>
</g>
<g>
</g>
<g>
</g>
<g>
</g>
<g>
</g>
<g>
</g>
<g>
</g>
<g>
</g>
<g>
</g>
<g>
</g>
<g>
</g>
<g>
</g>
<g>
</g>
<g>
</g>
<g>
</g>
<g>
</g>
</svg>
